  0
SECTION
  2
HEADER
  9
$ACADVER
  1
AC1006
  9
$EXTMIN
 10
0.000000
 20
0.000000
 30
0.000000
  9
$EXTMAX
 10
825.000000
 20
413.000000
 30
0.000000
  0
ENDSEC
  0
SECTION
  2
ENTITIES
  0
POLYLINE
  8
0
 66
1
 70
1
  0
VERTEX
  8
0
 10
131.000000
 20
248.308084
 42
0.049209
  0
VERTEX
  8
0
 10
124.878068
 20
246.649266
 42
0.087263
  0
VERTEX
  8
0
 10
120.398734
 20
243.982263
 42
0.107182
  0
VERTEX
  8
0
 10
117.688863
 20
240.388829
 42
0.108569
  0
VERTEX
  8
0
 10
116.727273
 20
236.012552
 42
0.032906
  0
VERTEX
  8
0
 10
116.857622
 20
234.034067
 42
0.049039
  0
VERTEX
  8
0
 10
117.252052
 20
232.346289
 42
0.053846
  0
VERTEX
  8
0
 10
117.929801
 20
230.888413
 42
0.052908
  0
VERTEX
  8
0
 10
118.906573
 20
229.599448
 42
-0.070794
  0
VERTEX
  8
0
 10
121.048699
 20
226.552977
 42
-0.029880
  0
VERTEX
  8
0
 10
123.055081
 20
221.958607
 42
-0.029963
  0
VERTEX
  8
0
 10
124.527386
 20
217.062228
 42
-0.058111
  0
VERTEX
  8
0
 10
125.000000
 20
213.009510
 42
-0.032730
  0
VERTEX
  8
0
 10
124.880681
 20
211.188675
 42
-0.017863
  0
VERTEX
  8
0
 10
124.509272
 20
208.979928
 42
-0.017733
  0
VERTEX
  8
0
 10
123.969555
 20
206.753052
 42
-0.026848
  0
VERTEX
  8
0
 10
123.329437
 20
204.865324
 42
0.000000
  0
VERTEX
  8
0
 10
121.658873
 20
200.690176
 42
0.000000
  0
VERTEX
  8
0
 10
124.385713
 20
198.344647
 42
-0.016729
  0
VERTEX
  8
0
 10
126.083572
 20
196.782413
 42
-0.156268
  0
VERTEX
  8
0
 10
126.540011
 20
195.913102
 42
-0.160268
  0
VERTEX
  8
0
 10
126.400101
 20
194.950719
 42
-0.017843
  0
VERTEX
  8
0
 10
125.326510
 20
192.975591
 42
0.078679
  0
VERTEX
  8
0
 10
124.270909
 20
190.305847
 42
0.190979
  0
VERTEX
  8
0
 10
124.598404
 20
188.249299
 42
0.174791
  0
VERTEX
  8
0
 10
126.289589
 20
186.855267
 42
0.064699
  0
VERTEX
  8
0
 10
129.351277
 20
186.189635
 42
0.000000
  0
VERTEX
  8
0
 10
133.000000
 20
185.879269
 42
0.000000
  0
VERTEX
  8
0
 10
133.127623
 20
180.189635
 42
0.004131
  0
VERTEX
  8
0
 10
133.200124
 20
177.827979
 42
0.003973
  0
VERTEX
  8
0
 10
133.312341
 20
175.436955
 42
0.003933
  0
VERTEX
  8
0
 10
133.444577
 20
173.331072
 42
0.014379
  0
VERTEX
  8
0
 10
133.577233
 20
172.000000
 42
-0.018926
  0
VERTEX
  8
0
 10
134.009664
 20
167.221082
 42
-0.028857
  0
VERTEX
  8
0
 10
133.987570
 20
163.056987
 42
-0.033874
  0
VERTEX
  8
0
 10
133.531608
 20
159.588954
 42
-0.066169
  0
VERTEX
  8
0
 10
132.628167
 20
156.956462
 42
0.019949
  0
VERTEX
  8
0
 10
132.004937
 20
155.571478
 42
0.018619
  0
VERTEX
  8
0
 10
131.478274
 20
154.109281
 42
0.018972
  0
VERTEX
  8
0
 10
131.108562
 20
152.776259
 42
0.058218
  0
VERTEX
  8
0
 10
131.000000
 20
151.847052
 42
0.177149
  0
VERTEX
  8
0
 10
131.774315
 20
149.730146
 42
0.011147
  0
VERTEX
  8
0
 10
136.241984
 20
144.673258
 42
0.010534
  0
VERTEX
  8
0
 10
140.943596
 20
139.795140
 42
0.198225
  0
VERTEX
  8
0
 10
142.870436
 20
139.000000
 42
0.221822
  0
VERTEX
  8
0
 10
143.303469
 20
139.202055
 42
0.076450
  0
VERTEX
  8
0
 10
143.670744
 20
139.807813
 42
0.058225
  0
VERTEX
  8
0
 10
143.922700
 20
140.696982
 42
0.039181
  0
VERTEX
  8
0
 10
144.008692
 20
141.750000
 42
-0.014395
  0
VERTEX
  8
0
 10
144.053662
 20
143.157074
 42
-0.004717
  0
VERTEX
  8
0
 10
144.199088
 20
145.226089
 42
-0.004695
  0
VERTEX
  8
0
 10
144.403862
 20
147.520924
 42
-0.005291
  0
VERTEX
  8
0
 10
144.644642
 20
149.721794
 42
0.016021
  0
VERTEX
  8
0
 10
144.927370
 20
152.944288
 42
0.091969
  0
VERTEX
  8
0
 10
144.709563
 20
154.637278
 42
0.104108
  0
VERTEX
  8
0
 10
143.907977
 20
156.041055
 42
0.023287
  0
VERTEX
  8
0
 10
141.971949
 20
158.026204
 42
-0.033460
  0
VERTEX
  8
0
 10
140.649815
 20
159.438206
 42
-0.034575
  0
VERTEX
  8
0
 10
139.543564
 20
160.999226
 42
-0.037238
  0
VERTEX
  8
0
 10
138.764147
 20
162.522440
 42
-0.079247
  0
VERTEX
  8
0
 10
138.449947
 20
163.804410
 42
-0.002389
  0
VERTEX
  8
0
 10
138.325259
 20
165.411888
 42
-0.000345
  0
VERTEX
  8
0
 10
138.088973
 20
168.690540
 42
-0.000392
  0
VERTEX
  8
0
 10
137.815277
 20
172.567982
 42
-0.000335
  0
VERTEX
  8
0
 10
137.532914
 20
176.652747
 42
0.000000
  0
VERTEX
  8
0
 10
136.837930
 20
186.805493
 42
0.000000
  0
VERTEX
  8
0
 10
139.986535
 20
187.497043
 42
0.063221
  0
VERTEX
  8
0
 10
142.358332
 20
188.342653
 42
0.176468
  0
VERTEX
  8
0
 10
143.547598
 20
189.612339
 42
0.180941
  0
VERTEX
  8
0
 10
143.625364
 20
191.325710
 42
0.066947
  0
VERTEX
  8
0
 10
142.565574
 20
193.540266
 42
-0.032662
  0
VERTEX
  8
0
 10
141.655133
 20
195.149967
 42
-0.175271
  0
VERTEX
  8
0
 10
141.553776
 20
196.136138
 42
-0.122940
  0
VERTEX
  8
0
 10
142.092348
 20
197.147684
 42
-0.012875
  0
VERTEX
  8
0
 10
143.955622
 20
199.109469
 42
0.015096
  0
VERTEX
  8
0
 10
146.135960
 20
201.425594
 42
0.120906
  0
VERTEX
  8
0
 10
146.813257
 20
202.712779
 42
0.219233
  0
VERTEX
  8
0
 10
146.608159
 20
203.791400
 42
0.064723
  0
VERTEX
  8
0
 10
145.434063
 20
205.054723
 42
-0.134566
  0
VERTEX
  8
0
 10
142.485801
 20
209.268124
 42
-0.076078
  0
VERTEX
  8
0
 10
141.293211
 20
215.430634
 42
-0.053077
  0
VERTEX
  8
0
 10
141.850338
 20
223.763843
 42
-0.022737
  0
VERTEX
  8
0
 10
144.269631
 20
234.670780
 42
0.009486
  0
VERTEX
  8
0
 10
145.048367
 20
237.788450
 42
0.072752
  0
VERTEX
  8
0
 10
145.169408
 20
239.287830
 42
0.136332
  0
VERTEX
  8
0
 10
144.803457
 20
240.336723
 42
0.064092
  0
VERTEX
  8
0
 10
143.832964
 20
241.410993
 42
-0.041796
  0
VERTEX
  8
0
 10
143.131611
 20
242.121157
 42
-0.038767
  0
VERTEX
  8
0
 10
142.538433
 20
242.955361
 42
-0.041115
  0
VERTEX
  8
0
 10
142.129598
 20
243.783792
 42
-0.094342
  0
VERTEX
  8
0
 10
142.000000
 20
244.464532
 42
0.147167
  0
VERTEX
  8
0
 10
141.796623
 20
245.140540
 42
0.047774
  0
VERTEX
  8
0
 10
141.133338
 20
245.960852
 42
0.042829
  0
VERTEX
  8
0
 10
140.178702
 20
246.781001
 42
0.036745
  0
VERTEX
  8
0
 10
139.049660
 20
247.474320
 42
0.022952
  0
VERTEX
  8
0
 10
137.050485
 20
248.394463
 42
0.070680
  0
VERTEX
  8
0
 10
135.609376
 20
248.753753
 42
0.056466
  0
VERTEX
  8
0
 10
133.956912
 20
248.737884
 42
0.010964
  0
SEQEND
  0
ENDSEC
  0
EOF
