  0
SECTION
  2
HEADER
  9
$ACADVER
  1
AC1006
  9
$EXTMIN
 10
0.000000
 20
0.000000
 30
0.000000
  9
$EXTMAX
 10
825.000000
 20
413.000000
 30
0.000000
  0
ENDSEC
  0
SECTION
  2
ENTITIES
  0
POLYLINE
  8
0
 66
1
 70
1
  0
VERTEX
  8
0
 10
195.288367
 20
254.554011
 42
0.096176
  0
VERTEX
  8
0
 10
185.664975
 20
247.574236
 42
0.048602
  0
VERTEX
  8
0
 10
176.510786
 20
235.641961
 42
0.045900
  0
VERTEX
  8
0
 10
169.179751
 20
221.049035
 42
0.051723
  0
VERTEX
  8
0
 10
164.988375
 20
205.931079
 42
0.007045
  0
VERTEX
  8
0
 10
164.513629
 20
202.852594
 42
0.005303
  0
VERTEX
  8
0
 10
164.075322
 20
199.455432
 42
0.005362
  0
VERTEX
  8
0
 10
163.731263
 20
196.251694
 42
0.012297
  0
VERTEX
  8
0
 10
163.557478
 20
193.830902
 42
0.047673
  0
VERTEX
  8
0
 10
163.935493
 20
185.994694
 42
0.022176
  0
VERTEX
  8
0
 10
165.837951
 20
175.985011
 42
0.022149
  0
VERTEX
  8
0
 10
168.688253
 20
165.938936
 42
0.037767
  0
VERTEX
  8
0
 10
172.053978
 20
157.894195
 42
0.065006
  0
VERTEX
  8
0
 10
174.588105
 20
154.202542
 42
0.024722
  0
VERTEX
  8
0
 10
178.992269
 20
149.757994
 42
0.023064
  0
VERTEX
  8
0
 10
183.671106
 20
145.861576
 42
0.103952
  0
VERTEX
  8
0
 10
186.870640
 20
144.350886
 42
-0.014824
  0
VERTEX
  8
0
 10
187.950626
 20
144.059404
 42
-0.014427
  0
VERTEX
  8
0
 10
189.021376
 20
143.702060
 42
-0.014484
  0
VERTEX
  8
0
 10
189.943138
 20
143.333974
 42
-0.050857
  0
VERTEX
  8
0
 10
190.500000
 20
143.022110
 42
0.138392
  0
VERTEX
  8
0
 10
192.804745
 20
142.214329
 42
0.021947
  0
VERTEX
  8
0
 10
197.642704
 20
142.126345
 42
0.025441
  0
VERTEX
  8
0
 10
202.783104
 20
142.520738
 42
0.048347
  0
VERTEX
  8
0
 10
206.824738
 20
143.441787
 42
0.083258
  0
VERTEX
  8
0
 10
213.705413
 20
147.083762
 42
0.075304
  0
VERTEX
  8
0
 10
219.299086
 20
152.881072
 42
0.074881
  0
VERTEX
  8
0
 10
222.949315
 20
160.107883
 42
0.080757
  0
VERTEX
  8
0
 10
224.183629
 20
167.901650
 42
0.088427
  0
VERTEX
  8
0
 10
222.773229
 20
175.630782
 42
0.073985
  0
VERTEX
  8
0
 10
218.736654
 20
182.939768
 42
0.074213
  0
VERTEX
  8
0
 10
212.761776
 20
188.737513
 42
0.090034
  0
VERTEX
  8
0
 10
205.718941
 20
192.075681
 42
0.051606
  0
VERTEX
  8
0
 10
201.272044
 20
192.792922
 42
0.032625
  0
VERTEX
  8
0
 10
196.013123
 20
192.748569
 42
0.032895
  0
VERTEX
  8
0
 10
190.938979
 20
192.036476
 42
0.064682
  0
VERTEX
  8
0
 10
187.096362
 20
190.701457
 42
-0.008274
  0
VERTEX
  8
0
 10
185.737106
 20
190.049858
 42
-0.010706
  0
VERTEX
  8
0
 10
184.468265
 20
189.499803
 42
-0.008613
  0
VERTEX
  8
0
 10
183.395542
 20
189.083217
 42
-0.088528
  0
VERTEX
  8
0
 10
182.929226
 20
189.000000
 42
-0.354182
  0
VERTEX
  8
0
 10
181.887586
 20
189.843696
 42
-0.016566
  0
VERTEX
  8
0
 10
181.037207
 20
194.622985
 42
-0.024654
  0
VERTEX
  8
0
 10
180.530325
 20
200.019034
 42
-0.032500
  0
VERTEX
  8
0
 10
180.632157
 20
204.958417
 42
-0.054231
  0
VERTEX
  8
0
 10
182.321107
 20
213.557309
 42
-0.044934
  0
VERTEX
  8
0
 10
185.888628
 20
222.184483
 42
-0.038469
  0
VERTEX
  8
0
 10
191.527575
 20
231.202473
 42
-0.023168
  0
VERTEX
  8
0
 10
199.483599
 20
241.000000
 42
0.057499
  0
VERTEX
  8
0
 10
201.888299
 20
244.415102
 42
0.028681
  0
VERTEX
  8
0
 10
204.149745
 20
249.202813
 42
0.022895
  0
VERTEX
  8
0
 10
205.797837
 20
253.889458
 42
0.214696
  0
VERTEX
  8
0
 10
205.526181
 20
255.957639
 42
0.212033
  0
VERTEX
  8
0
 10
204.275379
 20
256.812158
 42
0.079598
  0
VERTEX
  8
0
 10
202.105519
 20
256.861223
 42
0.052302
  0
VERTEX
  8
0
 10
199.101475
 20
256.123657
 42
0.022620
  0
SEQEND
  0
POLYLINE
  8
0
 66
1
 70
1
  0
VERTEX
  8
0
 10
207.457116
 20
182.165038
 42
-0.064337
  0
VERTEX
  8
0
 10
210.249559
 20
180.010792
 42
-0.050867
  0
VERTEX
  8
0
 10
212.660862
 20
177.050569
 42
-0.049655
  0
VERTEX
  8
0
 10
214.478696
 20
173.581614
 42
-0.054075
  0
VERTEX
  8
0
 10
215.513618
 20
169.919397
 42
-0.143469
  0
VERTEX
  8
0
 10
214.519705
 20
161.508477
 42
-0.124367
  0
VERTEX
  8
0
 10
209.127250
 20
154.416220
 42
-0.123750
  0
VERTEX
  8
0
 10
200.988875
 20
150.713246
 42
-0.141284
  0
VERTEX
  8
0
 10
192.500000
 20
151.564573
 42
-0.095222
  0
VERTEX
  8
0
 10
186.810040
 20
155.215957
 42
-0.099370
  0
VERTEX
  8
0
 10
182.980866
 20
160.667913
 42
-0.099865
  0
VERTEX
  8
0
 10
181.563987
 20
167.151772
 42
-0.097177
  0
VERTEX
  8
0
 10
182.748059
 20
173.745837
 42
-0.066445
  0
VERTEX
  8
0
 10
184.220693
 20
176.415320
 42
-0.033939
  0
VERTEX
  8
0
 10
186.704688
 20
179.336689
 42
-0.033937
  0
VERTEX
  8
0
 10
189.562034
 20
181.896025
 42
-0.066237
  0
VERTEX
  8
0
 10
192.195804
 20
183.440283
 42
-0.075371
  0
VERTEX
  8
0
 10
195.615824
 20
184.304709
 42
-0.045151
  0
VERTEX
  8
0
 10
199.815669
 20
184.333575
 42
-0.044728
  0
VERTEX
  8
0
 10
204.018471
 20
183.600174
 42
-0.066708
  0
SEQEND
  0
ENDSEC
  0
EOF
