  0
SECTION
  2
HEADER
  9
$ACADVER
  1
AC1006
  9
$EXTMIN
 10
0.000000
 20
0.000000
 30
0.000000
  9
$EXTMAX
 10
825.000000
 20
413.000000
 30
0.000000
  0
ENDSEC
  0
SECTION
  2
ENTITIES
  0
POLYLINE
  8
0
 66
1
 70
1
  0
VERTEX
  8
0
 10
461.500000
 20
391.960880
 42
-0.046220
  0
VERTEX
  8
0
 10
457.358081
 20
390.532717
 42
-0.001453
  0
VERTEX
  8
0
 10
439.962580
 20
386.335426
 42
-0.002133
  0
VERTEX
  8
0
 10
423.062295
 20
382.385674
 42
-0.026865
  0
VERTEX
  8
0
 10
416.609404
 20
381.267334
 42
0.042071
  0
VERTEX
  8
0
 10
413.324622
 20
380.594710
 42
0.069070
  0
VERTEX
  8
0
 10
410.742223
 20
379.429100
 42
0.038191
  0
VERTEX
  8
0
 10
407.676215
 20
377.154617
 42
0.005407
  0
VERTEX
  8
0
 10
401.795766
 20
371.940432
 42
0.022402
  0
VERTEX
  8
0
 10
400.187872
 20
370.346528
 42
0.117147
  0
VERTEX
  8
0
 10
399.581810
 20
369.267447
 42
0.126341
  0
VERTEX
  8
0
 10
399.549337
 20
368.072125
 42
0.027817
  0
VERTEX
  8
0
 10
400.120895
 20
366.083044
 42
-0.060197
  0
VERTEX
  8
0
 10
400.612352
 20
363.834470
 42
-0.152319
  0
VERTEX
  8
0
 10
400.271539
 20
362.214691
 42
-0.221945
  0
VERTEX
  8
0
 10
399.200325
 20
361.442981
 42
-0.129631
  0
VERTEX
  8
0
 10
397.590684
 20
361.556395
 42
0.046946
  0
VERTEX
  8
0
 10
394.979475
 20
362.179773
 42
0.001728
  0
VERTEX
  8
0
 10
384.904455
 20
363.569442
 42
0.003487
  0
VERTEX
  8
0
 10
374.966824
 20
364.834696
 42
0.009831
  0
VERTEX
  8
0
 10
368.000000
 20
365.533738
 42
-0.000990
  0
VERTEX
  8
0
 10
364.517783
 20
365.821053
 42
-0.000526
  0
VERTEX
  8
0
 10
360.206250
 20
366.189955
 42
-0.000523
  0
VERTEX
  8
0
 10
355.799917
 20
366.576282
 42
-0.000813
  0
VERTEX
  8
0
 10
352.000000
 20
366.919676
 42
0.022932
  0
VERTEX
  8
0
 10
335.649758
 20
367.670570
 42
0.007073
  0
VERTEX
  8
0
 10
310.981070
 20
367.322500
 42
0.007283
  0
VERTEX
  8
0
 10
285.896744
 20
366.247714
 42
0.017818
  0
VERTEX
  8
0
 10
267.500000
 20
364.531507
 42
0.001457
  0
VERTEX
  8
0
 10
249.123418
 20
362.099714
 42
0.007617
  0
VERTEX
  8
0
 10
239.030674
 20
360.577288
 42
0.009416
  0
VERTEX
  8
0
 10
229.940593
 20
358.887653
 42
0.003015
  0
VERTEX
  8
0
 10
216.500000
 20
356.041987
 42
0.014059
  0
VERTEX
  8
0
 10
200.257675
 20
352.019203
 42
0.010712
  0
VERTEX
  8
0
 10
182.709229
 20
346.738034
 42
0.010836
  0
VERTEX
  8
0
 10
165.743877
 20
340.824036
 42
0.016469
  0
VERTEX
  8
0
 10
151.304864
 20
334.888355
 42
-0.004787
  0
VERTEX
  8
0
 10
149.655694
 20
334.164922
 42
-0.006765
  0
VERTEX
  8
0
 10
148.172382
 20
333.554704
 42
-0.004125
  0
VERTEX
  8
0
 10
146.917689
 20
333.070210
 42
-0.090309
  0
VERTEX
  8
0
 10
146.532136
 20
333.000000
 42
0.124170
  0
VERTEX
  8
0
 10
143.111401
 20
332.137189
 42
0.002029
  0
VERTEX
  8
0
 10
125.626459
 20
322.625700
 42
0.001569
  0
VERTEX
  8
0
 10
107.935004
 20
312.836220
 42
0.171658
  0
VERTEX
  8
0
 10
106.166667
 20
310.829148
 42
-0.090316
  0
VERTEX
  8
0
 10
105.966858
 20
310.512132
 42
-0.065502
  0
VERTEX
  8
0
 10
105.646344
 20
310.243562
 42
-0.064110
  0
VERTEX
  8
0
 10
105.259132
 20
310.061938
 42
-0.077792
  0
VERTEX
  8
0
 10
104.863440
 20
310.000000
 42
0.154496
  0
VERTEX
  8
0
 10
103.660631
 20
309.619253
 42
0.001836
  0
VERTEX
  8
0
 10
96.844129
 20
304.785641
 42
0.006055
  0
VERTEX
  8
0
 10
90.427535
 20
300.081674
 42
0.016965
  0
VERTEX
  8
0
 10
86.088996
 20
296.583076
 42
0.012493
  0
VERTEX
  8
0
 10
84.599849
 20
295.230044
 42
0.001234
  0
VERTEX
  8
0
 10
81.110931
 20
291.880654
 42
0.001557
  0
VERTEX
  8
0
 10
76.974138
 20
287.864690
 42
0.001234
  0
VERTEX
  8
0
 10
72.528058
 20
283.500000
 42
0.016564
  0
VERTEX
  8
0
 10
65.125417
 20
275.696502
 42
0.027685
  0
VERTEX
  8
0
 10
59.503898
 20
268.609099
 42
0.033283
  0
VERTEX
  8
0
 10
55.583616
 20
262.195759
 42
0.060967
  0
VERTEX
  8
0
 10
53.426425
 20
256.470580
 42
-0.064279
  0
VERTEX
  8
0
 10
52.811188
 20
254.869831
 42
-0.012328
  0
VERTEX
  8
0
 10
51.262053
 20
252.164033
 42
-0.012950
  0
VERTEX
  8
0
 10
49.281591
 20
249.077798
 42
-0.011607
  0
VERTEX
  8
0
 10
47.072788
 20
245.981448
 42
0.023352
  0
VERTEX
  8
0
 10
42.373865
 20
239.056018
 42
0.014670
  0
VERTEX
  8
0
 10
37.510677
 20
230.564624
 42
0.014525
  0
VERTEX
  8
0
 10
33.361800
 20
222.226980
 42
0.038688
  0
VERTEX
  8
0
 10
31.050975
 20
216.000000
 42
-0.002919
  0
VERTEX
  8
0
 10
30.484315
 20
214.057540
 42
-0.002236
  0
VERTEX
  8
0
 10
29.843009
 20
211.940625
 42
-0.002260
  0
VERTEX
  8
0
 10
29.224927
 20
209.964586
 42
-0.005350
  0
VERTEX
  8
0
 10
28.742232
 20
208.500000
 42
0.070694
  0
VERTEX
  8
0
 10
27.815567
 20
203.626823
 42
0.007024
  0
VERTEX
  8
0
 10
27.425630
 20
191.710809
 42
0.008744
  0
VERTEX
  8
0
 10
27.411629
 20
179.822478
 42
0.040663
  0
VERTEX
  8
0
 10
28.079563
 20
173.000000
 42
0.038589
  0
VERTEX
  8
0
 10
30.976739
 20
161.931826
 42
0.026807
  0
VERTEX
  8
0
 10
35.854315
 20
149.955452
 42
0.025563
  0
VERTEX
  8
0
 10
42.313618
 20
137.888266
 42
0.025493
  0
VERTEX
  8
0
 10
49.976074
 20
126.531832
 42
0.025044
  0
VERTEX
  8
0
 10
56.583818
 20
118.600520
 42
0.009658
  0
VERTEX
  8
0
 10
66.496490
 20
108.254391
 42
0.008951
  0
VERTEX
  8
0
 10
76.542194
 20
98.521660
 42
0.039193
  0
VERTEX
  8
0
 10
83.000000
 20
93.370360
 42
-0.003744
  0
VERTEX
  8
0
 10
84.722567
 20
92.185634
 42
-0.001457
  0
VERTEX
  8
0
 10
87.087500
 20
90.522608
 42
-0.001442
  0
VERTEX
  8
0
 10
89.637862
 20
88.706994
 42
-0.001790
  0
VERTEX
  8
0
 10
92.000000
 20
87.002262
 42
0.021512
  0
VERTEX
  8
0
 10
102.673038
 20
79.922387
 42
0.011573
  0
VERTEX
  8
0
 10
116.384197
 20
72.080381
 42
0.011140
  0
VERTEX
  8
0
 10
131.434554
 20
64.357340
 42
0.012367
  0
VERTEX
  8
0
 10
146.303557
 20
57.590261
 42
0.016552
  0
VERTEX
  8
0
 10
163.808140
 20
50.815708
 42
0.010742
  0
VERTEX
  8
0
 10
184.444960
 20
44.098559
 42
0.010791
  0
VERTEX
  8
0
 10
205.074858
 20
38.353214
 42
0.018578
  0
VERTEX
  8
0
 10
222.503205
 20
34.585982
 42
-0.011453
  0
VERTEX
  8
0
 10
223.520546
 20
34.381205
 42
-0.003826
  0
VERTEX
  8
0
 10
224.998779
 20
34.036352
 42
-0.003806
  0
VERTEX
  8
0
 10
226.630203
 20
33.629408
 42
-0.004334
  0
VERTEX
  8
0
 10
228.185766
 20
33.214376
 42
0.011616
  0
VERTEX
  8
0
 10
229.623607
 20
32.853093
 42
0.017302
  0
VERTEX
  8
0
 10
230.897685
 20
32.610255
 42
0.012462
  0
VERTEX
  8
0
 10
231.942346
 20
32.474936
 42
0.226060
  0
VERTEX
  8
0
 10
232.251073
 20
32.584406
 42
-0.228353
  0
VERTEX
  8
0
 10
232.599202
 20
32.706140
 42
-0.002855
  0
VERTEX
  8
0
 10
235.000400
 20
32.420682
 42
-0.007700
  0
VERTEX
  8
0
 10
237.808734
 20
32.026541
 42
-0.004884
  0
VERTEX
  8
0
 10
241.068511
 20
31.485074
 42
0.025204
  0
VERTEX
  8
0
 10
277.079709
 20
26.997633
 42
0.019446
  0
VERTEX
  8
0
 10
316.636788
 20
25.624838
 42
0.019459
  0
VERTEX
  8
0
 10
356.143271
 20
27.328987
 42
0.025387
  0
VERTEX
  8
0
 10
392.000000
 20
32.118413
 42
-0.000916
  0
VERTEX
  8
0
 10
394.325686
 20
32.545741
 42
-0.000795
  0
VERTEX
  8
0
 10
396.765625
 20
32.985437
 42
-0.000800
  0
VERTEX
  8
0
 10
398.976222
 20
33.376529
 42
-0.002348
  0
VERTEX
  8
0
 10
400.500000
 20
33.636230
 42
0.023992
  0
VERTEX
  8
0
 10
413.595108
 20
36.455973
 42
0.007686
  0
VERTEX
  8
0
 10
432.751376
 20
41.869928
 42
0.007564
  0
VERTEX
  8
0
 10
451.633548
 20
47.833907
 42
0.026424
  0
VERTEX
  8
0
 10
463.521285
 20
52.498113
 42
0.005779
  0
VERTEX
  8
0
 10
476.298529
 20
58.486742
 42
0.008748
  0
VERTEX
  8
0
 10
487.260736
 20
64.018619
 42
0.009784
  0
VERTEX
  8
0
 10
496.047645
 20
68.869360
 42
0.030463
  0
VERTEX
  8
0
 10
501.683278
 20
72.601122
 42
-0.011574
  0
VERTEX
  8
0
 10
502.962964
 20
73.519825
 42
-0.015171
  0
VERTEX
  8
0
 10
504.175097
 20
74.295330
 42
-0.012680
  0
VERTEX
  8
0
 10
505.210219
 20
74.879050
 42
-0.122636
  0
VERTEX
  8
0
 10
505.695929
 20
75.000000
 42
0.165189
  0
VERTEX
  8
0
 10
506.129523
 20
75.147268
 42
0.023952
  0
VERTEX
  8
0
 10
506.851453
 20
75.758725
 42
0.024982
  0
VERTEX
  8
0
 10
507.661551
 20
76.593808
 42
0.019037
  0
VERTEX
  8
0
 10
508.464975
 20
77.582894
 42
-0.041546
  0
VERTEX
  8
0
 10
509.461525
 20
78.702833
 42
-0.021358
  0
VERTEX
  8
0
 10
510.876998
 20
79.938992
 42
-0.021072
  0
VERTEX
  8
0
 10
512.452053
 20
81.094710
 42
-0.029743
  0
VERTEX
  8
0
 10
513.952323
 20
81.976610
 42
0.040261
  0
VERTEX
  8
0
 10
517.369408
 20
84.083091
 42
0.018018
  0
VERTEX
  8
0
 10
521.514377
 20
87.359833
 42
0.015579
  0
VERTEX
  8
0
 10
526.208299
 20
91.612620
 42
0.010241
  0
VERTEX
  8
0
 10
531.352072
 20
96.780835
 42
-0.015409
  0
VERTEX
  8
0
 10
533.505138
 20
98.899882
 42
-0.028400
  0
VERTEX
  8
0
 10
535.399873
 20
100.463152
 42
-0.030945
  0
VERTEX
  8
0
 10
536.947611
 20
101.457785
 42
-0.222496
  0
VERTEX
  8
0
 10
537.809793
 20
101.519495
 42
0.055717
  0
VERTEX
  8
0
 10
538.372495
 20
101.372760
 42
0.213035
  0
VERTEX
  8
0
 10
538.712958
 20
101.469198
 42
0.244617
  0
VERTEX
  8
0
 10
538.839164
 20
101.771773
 42
0.070557
  0
VERTEX
  8
0
 10
538.722213
 20
102.281518
 42
-0.167916
  0
VERTEX
  8
0
 10
538.697150
 20
103.025386
 42
-0.029028
  0
VERTEX
  8
0
 10
539.196939
 20
104.365019
 42
-0.028764
  0
VERTEX
  8
0
 10
539.998210
 20
105.932175
 42
-0.022227
  0
VERTEX
  8
0
 10
541.041089
 20
107.542859
 42
0.017934
  0
VERTEX
  8
0
 10
546.929476
 20
116.468359
 42
0.020525
  0
VERTEX
  8
0
 10
551.886130
 20
125.407699
 42
0.021823
  0
VERTEX
  8
0
 10
555.808899
 20
134.154499
 42
0.028213
  0
VERTEX
  8
0
 10
558.588787
 20
142.500000
 42
0.011905
  0
VERTEX
  8
0
 10
560.034447
 20
148.373834
 42
0.024992
  0
VERTEX
  8
0
 10
560.818258
 20
153.008314
 42
0.021936
  0
VERTEX
  8
0
 10
561.191343
 20
158.061215
 42
0.007256
  0
VERTEX
  8
0
 10
561.305352
 20
165.500000
 42
0.012230
  0
VERTEX
  8
0
 10
561.003780
 20
178.251567
 42
0.028625
  0
VERTEX
  8
0
 10
560.001277
 20
187.733418
 42
0.026273
  0
VERTEX
  8
0
 10
557.865138
 20
197.510462
 42
0.008880
  0
VERTEX
  8
0
 10
553.760490
 20
211.500000
 42
0.010976
  0
VERTEX
  8
0
 10
546.732305
 20
232.350815
 42
0.014640
  0
VERTEX
  8
0
 10
539.388411
 20
250.934806
 42
0.015922
  0
VERTEX
  8
0
 10
531.565123
 20
267.662796
 42
0.018876
  0
VERTEX
  8
0
 10
523.093292
 20
282.914018
 42
-0.004585
  0
VERTEX
  8
0
 10
521.163742
 20
286.165184
 42
-0.007498
  0
VERTEX
  8
0
 10
519.595415
 20
288.959420
 42
-0.002307
  0
VERTEX
  8
0
 10
518.300062
 20
291.377195
 42
-0.329346
  0
VERTEX
  8
0
 10
518.345344
 20
291.678677
 42
-0.227747
  0
VERTEX
  8
0
 10
518.667418
 20
291.791717
 42
-0.001937
  0
VERTEX
  8
0
 10
521.354824
 20
291.483516
 42
-0.006282
  0
VERTEX
  8
0
 10
524.468556
 20
291.074461
 42
-0.003947
  0
VERTEX
  8
0
 10
528.097992
 20
290.521910
 42
0.001623
  0
VERTEX
  8
0
 10
540.742584
 20
288.536701
 42
0.000436
  0
VERTEX
  8
0
 10
560.843695
 20
285.465562
 42
0.000223
  0
VERTEX
  8
0
 10
581.547852
 20
282.330180
 42
0.006118
  0
VERTEX
  8
0
 10
587.000000
 20
281.575110
 42
-0.006515
  0
VERTEX
  8
0
 10
589.161039
 20
281.274075
 42
-0.000744
  0
VERTEX
  8
0
 10
594.025000
 20
280.524380
 42
-0.000899
  0
VERTEX
  8
0
 10
599.808662
 20
279.613464
 42
-0.000732
  0
VERTEX
  8
0
 10
606.000000
 20
278.617636
 42
0.000897
  0
VERTEX
  8
0
 10
616.753745
 20
276.891630
 42
0.001356
  0
VERTEX
  8
0
 10
626.122551
 20
275.431188
 42
0.001004
  0
VERTEX
  8
0
 10
637.322362
 20
273.739437
 42
0.000274
  0
VERTEX
  8
0
 10
655.000000
 20
271.115418
 42
-0.000574
  0
VERTEX
  8
0
 10
678.756703
 20
267.574491
 42
-0.001315
  0
VERTEX
  8
0
 10
696.648382
 20
264.838612
 42
-0.001520
  0
VERTEX
  8
0
 10
712.860036
 20
262.265484
 42
-0.001084
  0
VERTEX
  8
0
 10
731.000000
 20
259.289370
 42
0.001243
  0
VERTEX
  8
0
 10
741.789511
 20
257.522732
 42
0.001735
  0
VERTEX
  8
0
 10
751.450000
 20
255.999973
 42
0.001045
  0
VERTEX
  8
0
 10
759.593368
 20
254.762703
 42
0.022671
  0
VERTEX
  8
0
 10
762.000000
 20
254.513068
 42
0.052169
  0
VERTEX
  8
0
 10
766.762850
 20
254.733357
 42
0.003106
  0
VERTEX
  8
0
 10
781.009720
 20
256.983909
 42
0.003250
  0
VERTEX
  8
0
 10
795.175742
 20
259.406660
 42
0.048670
  0
VERTEX
  8
0
 10
799.998930
 20
260.757887
 42
0.038388
  0
VERTEX
  8
0
 10
801.413181
 20
261.436085
 42
0.412025
  0
VERTEX
  8
0
 10
801.564207
 20
261.992048
 42
0.118579
  0
VERTEX
  8
0
 10
800.895391
 20
262.706433
 42
0.004275
  0
VERTEX
  8
0
 10
797.731636
 20
264.750964
 42
0.024710
  0
VERTEX
  8
0
 10
795.135326
 20
266.222944
 42
0.006836
  0
VERTEX
  8
0
 10
790.919008
 20
268.273624
 42
0.006886
  0
VERTEX
  8
0
 10
786.074153
 20
270.467727
 42
0.007159
  0
VERTEX
  8
0
 10
781.232706
 20
272.498426
 42
-0.000102
  0
VERTEX
  8
0
 10
772.648229
 20
275.957473
 42
-0.000749
  0
VERTEX
  8
0
 10
768.541925
 20
277.620209
 42
-0.000822
  0
VERTEX
  8
0
 10
764.580414
 20
279.238827
 42
-0.000138
  0
VERTEX
  8
0
 10
757.000000
 20
282.353086
 42
0.002269
  0
VERTEX
  8
0
 10
752.343088
 20
284.243129
 42
0.000533
  0
VERTEX
  8
0
 10
744.534375
 20
287.361502
 42
0.000549
  0
VERTEX
  8
0
 10
735.546094
 20
290.928388
 42
0.000540
  0
VERTEX
  8
0
 10
726.500000
 20
294.495424
 42
-0.000286
  0
VERTEX
  8
0
 10
717.925268
 20
297.871560
 42
-0.000418
  0
VERTEX
  8
0
 10
710.375000
 20
300.856615
 42
-0.000201
  0
VERTEX
  8
0
 10
703.954185
 20
303.404320
 42
-0.007436
  0
VERTEX
  8
0
 10
702.500000
 20
304.007191
 42
0.006402
  0
VERTEX
  8
0
 10
701.119382
 20
304.582911
 42
0.000315
  0
VERTEX
  8
0
 10
696.534375
 20
306.422960
 42
0.000510
  0
VERTEX
  8
0
 10
691.083223
 20
308.600183
 42
0.000368
  0
VERTEX
  8
0
 10
685.000000
 20
311.017488
 42
-0.004359
  0
VERTEX
  8
0
 10
678.808847
 20
313.535087
 42
-0.005218
  0
VERTEX
  8
0
 10
673.025000
 20
316.017193
 42
-0.004518
  0
VERTEX
  8
0
 10
668.196001
 20
318.201837
 42
-0.034050
  0
VERTEX
  8
0
 10
666.000000
 20
319.407111
 42
0.083407
  0
VERTEX
  8
0
 10
662.168589
 20
321.043306
 42
0.010390
  0
VERTEX
  8
0
 10
653.296614
 20
322.993705
 42
0.011682
  0
VERTEX
  8
0
 10
642.334139
 20
324.900941
 42
0.008367
  0
VERTEX
  8
0
 10
630.000000
 20
326.540553
 42
-0.006693
  0
VERTEX
  8
0
 10
627.543614
 20
326.858722
 42
-0.001573
  0
VERTEX
  8
0
 10
623.443750
 20
327.458837
 42
-0.001620
  0
VERTEX
  8
0
 10
618.732813
 20
328.179160
 42
-0.001593
  0
VERTEX
  8
0
 10
614.000000
 20
328.933987
 42
0.001266
  0
VERTEX
  8
0
 10
608.764773
 20
329.772455
 42
0.000744
  0
VERTEX
  8
0
 10
602.500000
 20
330.749996
 42
0.000744
  0
VERTEX
  8
0
 10
596.235063
 20
331.708466
 42
0.001271
  0
VERTEX
  8
0
 10
591.000000
 20
332.487795
 42
-0.001833
  0
VERTEX
  8
0
 10
585.796370
 20
333.268428
 42
-0.001106
  0
VERTEX
  8
0
 10
579.633539
 20
334.230034
 42
-0.001107
  0
VERTEX
  8
0
 10
573.514128
 20
335.212633
 42
-0.001941
  0
VERTEX
  8
0
 10
568.454599
 20
336.056722
 42
0.002680
  0
VERTEX
  8
0
 10
563.862433
 20
336.815868
 42
0.002571
  0
VERTEX
  8
0
 10
559.198371
 20
337.536666
 42
0.002544
  0
VERTEX
  8
0
 10
555.078030
 20
338.130343
 42
0.009274
  0
VERTEX
  8
0
 10
552.454599
 20
338.445246
 42
-0.009958
  0
VERTEX
  8
0
 10
546.956401
 20
339.112852
 42
-0.002507
  0
VERTEX
  8
0
 10
538.031055
 20
340.423107
 42
-0.002261
  0
VERTEX
  8
0
 10
526.770956
 20
342.185937
 42
-0.001326
  0
VERTEX
  8
0
 10
513.311686
 20
344.392096
 42
0.006845
  0
VERTEX
  8
0
 10
507.789638
 20
345.234765
 42
0.011673
  0
VERTEX
  8
0
 10
503.153485
 20
345.767461
 42
0.010286
  0
VERTEX
  8
0
 10
499.489557
 20
346.026134
 42
0.101402
  0
VERTEX
  8
0
 10
497.969333
 20
345.792952
 42
-0.093713
  0
VERTEX
  8
0
 10
496.020141
 20
345.463509
 42
-0.186241
  0
VERTEX
  8
0
 10
494.591736
 20
346.046842
 42
-0.076988
  0
VERTEX
  8
0
 10
493.143471
 20
347.908482
 42
-0.007950
  0
VERTEX
  8
0
 10
490.511397
 20
352.824405
 42
0.005747
  0
VERTEX
  8
0
 10
488.908268
 20
355.850527
 42
0.003340
  0
VERTEX
  8
0
 10
486.917673
 20
359.448419
 42
0.003338
  0
VERTEX
  8
0
 10
484.874248
 20
363.028097
 42
0.005624
  0
VERTEX
  8
0
 10
483.106406
 20
366.000000
 42
-0.002470
  0
VERTEX
  8
0
 10
481.320670
 20
368.959345
 42
-0.001470
  0
VERTEX
  8
0
 10
479.222041
 20
372.500000
 42
-0.001471
  0
VERTEX
  8
0
 10
477.151055
 20
376.041353
 42
-0.002543
  0
VERTEX
  8
0
 10
475.452569
 20
379.000000
 42
0.007294
  0
VERTEX
  8
0
 10
470.129284
 20
388.072084
 42
0.069361
  0
VERTEX
  8
0
 10
467.294675
 20
391.550790
 42
0.181639
  0
VERTEX
  8
0
 10
464.723666
 20
392.605237
 42
0.114057
  0
SEQEND
  0
POLYLINE
  8
0
 66
1
 70
1
  0
VERTEX
  8
0
 10
464.451582
 20
381.250000
 42
0.037965
  0
VERTEX
  8
0
 10
465.008617
 20
380.064689
 42
0.001477
  0
VERTEX
  8
0
 10
467.401303
 20
375.867947
 42
0.002623
  0
VERTEX
  8
0
 10
470.276162
 20
370.920209
 42
0.001847
  0
VERTEX
  8
0
 10
473.558571
 20
365.385564
 42
-0.002955
  0
VERTEX
  8
0
 10
476.793912
 20
359.902629
 42
-0.004555
  0
VERTEX
  8
0
 10
479.520330
 20
355.119447
 42
-0.001596
  0
VERTEX
  8
0
 10
481.815933
 20
350.974367
 42
-0.126309
  0
VERTEX
  8
0
 10
482.000000
 20
350.257353
 42
-0.376575
  0
VERTEX
  8
0
 10
481.661931
 20
349.872134
 42
-0.040050
  0
VERTEX
  8
0
 10
480.370269
 20
349.807320
 42
-0.028775
  0
VERTEX
  8
0
 10
478.390419
 20
349.980911
 42
-0.010192
  0
VERTEX
  8
0
 10
475.583328
 20
350.449402
 42
-0.029742
  0
VERTEX
  8
0
 10
472.157884
 20
351.306642
 42
-0.022471
  0
VERTEX
  8
0
 10
468.513713
 20
352.635297
 42
-0.019600
  0
VERTEX
  8
0
 10
464.524202
 20
354.483103
 42
-0.012624
  0
VERTEX
  8
0
 10
460.046733
 20
356.918645
 42
0.004175
  0
VERTEX
  8
0
 10
454.179765
 20
360.239680
 42
0.051372
  0
VERTEX
  8
0
 10
451.818575
 20
361.249360
 42
0.135716
  0
VERTEX
  8
0
 10
450.180103
 20
361.301227
 42
0.085684
  0
VERTEX
  8
0
 10
448.413676
 20
360.535395
 42
0.043144
  0
VERTEX
  8
0
 10
447.397305
 20
359.736317
 42
0.067827
  0
VERTEX
  8
0
 10
446.697556
 20
358.876012
 42
0.083882
  0
VERTEX
  8
0
 10
446.352061
 20
358.011063
 42
0.122328
  0
VERTEX
  8
0
 10
446.377220
 20
357.194363
 42
-0.018135
  0
VERTEX
  8
0
 10
446.604095
 20
356.259082
 42
-0.004242
  0
VERTEX
  8
0
 10
446.913886
 20
354.675844
 42
-0.004367
  0
VERTEX
  8
0
 10
447.239129
 20
352.847086
 42
-0.004276
  0
VERTEX
  8
0
 10
447.534788
 20
351.000000
 42
0.009291
  0
VERTEX
  8
0
 10
447.897938
 20
348.868481
 42
0.004402
  0
VERTEX
  8
0
 10
448.441122
 20
346.134672
 42
0.004361
  0
VERTEX
  8
0
 10
449.059653
 20
343.283990
 42
0.006157
  0
VERTEX
  8
0
 10
449.664037
 20
340.756330
 42
-0.001507
  0
VERTEX
  8
0
 10
450.243568
 20
338.428557
 42
-0.001688
  0
VERTEX
  8
0
 10
450.787186
 20
336.183941
 42
-0.001550
  0
VERTEX
  8
0
 10
451.237736
 20
334.269493
 42
-0.009032
  0
VERTEX
  8
0
 10
451.453656
 20
333.256330
 42
0.021658
  0
VERTEX
  8
0
 10
451.740745
 20
332.058406
 42
0.001024
  0
VERTEX
  8
0
 10
452.888143
 20
328.076837
 42
0.001683
  0
VERTEX
  8
0
 10
454.276554
 20
323.355143
 42
0.001209
  0
VERTEX
  8
0
 10
455.857804
 20
318.090349
 42
-0.004876
  0
VERTEX
  8
0
 10
457.378010
 20
312.890699
 42
-0.007582
  0
VERTEX
  8
0
 10
458.576666
 20
308.376181
 42
-0.003010
  0
VERTEX
  8
0
 10
459.515319
 20
304.512743
 42
-0.199042
  0
VERTEX
  8
0
 10
459.408169
 20
303.851415
 42
0.333828
  0
VERTEX
  8
0
 10
459.451867
 20
303.371572
 42
0.024774
  0
VERTEX
  8
0
 10
460.440911
 20
302.381233
 42
0.026539
  0
VERTEX
  8
0
 10
461.860502
 20
301.225145
 42
0.016304
  0
VERTEX
  8
0
 10
463.643603
 20
300.011066
 42
0.023318
  0
VERTEX
  8
0
 10
466.219699
 20
298.541056
 42
0.043242
  0
VERTEX
  8
0
 10
468.448753
 20
297.636521
 42
0.045578
  0
VERTEX
  8
0
 10
470.719141
 20
297.157428
 42
0.029227
  0
VERTEX
  8
0
 10
473.410066
 20
297.000000
 42
-0.005774
  0
VERTEX
  8
0
 10
476.417229
 20
296.965272
 42
-0.099838
  0
VERTEX
  8
0
 10
477.370443
 20
296.750000
 42
-0.441236
  0
VERTEX
  8
0
 10
477.520034
 20
296.296444
 42
-0.068330
  0
VERTEX
  8
0
 10
476.876063
 20
295.447492
 42
-0.141748
  0
VERTEX
  8
0
 10
474.284188
 20
294.018804
 42
-0.020298
  0
VERTEX
  8
0
 10
468.261672
 20
292.913145
 42
-0.023857
  0
VERTEX
  8
0
 10
461.526167
 20
292.283102
 42
-0.033645
  0
VERTEX
  8
0
 10
455.500000
 20
292.413892
 42
0.003390
  0
VERTEX
  8
0
 10
448.593036
 20
292.982814
 42
0.001504
  0
VERTEX
  8
0
 10
439.471752
 20
293.644311
 42
0.001173
  0
VERTEX
  8
0
 10
430.668129
 20
294.235418
 42
0.009407
  0
VERTEX
  8
0
 10
426.609952
 20
294.421751
 42
-0.103182
  0
VERTEX
  8
0
 10
424.388998
 20
294.948113
 42
-0.160493
  0
VERTEX
  8
0
 10
422.970515
 20
296.287195
 42
-0.061881
  0
VERTEX
  8
0
 10
421.842631
 20
299.175334
 42
-0.005988
  0
VERTEX
  8
0
 10
420.075529
 20
306.500000
 42
0.005013
  0
VERTEX
  8
0
 10
418.487327
 20
313.139887
 42
0.003022
  0
VERTEX
  8
0
 10
416.478049
 20
320.981046
 42
0.002184
  0
VERTEX
  8
0
 10
413.753959
 20
331.169353
 42
0.000808
  0
VERTEX
  8
0
 10
409.830278
 20
345.500000
 42
-0.004462
  0
VERTEX
  8
0
 10
409.064441
 20
348.379550
 42
-0.004600
  0
VERTEX
  8
0
 10
408.358141
 20
351.243201
 42
-0.004452
  0
VERTEX
  8
0
 10
407.791082
 20
353.735526
 42
-0.019532
  0
VERTEX
  8
0
 10
407.527192
 20
355.221535
 42
0.010928
  0
VERTEX
  8
0
 10
407.336844
 20
356.412035
 42
0.007714
  0
VERTEX
  8
0
 10
407.073231
 20
357.740927
 42
0.007789
  0
VERTEX
  8
0
 10
406.781661
 20
359.004193
 42
0.016231
  0
VERTEX
  8
0
 10
406.507471
 20
359.976460
 42
-0.057247
  0
VERTEX
  8
0
 10
406.318023
 20
360.946034
 42
-0.121765
  0
VERTEX
  8
0
 10
406.441810
 20
361.695237
 42
-0.130283
  0
VERTEX
  8
0
 10
406.891316
 20
362.268256
 42
-0.070381
  0
VERTEX
  8
0
 10
407.681049
 20
362.705832
 42
0.035622
  0
VERTEX
  8
0
 10
408.788142
 20
363.222511
 42
0.003613
  0
VERTEX
  8
0
 10
411.315683
 20
364.653260
 42
0.004507
  0
VERTEX
  8
0
 10
414.303466
 20
366.409203
 42
0.003577
  0
VERTEX
  8
0
 10
417.500000
 20
368.358041
 42
-0.007399
  0
VERTEX
  8
0
 10
425.171491
 20
372.955082
 42
-0.037153
  0
VERTEX
  8
0
 10
429.673394
 20
375.134134
 42
-0.033737
  0
VERTEX
  8
0
 10
434.627315
 20
376.715924
 42
-0.005413
  0
VERTEX
  8
0
 10
444.515563
 20
379.039467
 42
0.002062
  0
VERTEX
  8
0
 10
449.906040
 20
380.268063
 42
0.003264
  0
VERTEX
  8
0
 10
454.514121
 20
381.370102
 42
0.000796
  0
VERTEX
  8
0
 10
458.532047
 20
382.365564
 42
0.136066
  0
VERTEX
  8
0
 10
458.916357
 20
382.583024
 42
-0.187950
  0
VERTEX
  8
0
 10
460.078552
 20
383.093454
 42
-0.069761
  0
VERTEX
  8
0
 10
461.887246
 20
382.917404
 42
-0.069282
  0
VERTEX
  8
0
 10
463.594366
 20
382.246089
 42
-0.175354
  0
SEQEND
  0
POLYLINE
  8
0
 66
1
 70
1
  0
VERTEX
  8
0
 10
361.000000
 20
337.889230
 42
-0.000271
  0
VERTEX
  8
0
 10
373.770617
 20
336.663272
 42
-0.002699
  0
VERTEX
  8
0
 10
379.118621
 20
336.117800
 42
-0.002817
  0
VERTEX
  8
0
 10
382.293783
 20
335.758516
 42
-0.102805
  0
VERTEX
  8
0
 10
382.985424
 20
335.526855
 42
0.095149
  0
VERTEX
  8
0
 10
383.384295
 20
335.386495
 42
0.002487
  0
VERTEX
  8
0
 10
385.258218
 20
335.115418
 42
0.005159
  0
VERTEX
  8
0
 10
387.471993
 20
334.829670
 42
0.003494
  0
VERTEX
  8
0
 10
390.000000
 20
334.547746
 42
-0.006120
  0
VERTEX
  8
0
 10
392.956631
 20
334.202290
 42
-0.003578
  0
VERTEX
  8
0
 10
396.490580
 20
333.719731
 42
-0.003577
  0
VERTEX
  8
0
 10
400.021069
 20
333.186077
 42
-0.006061
  0
VERTEX
  8
0
 10
402.967931
 20
332.682361
 42
0.000000
  0
VERTEX
  8
0
 10
409.435862
 20
331.495907
 42
0.000000
  0
VERTEX
  8
0
 10
411.802966
 20
323.166322
 42
-0.005387
  0
VERTEX
  8
0
 10
412.681212
 20
319.944234
 42
-0.008546
  0
VERTEX
  8
0
 10
413.356158
 20
317.164977
 42
-0.003295
  0
VERTEX
  8
0
 10
413.873156
 20
314.792473
 42
-0.253576
  0
VERTEX
  8
0
 10
413.766410
 20
314.433077
 42
-0.225592
  0
VERTEX
  8
0
 10
413.389727
 20
314.299134
 42
-0.001276
  0
VERTEX
  8
0
 10
409.535859
 20
314.703983
 42
-0.005049
  0
VERTEX
  8
0
 10
405.109487
 20
315.225659
 42
-0.003146
  0
VERTEX
  8
0
 10
399.931375
 20
315.922152
 42
0.002193
  0
VERTEX
  8
0
 10
394.275743
 20
316.693854
 42
0.001951
  0
VERTEX
  8
0
 10
388.389216
 20
317.447414
 42
0.001958
  0
VERTEX
  8
0
 10
383.089284
 20
318.083806
 42
0.006041
  0
VERTEX
  8
0
 10
379.500000
 20
318.456652
 42
-0.010517
  0
VERTEX
  8
0
 10
375.907440
 20
318.862377
 42
-0.003373
  0
VERTEX
  8
0
 10
370.590625
 20
319.612912
 42
-0.003363
  0
VERTEX
  8
0
 10
364.681922
 20
320.528338
 42
-0.003755
  0
VERTEX
  8
0
 10
359.000000
 20
321.491650
 42
0.002811
  0
VERTEX
  8
0
 10
353.396649
 20
322.452530
 42
0.002725
  0
VERTEX
  8
0
 10
347.724090
 20
323.360746
 42
0.002690
  0
VERTEX
  8
0
 10
342.725056
 20
324.105703
 42
0.010050
  0
VERTEX
  8
0
 10
339.571371
 20
324.493823
 42
-0.004448
  0
VERTEX
  8
0
 10
337.258404
 20
324.752203
 42
-0.006401
  0
VERTEX
  8
0
 10
335.216437
 20
325.025285
 42
-0.003607
  0
VERTEX
  8
0
 10
333.503302
 20
325.289392
 42
-0.096114
  0
VERTEX
  8
0
 10
333.071371
 20
325.447947
 42
0.103751
  0
VERTEX
  8
0
 10
332.620650
 20
325.605708
 42
0.002293
  0
VERTEX
  8
0
 10
330.317840
 20
325.895868
 42
0.005109
  0
VERTEX
  8
0
 10
327.607052
 20
326.196745
 42
0.003419
  0
VERTEX
  8
0
 10
324.500000
 20
326.488059
 42
0.000019
  0
VERTEX
  8
0
 10
320.756647
 20
326.813088
 42
0.000010
  0
VERTEX
  8
0
 10
316.059375
 20
327.220678
 42
0.000009
  0
VERTEX
  8
0
 10
311.220013
 20
327.640413
 42
0.000014
  0
VERTEX
  8
0
 10
307.000000
 20
328.006229
 42
0.020709
  0
VERTEX
  8
0
 10
295.798002
 20
328.510983
 42
0.002310
  0
VERTEX
  8
0
 10
270.238120
 20
328.485347
 42
0.002729
  0
VERTEX
  8
0
 10
244.746956
 20
328.202888
 42
0.013715
  0
VERTEX
  8
0
 10
230.500000
 20
327.576110
 42
-0.021449
  0
VERTEX
  8
0
 10
225.566554
 20
327.435464
 42
-0.837681
  0
VERTEX
  8
0
 10
225.474787
 20
327.997638
 42
-0.035460
  0
VERTEX
  8
0
 10
229.913807
 20
329.212405
 42
-0.003033
  0
VERTEX
  8
0
 10
241.500000
 20
331.442575
 42
-0.007336
  0
VERTEX
  8
0
 10
253.843564
 20
333.554082
 42
-0.006159
  0
VERTEX
  8
0
 10
266.984774
 20
335.438591
 42
-0.006254
  0
VERTEX
  8
0
 10
279.888093
 20
336.963172
 42
-0.008649
  0
VERTEX
  8
0
 10
291.500000
 20
337.985364
 42
-0.014196
  0
VERTEX
  8
0
 10
305.371373
 20
338.569902
 42
-0.003777
  0
VERTEX
  8
0
 10
327.505549
 20
338.706487
 42
-0.003426
  0
VERTEX
  8
0
 10
349.466528
 20
338.525650
 42
-0.020022
  0
SEQEND
  0
POLYLINE
  8
0
 66
1
 70
1
  0
VERTEX
  8
0
 10
311.000000
 20
321.534399
 42
-0.007627
  0
VERTEX
  8
0
 10
337.949947
 20
318.243529
 42
-0.010682
  0
VERTEX
  8
0
 10
361.901489
 20
314.424256
 42
-0.012073
  0
VERTEX
  8
0
 10
382.685729
 20
310.132342
 42
-0.020041
  0
VERTEX
  8
0
 10
399.940991
 20
305.396589
 42
-0.001810
  0
VERTEX
  8
0
 10
412.292834
 20
301.418787
 42
-0.034821
  0
VERTEX
  8
0
 10
416.029144
 20
299.905677
 42
-0.115979
  0
VERTEX
  8
0
 10
417.889986
 20
298.384420
 42
-0.086061
  0
VERTEX
  8
0
 10
419.127296
 20
296.024186
 42
0.022819
  0
VERTEX
  8
0
 10
420.281937
 20
292.926372
 42
0.090171
  0
VERTEX
  8
0
 10
421.395930
 20
291.234426
 42
0.151962
  0
VERTEX
  8
0
 10
422.699483
 20
290.510296
 42
0.111314
  0
VERTEX
  8
0
 10
424.364422
 20
290.537388
 42
-0.090057
  0
VERTEX
  8
0
 10
428.159812
 20
290.759126
 42
-0.009277
  0
VERTEX
  8
0
 10
437.079878
 20
289.503668
 42
-0.011924
  0
VERTEX
  8
0
 10
445.993752
 20
287.861097
 42
-0.042905
  0
VERTEX
  8
0
 10
451.525951
 20
286.199187
 42
-0.024024
  0
VERTEX
  8
0
 10
457.608753
 20
283.441624
 42
-0.006487
  0
VERTEX
  8
0
 10
466.968554
 20
278.489544
 42
-0.006852
  0
VERTEX
  8
0
 10
476.827984
 20
272.931562
 42
-0.010835
  0
VERTEX
  8
0
 10
485.106778
 20
267.870710
 42
-0.073977
  0
VERTEX
  8
0
 10
501.392089
 20
253.643693
 42
-0.044402
  0
VERTEX
  8
0
 10
516.263321
 20
232.650186
 42
-0.042708
  0
VERTEX
  8
0
 10
527.869009
 20
208.139150
 42
-0.050013
  0
VERTEX
  8
0
 10
534.403815
 20
183.264926
 42
-0.013671
  0
VERTEX
  8
0
 10
535.512458
 20
174.760237
 42
-0.014832
  0
VERTEX
  8
0
 10
536.118095
 20
166.435591
 42
-0.015313
  0
VERTEX
  8
0
 10
536.207208
 20
159.213842
 42
-0.050733
  0
VERTEX
  8
0
 10
535.640416
 20
154.500000
 42
0.001355
  0
VERTEX
  8
0
 10
535.353090
 20
153.204997
 42
0.001051
  0
VERTEX
  8
0
 10
535.047089
 20
151.793750
 42
0.001062
  0
VERTEX
  8
0
 10
534.767176
 20
150.475953
 42
0.002565
  0
VERTEX
  8
0
 10
534.567261
 20
149.500000
 42
-0.053206
  0
VERTEX
  8
0
 10
533.467766
 20
145.985848
 42
-0.012284
  0
VERTEX
  8
0
 10
530.855001
 20
140.350040
 42
-0.013140
  0
VERTEX
  8
0
 10
527.667995
 20
134.301690
 42
-0.017442
  0
VERTEX
  8
0
 10
524.438289
 20
128.987631
 42
-0.016145
  0
VERTEX
  8
0
 10
521.285454
 20
124.507950
 42
-0.029651
  0
VERTEX
  8
0
 10
518.395993
 20
121.111024
 42
-0.030375
  0
VERTEX
  8
0
 10
515.173665
 20
118.133505
 42
-0.017917
  0
VERTEX
  8
0
 10
510.998244
 20
114.963472
 42
0.005013
  0
VERTEX
  8
0
 10
509.621991
 20
113.973524
 42
0.006489
  0
VERTEX
  8
0
 10
508.380734
 20
113.036616
 42
0.005007
  0
VERTEX
  8
0
 10
507.361501
 20
112.229851
 42
0.056436
  0
VERTEX
  8
0
 10
507.000000
 20
111.863305
 42
-0.109371
  0
VERTEX
  8
0
 10
504.748700
 20
110.015783
 42
-0.006564
  0
VERTEX
  8
0
 10
496.831008
 20
106.130371
 42
-0.010397
  0
VERTEX
  8
0
 10
487.841293
 20
102.091215
 42
-0.011311
  0
VERTEX
  8
0
 10
478.938504
 20
98.547041
 42
0.006052
  0
VERTEX
  8
0
 10
477.258715
 20
97.898705
 42
0.002908
  0
VERTEX
  8
0
 10
475.119387
 20
97.028647
 42
0.002883
  0
VERTEX
  8
0
 10
472.897803
 20
96.095005
 42
0.004121
  0
VERTEX
  8
0
 10
470.938504
 20
95.239108
 42
-0.023766
  0
VERTEX
  8
0
 10
458.566699
 20
90.403867
 42
-0.011229
  0
VERTEX
  8
0
 10
442.202219
 20
85.295183
 42
-0.011100
  0
VERTEX
  8
0
 10
424.799317
 20
80.704028
 42
-0.015378
  0
VERTEX
  8
0
 10
409.000000
 20
77.419231
 42
0.003100
  0
VERTEX
  8
0
 10
407.893326
 20
77.217354
 42
0.002086
  0
VERTEX
  8
0
 10
406.631848
 20
76.973693
 42
0.002100
  0
VERTEX
  8
0
 10
405.412988
 20
76.727663
 42
0.004162
  0
VERTEX
  8
0
 10
404.448844
 20
76.520446
 42
-0.017696
  0
VERTEX
  8
0
 10
400.026449
 20
75.694497
 42
-0.002607
  0
VERTEX
  8
0
 10
391.018347
 20
74.387973
 42
-0.003104
  0
VERTEX
  8
0
 10
381.828141
 20
73.162050
 42
-0.009188
  0
VERTEX
  8
0
 10
375.500000
 20
72.475757
 42
-0.004382
  0
VERTEX
  8
0
 10
361.260806
 20
71.321411
 42
-0.009256
  0
VERTEX
  8
0
 10
350.198135
 20
70.727693
 42
-0.008870
  0
VERTEX
  8
0
 10
338.831788
 20
70.530286
 42
-0.003701
  0
VERTEX
  8
0
 10
323.500000
 20
70.649504
 42
-0.001232
  0
VERTEX
  8
0
 10
313.704396
 20
70.822335
 42
-0.001730
  0
VERTEX
  8
0
 10
304.962500
 20
71.028393
 42
-0.001015
  0
VERTEX
  8
0
 10
297.593206
 20
71.242589
 42
-0.023526
  0
VERTEX
  8
0
 10
295.500000
 20
71.406466
 42
0.005124
  0
VERTEX
  8
0
 10
293.899189
 20
71.591254
 42
0.001376
  0
VERTEX
  8
0
 10
291.352505
 20
71.851730
 42
0.001393
  0
VERTEX
  8
0
 10
288.457787
 20
72.131613
 42
0.001441
  0
VERTEX
  8
0
 10
285.593632
 20
72.392163
 42
-0.019285
  0
VERTEX
  8
0
 10
262.704324
 20
75.300963
 42
-0.011229
  0
VERTEX
  8
0
 10
235.500799
 20
80.460164
 42
-0.011125
  0
VERTEX
  8
0
 10
209.511006
 20
86.603964
 42
-0.028035
  0
VERTEX
  8
0
 10
191.000000
 20
92.542450
 42
0.000760
  0
VERTEX
  8
0
 10
189.017618
 20
93.299898
 42
0.000148
  0
VERTEX
  8
0
 10
185.443750
 20
94.658001
 42
0.000157
  0
VERTEX
  8
0
 10
181.276590
 20
96.238646
 42
0.000146
  0
VERTEX
  8
0
 10
177.000000
 20
97.857832
 42
-0.003906
  0
VERTEX
  8
0
 10
166.893409
 20
101.771508
 42
-0.010387
  0
VERTEX
  8
0
 10
159.759036
 20
104.771431
 42
-0.011784
  0
VERTEX
  8
0
 10
153.284387
 20
107.838442
 42
-0.006473
  0
VERTEX
  8
0
 10
145.500000
 20
111.880160
 42
-0.011882
  0
VERTEX
  8
0
 10
127.862114
 20
121.876245
 42
-0.019340
  0
VERTEX
  8
0
 10
113.449400
 20
131.278719
 42
-0.021620
  0
VERTEX
  8
0
 10
101.033946
 20
140.913438
 42
-0.021646
  0
VERTEX
  8
0
 10
89.501995
 20
151.580760
 42
-0.026745
  0
VERTEX
  8
0
 10
77.159595
 20
165.440189
 42
-0.039170
  0
VERTEX
  8
0
 10
67.999472
 20
178.951298
 42
-0.040451
  0
VERTEX
  8
0
 10
61.264696
 20
193.382934
 42
-0.031296
  0
VERTEX
  8
0
 10
56.248048
 20
210.000000
 42
-0.054484
  0
VERTEX
  8
0
 10
55.653115
 20
214.861828
 42
-0.007147
  0
VERTEX
  8
0
 10
55.667620
 20
225.286379
 42
-0.005848
  0
VERTEX
  8
0
 10
55.956479
 20
235.834020
 42
-0.080185
  0
VERTEX
  8
0
 10
56.712005
 20
239.578420
 42
0.011723
  0
VERTEX
  8
0
 10
57.219146
 20
241.032013
 42
0.004615
  0
VERTEX
  8
0
 10
57.851886
 20
243.055902
 42
0.004564
  0
VERTEX
  8
0
 10
58.495883
 20
245.256875
 42
0.005686
  0
VERTEX
  8
0
 10
59.052280
 20
247.314013
 42
-0.038794
  0
VERTEX
  8
0
 10
59.922407
 20
249.851615
 42
-0.038404
  0
VERTEX
  8
0
 10
61.176478
 20
252.233357
 42
-0.033220
  0
VERTEX
  8
0
 10
62.947795
 20
254.673837
 42
-0.018612
  0
VERTEX
  8
0
 10
65.397884
 20
257.403521
 42
-0.025947
  0
VERTEX
  8
0
 10
70.374629
 20
262.041892
 42
-0.007686
  0
VERTEX
  8
0
 10
78.452127
 20
268.613590
 42
-0.005180
  0
VERTEX
  8
0
 10
86.706168
 20
274.983125
 42
-0.071691
  0
VERTEX
  8
0
 10
90.000000
 20
276.798584
 42
0.039683
  0
VERTEX
  8
0
 10
90.843153
 20
277.195450
 42
0.006493
  0
VERTEX
  8
0
 10
92.399152
 20
278.111820
 42
0.007114
  0
VERTEX
  8
0
 10
94.204767
 20
279.242471
 42
0.006219
  0
VERTEX
  8
0
 10
96.060942
 20
280.474874
 42
-0.039525
  0
VERTEX
  8
0
 10
109.132451
 20
287.951261
 42
-0.014273
  0
VERTEX
  8
0
 10
128.758066
 20
296.527737
 42
-0.014259
  0
VERTEX
  8
0
 10
150.472380
 20
304.575705
 42
-0.018675
  0
VERTEX
  8
0
 10
170.754027
 20
310.607509
 42
-0.014706
  0
VERTEX
  8
0
 10
187.520128
 20
314.397544
 42
-0.009397
  0
VERTEX
  8
0
 10
207.197880
 20
317.858753
 42
-0.009316
  0
VERTEX
  8
0
 10
227.325086
 20
320.627172
 42
-0.012830
  0
VERTEX
  8
0
 10
245.500000
 20
322.311307
 42
-0.018256
  0
VERTEX
  8
0
 10
254.491961
 20
322.583244
 42
-0.001397
  0
VERTEX
  8
0
 10
278.731406
 20
322.363449
 42
-0.001222
  0
VERTEX
  8
0
 10
303.227061
 20
322.013045
 42
-0.022381
  0
SEQEND
  0
POLYLINE
  8
0
 66
1
 70
1
  0
VERTEX
  8
0
 10
656.337605
 20
316.445082
 42
-0.050155
  0
VERTEX
  8
0
 10
659.509569
 20
315.656691
 42
-0.527242
  0
VERTEX
  8
0
 10
659.793698
 20
314.573605
 42
-0.090638
  0
VERTEX
  8
0
 10
657.716067
 20
312.906658
 42
-0.003992
  0
VERTEX
  8
0
 10
649.500000
 20
308.551772
 42
0.007078
  0
VERTEX
  8
0
 10
643.283726
 20
305.207563
 42
0.033236
  0
VERTEX
  8
0
 10
639.878280
 20
303.004694
 42
0.074206
  0
VERTEX
  8
0
 10
638.307659
 20
301.423488
 42
0.371107
  0
VERTEX
  8
0
 10
638.396136
 20
300.273810
 42
0.200341
  0
VERTEX
  8
0
 10
640.193334
 20
299.539602
 42
0.001695
  0
VERTEX
  8
0
 10
655.522516
 20
299.708224
 42
0.004987
  0
VERTEX
  8
0
 10
669.722071
 20
300.054252
 42
0.043150
  0
VERTEX
  8
0
 10
676.000000
 20
300.814962
 42
0.005356
  0
VERTEX
  8
0
 10
678.054429
 20
301.269073
 42
0.003060
  0
VERTEX
  8
0
 10
680.526044
 20
301.859198
 42
0.003055
  0
VERTEX
  8
0
 10
683.005659
 20
302.483383
 42
0.005065
  0
VERTEX
  8
0
 10
685.088659
 20
303.043854
 42
-0.033965
  0
VERTEX
  8
0
 10
688.067732
 20
303.663481
 42
-0.077577
  0
VERTEX
  8
0
 10
690.356584
 20
303.623010
 42
-0.045317
  0
VERTEX
  8
0
 10
693.190169
 20
302.859814
 42
-0.005786
  0
VERTEX
  8
0
 10
699.088659
 20
300.604255
 42
-0.000746
  0
VERTEX
  8
0
 10
702.838828
 20
299.113762
 42
-0.000927
  0
VERTEX
  8
0
 10
706.322919
 20
297.715502
 42
-0.000754
  0
VERTEX
  8
0
 10
709.244852
 20
296.531430
 42
-0.006997
  0
VERTEX
  8
0
 10
710.500000
 20
296.000000
 42
0.008873
  0
VERTEX
  8
0
 10
711.758492
 20
295.472712
 42
0.000949
  0
VERTEX
  8
0
 10
714.703125
 20
294.306407
 42
0.001169
  0
VERTEX
  8
0
 10
718.215873
 20
292.932265
 42
0.000940
  0
VERTEX
  8
0
 10
722.000000
 20
291.470330
 42
-0.001961
  0
VERTEX
  8
0
 10
726.049387
 20
289.896404
 42
-0.001610
  0
VERTEX
  8
0
 10
730.361732
 20
288.184719
 42
-0.001626
  0
VERTEX
  8
0
 10
734.313976
 20
286.586279
 42
-0.004313
  0
VERTEX
  8
0
 10
737.125046
 20
285.410332
 42
0.004330
  0
VERTEX
  8
0
 10
739.332707
 20
284.486893
 42
0.006169
  0
VERTEX
  8
0
 10
741.310358
 20
283.708035
 42
0.003605
  0
VERTEX
  8
0
 10
742.984962
 20
283.086053
 42
0.087326
  0
VERTEX
  8
0
 10
743.473917
 20
283.000000
 42
-0.080315
  0
VERTEX
  8
0
 10
743.914878
 20
282.928708
 42
-0.008312
  0
VERTEX
  8
0
 10
744.910762
 20
282.579566
 42
-0.010168
  0
VERTEX
  8
0
 10
746.089237
 20
282.116837
 42
-0.007965
  0
VERTEX
  8
0
 10
747.348871
 20
281.568734
 42
0.007992
  0
VERTEX
  8
0
 10
749.180456
 20
280.771879
 42
0.001397
  0
VERTEX
  8
0
 10
752.658731
 20
279.335669
 42
0.001516
  0
VERTEX
  8
0
 10
756.748979
 20
277.674604
 42
0.001360
  0
VERTEX
  8
0
 10
761.000000
 20
275.976673
 42
-0.002049
  0
VERTEX
  8
0
 10
765.321325
 20
274.243754
 42
-0.002057
  0
VERTEX
  8
0
 10
769.622800
 20
272.477655
 42
-0.002007
  0
VERTEX
  8
0
 10
773.361832
 20
270.906845
 42
-0.008231
  0
VERTEX
  8
0
 10
775.609531
 20
269.907939
 42
0.007519
  0
VERTEX
  8
0
 10
777.248404
 20
269.176807
 42
0.009744
  0
VERTEX
  8
0
 10
778.773463
 20
268.558647
 42
0.007736
  0
VERTEX
  8
0
 10
780.061070
 20
268.088434
 42
0.082121
  0
VERTEX
  8
0
 10
780.609531
 20
267.993839
 42
-0.077364
  0
VERTEX
  8
0
 10
781.106033
 20
267.913032
 42
-0.013855
  0
VERTEX
  8
0
 10
781.992379
 20
267.596035
 42
-0.014668
  0
VERTEX
  8
0
 10
783.018702
 20
267.161494
 42
-0.012783
  0
VERTEX
  8
0
 10
784.066651
 20
266.648265
 42
0.018417
  0
VERTEX
  8
0
 10
785.252142
 20
266.084142
 42
0.010934
  0
VERTEX
  8
0
 10
786.702244
 20
265.495770
 42
0.010936
  0
VERTEX
  8
0
 10
788.176063
 20
264.971588
 42
0.018486
  0
VERTEX
  8
0
 10
789.434650
 20
264.605758
 42
-0.014506
  0
VERTEX
  8
0
 10
790.483500
 20
264.309924
 42
-0.027508
  0
VERTEX
  8
0
 10
791.305002
 20
264.001717
 42
-0.032779
  0
VERTEX
  8
0
 10
791.846088
 20
263.720392
 42
-0.487400
  0
VERTEX
  8
0
 10
791.867999
 20
263.536771
 42
-0.153673
  0
VERTEX
  8
0
 10
791.527600
 20
263.360606
 42
-0.000986
  0
VERTEX
  8
0
 10
788.136318
 20
262.776243
 42
-0.003835
  0
VERTEX
  8
0
 10
784.238200
 20
262.143185
 42
-0.002423
  0
VERTEX
  8
0
 10
779.681169
 20
261.461548
 42
0.000000
  0
VERTEX
  8
0
 10
767.862338
 20
259.752220
 42
0.000000
  0
VERTEX
  8
0
 10
752.181169
 20
262.338071
 42
0.001280
  0
VERTEX
  8
0
 10
745.159376
 20
263.477519
 42
0.000818
  0
VERTEX
  8
0
 10
736.993843
 20
264.767420
 42
0.000822
  0
VERTEX
  8
0
 10
728.987562
 20
266.005258
 42
0.001535
  0
VERTEX
  8
0
 10
722.500000
 20
266.977001
 42
-0.001177
  0
VERTEX
  8
0
 10
716.266229
 20
267.906164
 42
-0.000771
  0
VERTEX
  8
0
 10
709.087500
 20
269.004780
 42
-0.000776
  0
VERTEX
  8
0
 10
702.098536
 20
270.096495
 42
-0.001491
  0
VERTEX
  8
0
 10
696.500000
 20
270.997034
 42
0.001905
  0
VERTEX
  8
0
 10
691.575779
 20
271.784927
 42
0.001973
  0
VERTEX
  8
0
 10
686.703125
 20
272.525863
 42
0.001901
  0
VERTEX
  8
0
 10
682.479843
 20
273.134618
 42
0.008522
  0
VERTEX
  8
0
 10
680.000000
 20
273.439454
 42
-0.007187
  0
VERTEX
  8
0
 10
677.645195
 20
273.722540
 42
-0.002099
  0
VERTEX
  8
0
 10
674.031250
 20
274.225239
 42
-0.002108
  0
VERTEX
  8
0
 10
669.967170
 20
274.825450
 42
-0.002257
  0
VERTEX
  8
0
 10
666.000000
 20
275.446790
 42
0.000836
  0
VERTEX
  8
0
 10
661.227377
 20
276.208189
 42
0.000302
  0
VERTEX
  8
0
 10
654.443750
 20
277.274588
 42
0.000300
  0
VERTEX
  8
0
 10
647.013542
 20
278.433470
 42
0.000356
  0
VERTEX
  8
0
 10
640.000000
 20
279.517944
 42
-0.000343
  0
VERTEX
  8
0
 10
633.022953
 20
280.596589
 42
-0.000297
  0
VERTEX
  8
0
 10
625.703125
 20
281.737831
 42
-0.000299
  0
VERTEX
  8
0
 10
619.072016
 20
282.779794
 42
-0.000874
  0
VERTEX
  8
0
 10
614.500000
 20
283.509201
 42
0.001431
  0
VERTEX
  8
0
 10
610.724267
 20
284.107256
 42
0.001300
  0
VERTEX
  8
0
 10
606.821875
 20
284.703542
 42
0.001300
  0
VERTEX
  8
0
 10
603.327811
 20
285.218857
 42
0.004188
  0
VERTEX
  8
0
 10
601.000000
 20
285.536103
 42
-0.004522
  0
VERTEX
  8
0
 10
598.519660
 20
285.875820
 42
-0.001012
  0
VERTEX
  8
0
 10
594.296875
 20
286.501882
 42
-0.001050
  0
VERTEX
  8
0
 10
589.424221
 20
287.244849
 42
-0.001016
  0
VERTEX
  8
0
 10
584.500000
 20
288.016514
 42
0.000394
  0
VERTEX
  8
0
 10
578.935090
 20
288.895677
 42
0.000211
  0
VERTEX
  8
0
 10
572.059375
 20
289.973410
 42
0.000210
  0
VERTEX
  8
0
 10
565.041312
 20
291.067413
 42
0.000328
  0
VERTEX
  8
0
 10
559.000000
 20
292.002505
 42
-0.000042
  0
VERTEX
  8
0
 10
553.136453
 20
292.906650
 42
-0.000031
  0
VERTEX
  8
0
 10
546.675000
 20
293.903964
 42
-0.000032
  0
VERTEX
  8
0
 10
540.589207
 20
294.844083
 42
-0.000073
  0
VERTEX
  8
0
 10
536.000000
 20
295.553994
 42
0.001582
  0
VERTEX
  8
0
 10
532.032832
 20
296.155424
 42
0.001475
  0
VERTEX
  8
0
 10
527.968750
 20
296.746148
 42
0.001469
  0
VERTEX
  8
0
 10
524.354988
 20
297.249705
 42
0.005020
  0
VERTEX
  8
0
 10
522.000000
 20
297.546759
 42
-0.006504
  0
VERTEX
  8
0
 10
519.519917
 20
297.867074
 42
-0.001453
  0
VERTEX
  8
0
 10
515.296875
 20
298.480972
 42
-0.001508
  0
VERTEX
  8
0
 10
510.424221
 20
299.218802
 42
-0.001457
  0
VERTEX
  8
0
 10
505.500000
 20
299.994342
 42
0.000231
  0
VERTEX
  8
0
 10
500.374410
 20
300.814481
 42
0.000189
  0
VERTEX
  8
0
 10
494.895312
 20
301.686457
 42
0.000191
  0
VERTEX
  8
0
 10
489.856870
 20
302.484371
 42
0.000506
  0
VERTEX
  8
0
 10
486.250000
 20
303.050422
 42
-0.003285
  0
VERTEX
  8
0
 10
483.470159
 20
303.502531
 42
-0.005430
  0
VERTEX
  8
0
 10
481.129688
 20
303.925183
 42
-0.001198
  0
VERTEX
  8
0
 10
479.099969
 20
304.319569
 42
-0.358381
  0
VERTEX
  8
0
 10
479.000000
 20
304.441128
 42
-0.091012
  0
VERTEX
  8
0
 10
479.251684
 20
305.812367
 42
-0.017446
  0
VERTEX
  8
0
 10
480.236231
 20
308.154493
 42
-0.010588
  0
VERTEX
  8
0
 10
481.364667
 20
310.466858
 42
-0.434236
  0
VERTEX
  8
0
 10
481.847411
 20
310.603733
 42
0.085839
  0
VERTEX
  8
0
 10
483.177635
 20
310.085038
 42
0.000409
  0
VERTEX
  8
0
 10
497.613268
 20
307.163003
 42
0.001743
  0
VERTEX
  8
0
 10
510.760243
 20
304.560677
 42
0.013191
  0
VERTEX
  8
0
 10
517.000000
 20
303.518152
 42
0.000455
  0
VERTEX
  8
0
 10
518.978408
 20
303.242864
 42
0.000319
  0
VERTEX
  8
0
 10
521.206250
 20
302.936385
 42
0.000322
  0
VERTEX
  8
0
 10
523.339684
 20
302.645682
 42
0.000674
  0
VERTEX
  8
0
 10
525.000000
 20
302.422816
 42
-0.004786
  0
VERTEX
  8
0
 10
526.723269
 20
302.177057
 42
-0.001894
  0
VERTEX
  8
0
 10
529.087500
 20
301.807595
 42
-0.001874
  0
VERTEX
  8
0
 10
531.637894
 20
301.389329
 42
-0.002348
  0
VERTEX
  8
0
 10
534.000000
 20
300.981430
 42
0.010380
  0
VERTEX
  8
0
 10
541.183886
 20
299.859410
 42
0.003250
  0
VERTEX
  8
0
 10
551.991580
 20
298.471993
 42
0.003335
  0
VERTEX
  8
0
 10
562.979623
 20
297.208272
 42
0.008350
  0
VERTEX
  8
0
 10
571.018810
 20
296.473576
 42
-0.001891
  0
VERTEX
  8
0
 10
574.103015
 20
296.231839
 42
-0.001894
  0
VERTEX
  8
0
 10
577.183650
 20
295.966898
 42
-0.001850
  0
VERTEX
  8
0
 10
579.870164
 20
295.715571
 42
-0.007542
  0
VERTEX
  8
0
 10
581.500000
 20
295.532156
 42
0.004287
  0
VERTEX
  8
0
 10
589.928506
 20
294.528039
 42
0.027608
  0
VERTEX
  8
0
 10
594.209825
 20
294.293190
 42
0.045431
  0
VERTEX
  8
0
 10
597.538341
 20
294.597597
 42
0.024673
  0
VERTEX
  8
0
 10
601.539995
 20
295.540203
 42
0.008296
  0
VERTEX
  8
0
 10
604.185851
 20
296.350739
 42
0.005385
  0
VERTEX
  8
0
 10
607.217999
 20
297.371150
 42
0.005414
  0
VERTEX
  8
0
 10
610.157734
 20
298.431669
 42
0.010233
  0
VERTEX
  8
0
 10
612.500000
 20
299.360461
 42
0.014819
  0
VERTEX
  8
0
 10
620.213333
 20
302.875754
 42
0.004451
  0
VERTEX
  8
0
 10
631.739909
 20
308.675257
 42
0.001922
  0
VERTEX
  8
0
 10
643.613372
 20
314.840196
 42
0.075243
  0
VERTEX
  8
0
 10
646.000000
 20
316.591136
 42
-0.072130
  0
VERTEX
  8
0
 10
646.721868
 20
317.127639
 42
-0.052752
  0
VERTEX
  8
0
 10
647.646875
 20
317.507574
 42
-0.053058
  0
VERTEX
  8
0
 10
648.623911
 20
317.683653
 42
-0.075973
  0
VERTEX
  8
0
 10
649.500000
 20
317.613973
 42
0.012268
  0
VERTEX
  8
0
 10
650.579924
 20
317.387755
 42
0.003161
  0
VERTEX
  8
0
 10
652.333546
 20
317.076552
 42
0.003215
  0
VERTEX
  8
0
 10
654.338834
 20
316.747004
 42
0.003267
  0
SEQEND
  0
POLYLINE
  8
0
 66
1
 70
1
  0
VERTEX
  8
0
 10
479.724915
 20
284.372816
 42
-0.019192
  0
VERTEX
  8
0
 10
496.567108
 20
274.506469
 42
-0.023153
  0
VERTEX
  8
0
 10
511.544950
 20
263.935324
 42
-0.024844
  0
VERTEX
  8
0
 10
524.493431
 20
252.792815
 42
-0.031372
  0
VERTEX
  8
0
 10
535.237312
 20
241.209578
 42
-0.018611
  0
VERTEX
  8
0
 10
538.668672
 20
236.675937
 42
-0.030457
  0
VERTEX
  8
0
 10
541.185157
 20
232.569308
 42
-0.023813
  0
VERTEX
  8
0
 10
543.565733
 20
227.529077
 42
-0.007144
  0
VERTEX
  8
0
 10
546.710003
 20
219.641979
 42
-0.005343
  0
VERTEX
  8
0
 10
548.848933
 20
213.861045
 42
-0.005782
  0
VERTEX
  8
0
 10
550.806457
 20
208.185456
 42
-0.005471
  0
VERTEX
  8
0
 10
552.374460
 20
203.284049
 42
-0.027718
  0
VERTEX
  8
0
 10
553.065383
 20
200.500000
 42
0.001228
  0
VERTEX
  8
0
 10
553.526433
 20
198.106445
 42
0.000560
  0
VERTEX
  8
0
 10
554.139928
 20
194.981660
 42
0.000555
  0
VERTEX
  8
0
 10
554.793656
 20
191.690775
 42
0.000764
  0
VERTEX
  8
0
 10
555.388830
 20
188.735438
 42
-0.011012
  0
VERTEX
  8
0
 10
555.861803
 20
186.109941
 42
-0.017065
  0
VERTEX
  8
0
 10
556.142241
 20
183.824276
 42
-0.011526
  0
VERTEX
  8
0
 10
556.263165
 20
181.963833
 42
-0.271135
  0
VERTEX
  8
0
 10
556.025499
 20
181.515759
 42
0.239944
  0
VERTEX
  8
0
 10
555.773465
 20
181.101189
 42
0.019489
  0
VERTEX
  8
0
 10
555.725876
 20
179.790113
 42
0.022842
  0
VERTEX
  8
0
 10
555.805513
 20
178.144935
 42
0.015421
  0
VERTEX
  8
0
 10
556.039593
 20
176.280321
 42
-0.012801
  0
VERTEX
  8
0
 10
556.303094
 20
174.266775
 42
-0.011512
  0
VERTEX
  8
0
 10
556.474377
 20
172.169844
 42
-0.011624
  0
VERTEX
  8
0
 10
556.540914
 20
170.282122
 42
-0.035257
  0
VERTEX
  8
0
 10
556.465827
 20
169.000000
 42
-0.001099
  0
VERTEX
  8
0
 10
556.306402
 20
167.791670
 42
-0.000479
  0
VERTEX
  8
0
 10
556.089616
 20
166.187643
 42
-0.000474
  0
VERTEX
  8
0
 10
555.856034
 20
164.483808
 42
-0.000632
  0
VERTEX
  8
0
 10
555.640446
 20
162.936656
 42
0.004488
  0
VERTEX
  8
0
 10
555.403293
 20
161.133099
 42
0.001570
  0
VERTEX
  8
0
 10
555.093737
 20
158.535846
 42
0.001559
  0
VERTEX
  8
0
 10
554.771025
 20
155.676031
 42
0.001822
  0
VERTEX
  8
0
 10
554.483017
 20
152.959021
 42
-0.010367
  0
VERTEX
  8
0
 10
554.164751
 20
150.378152
 42
-0.011875
  0
VERTEX
  8
0
 10
553.751205
 20
147.927607
 42
-0.011056
  0
VERTEX
  8
0
 10
553.306703
 20
145.872828
 42
-0.064148
  0
VERTEX
  8
0
 10
552.913357
 20
144.838106
 42
0.032259
  0
VERTEX
  8
0
 10
552.563530
 20
144.069047
 42
0.022881
  0
VERTEX
  8
0
 10
552.268299
 20
143.168068
 42
0.023203
  0
VERTEX
  8
0
 10
552.065056
 20
142.278015
 42
0.044555
  0
VERTEX
  8
0
 10
552.000000
 20
141.549404
 42
-0.110446
  0
VERTEX
  8
0
 10
551.198935
 20
137.967144
 42
-0.008755
  0
VERTEX
  8
0
 10
546.872978
 20
129.180840
 42
-0.012913
  0
VERTEX
  8
0
 10
542.016853
 20
120.309570
 42
-0.028370
  0
VERTEX
  8
0
 10
537.757416
 20
113.856150
 42
-0.048343
  0
VERTEX
  8
0
 10
519.585731
 20
93.823599
 42
-0.042592
  0
VERTEX
  8
0
 10
497.158624
 20
76.692052
 42
-0.037774
  0
VERTEX
  8
0
 10
469.608616
 20
61.937804
 42
-0.024813
  0
VERTEX
  8
0
 10
436.000000
 20
49.035561
 42
-0.019762
  0
VERTEX
  8
0
 10
416.056188
 20
43.356476
 42
-0.014789
  0
VERTEX
  8
0
 10
393.700919
 20
38.630970
 42
-0.013934
  0
VERTEX
  8
0
 10
369.595327
 20
34.966219
 42
-0.012407
  0
VERTEX
  8
0
 10
344.371888
 20
32.481371
 42
-0.015988
  0
VERTEX
  8
0
 10
334.212474
 20
32.060412
 42
-0.002109
  0
VERTEX
  8
0
 10
312.654631
 20
31.947872
 42
-0.001110
  0
VERTEX
  8
0
 10
290.050356
 20
31.975389
 42
-0.042395
  0
VERTEX
  8
0
 10
285.000000
 20
32.421867
 42
0.016714
  0
VERTEX
  8
0
 10
283.542012
 20
32.626570
 42
0.002827
  0
VERTEX
  8
0
 10
280.743770
 20
32.908492
 42
0.003087
  0
VERTEX
  8
0
 10
277.450751
 20
33.200963
 42
0.002741
  0
VERTEX
  8
0
 10
274.021343
 20
33.465297
 42
-0.004764
  0
VERTEX
  8
0
 10
270.263467
 20
33.770248
 42
-0.003190
  0
VERTEX
  8
0
 10
265.970773
 20
34.187433
 42
-0.003212
  0
VERTEX
  8
0
 10
261.816460
 20
34.644935
 42
-0.006322
  0
VERTEX
  8
0
 10
258.521343
 20
35.071553
 42
0.002006
  0
VERTEX
  8
0
 10
255.467441
 20
35.493774
 42
0.001494
  0
VERTEX
  8
0
 10
252.093770
 20
35.936161
 42
0.001509
  0
VERTEX
  8
0
 10
248.909886
 20
36.334223
 42
0.003427
  0
VERTEX
  8
0
 10
246.500000
 20
36.611383
 42
-0.011683
  0
VERTEX
  8
0
 10
243.914316
 20
36.952105
 42
-0.003594
  0
VERTEX
  8
0
 10
240.031250
 20
37.585011
 42
-0.003594
  0
VERTEX
  8
0
 10
235.695268
 20
38.355877
 42
-0.003934
  0
VERTEX
  8
0
 10
231.500000
 20
39.167064
 42
0.000338
  0
VERTEX
  8
0
 10
227.560316
 20
39.958263
 42
0.000457
  0
VERTEX
  8
0
 10
223.996875
 20
40.668004
 42
0.000307
  0
VERTEX
  8
0
 10
221.004597
 20
41.259231
 42
0.005023
  0
VERTEX
  8
0
 10
220.000000
 20
41.446618
 42
-0.007953
  0
VERTEX
  8
0
 10
219.224298
 20
41.596018
 42
-0.002448
  0
VERTEX
  8
0
 10
218.059375
 20
41.845618
 42
-0.002448
  0
VERTEX
  8
0
 10
216.758579
 20
42.137683
 42
-0.002684
  0
VERTEX
  8
0
 10
215.500000
 20
42.433871
 42
0.000022
  0
VERTEX
  8
0
 10
213.740507
 20
42.857841
 42
0.000003
  0
VERTEX
  8
0
 10
210.296875
 20
43.687440
 42
0.000004
  0
VERTEX
  8
0
 10
206.239977
 20
44.664718
 42
0.000003
  0
VERTEX
  8
0
 10
202.000000
 20
45.686033
 42
-0.014328
  0
VERTEX
  8
0
 10
189.116723
 20
49.182628
 42
-0.007663
  0
VERTEX
  8
0
 10
173.402939
 20
54.198902
 42
-0.007608
  0
VERTEX
  8
0
 10
158.195299
 20
59.570602
 42
-0.018161
  0
VERTEX
  8
0
 10
147.125229
 20
64.134956
 42
0.004103
  0
VERTEX
  8
0
 10
145.116206
 20
65.030177
 42
0.002346
  0
VERTEX
  8
0
 10
142.676885
 20
66.079639
 42
0.002343
  0
VERTEX
  8
0
 10
140.213218
 20
67.112302
 42
0.003890
  0
VERTEX
  8
0
 10
138.125229
 20
67.957052
 42
-0.028882
  0
VERTEX
  8
0
 10
127.835137
 20
72.731367
 42
-0.010557
  0
VERTEX
  8
0
 10
113.847127
 20
80.615904
 42
-0.010690
  0
VERTEX
  8
0
 10
99.457637
 20
89.552701
 42
-0.016659
  0
VERTEX
  8
0
 10
87.500000
 20
97.918252
 42
-0.023750
  0
VERTEX
  8
0
 10
78.909970
 20
105.026175
 42
-0.012741
  0
VERTEX
  8
0
 10
68.973192
 20
114.551040
 42
-0.012722
  0
VERTEX
  8
0
 10
59.653908
 20
124.442218
 42
-0.026969
  0
VERTEX
  8
0
 10
53.067739
 20
132.649194
 42
-0.022391
  0
VERTEX
  8
0
 10
47.754581
 20
140.801961
 42
-0.018827
  0
VERTEX
  8
0
 10
42.854926
 20
149.875127
 42
-0.019111
  0
VERTEX
  8
0
 10
38.740643
 20
159.106037
 42
-0.026061
  0
VERTEX
  8
0
 10
35.798098
 20
167.726298
 42
-0.052694
  0
VERTEX
  8
0
 10
33.874443
 20
178.829541
 42
-0.024019
  0
VERTEX
  8
0
 10
33.605683
 20
193.570839
 42
-0.019521
  0
VERTEX
  8
0
 10
34.571791
 20
207.583693
 42
-0.155117
  0
VERTEX
  8
0
 10
37.160997
 20
213.450000
 42
0.069259
  0
VERTEX
  8
0
 10
37.482850
 20
213.935791
 42
0.035024
  0
VERTEX
  8
0
 10
37.753543
 20
214.619828
 42
0.033963
  0
VERTEX
  8
0
 10
37.938295
 20
215.378406
 42
0.042776
  0
VERTEX
  8
0
 10
38.000000
 20
216.098350
 42
-0.110807
  0
VERTEX
  8
0
 10
38.572183
 20
218.648533
 42
-0.005086
  0
VERTEX
  8
0
 10
42.485938
 20
226.717644
 42
-0.005483
  0
VERTEX
  8
0
 10
46.544771
 20
234.654154
 42
-0.098913
  0
VERTEX
  8
0
 10
48.332775
 20
236.861216
 42
-0.455723
  0
VERTEX
  8
0
 10
48.993412
 20
236.752920
 42
-0.109221
  0
VERTEX
  8
0
 10
49.410834
 20
235.555897
 42
-0.027859
  0
VERTEX
  8
0
 10
49.595240
 20
232.597323
 42
-0.003581
  0
VERTEX
  8
0
 10
49.591322
 20
226.240754
 42
0.005096
  0
VERTEX
  8
0
 10
49.602968
 20
221.415779
 42
0.005208
  0
VERTEX
  8
0
 10
49.713232
 20
216.626972
 42
0.005062
  0
VERTEX
  8
0
 10
49.894377
 20
212.471315
 42
0.021605
  0
VERTEX
  8
0
 10
50.134575
 20
210.000000
 42
0.044031
  0
VERTEX
  8
0
 10
52.577459
 20
199.476611
 42
0.024606
  0
VERTEX
  8
0
 10
57.277419
 20
187.188294
 42
0.024140
  0
VERTEX
  8
0
 10
63.384476
 20
174.947639
 42
0.031976
  0
VERTEX
  8
0
 10
70.154725
 20
164.500000
 42
0.034555
  0
VERTEX
  8
0
 10
81.379590
 20
151.387502
 42
0.020498
  0
VERTEX
  8
0
 10
96.404503
 20
137.313466
 42
0.020106
  0
VERTEX
  8
0
 10
113.105228
 20
124.040459
 42
0.025922
  0
VERTEX
  8
0
 10
129.500000
 20
113.310945
 42
0.014067
  0
VERTEX
  8
0
 10
140.447093
 20
107.337183
 42
0.007093
  0
VERTEX
  8
0
 10
154.560754
 20
100.393489
 42
0.003147
  0
VERTEX
  8
0
 10
168.720000
 20
93.783983
 42
0.108028
  0
VERTEX
  8
0
 10
172.306273
 20
93.000000
 42
-0.053977
  0
VERTEX
  8
0
 10
172.871088
 20
92.938848
 42
-0.035471
  0
VERTEX
  8
0
 10
173.499030
 20
92.753777
 42
-0.035556
  0
VERTEX
  8
0
 10
174.091887
 20
92.482882
 42
-0.055877
  0
VERTEX
  8
0
 10
174.550000
 20
92.161795
 42
0.101773
  0
VERTEX
  8
0
 10
177.688428
 20
90.364373
 42
0.002549
  0
VERTEX
  8
0
 10
193.431812
 20
85.283646
 42
0.006146
  0
VERTEX
  8
0
 10
209.664873
 20
80.354882
 42
0.009788
  0
VERTEX
  8
0
 10
223.675349
 20
76.584083
 42
0.012966
  0
VERTEX
  8
0
 10
236.110912
 20
73.837111
 42
0.006051
  0
VERTEX
  8
0
 10
252.351976
 20
70.892246
 42
0.006008
  0
VERTEX
  8
0
 10
269.386839
 20
68.226007
 42
0.008694
  0
VERTEX
  8
0
 10
284.500000
 20
66.313855
 42
0.018793
  0
VERTEX
  8
0
 10
300.635828
 20
65.168180
 42
0.004972
  0
VERTEX
  8
0
 10
326.476668
 20
64.564512
 42
0.004496
  0
VERTEX
  8
0
 10
352.124895
 20
64.451099
 42
0.026708
  0
VERTEX
  8
0
 10
365.500000
 20
65.227352
 42
-0.000076
  0
VERTEX
  8
0
 10
368.489191
 20
65.561197
 42
-0.000029
  0
VERTEX
  8
0
 10
372.675000
 20
66.027798
 42
-0.000028
  0
VERTEX
  8
0
 10
377.231709
 20
66.535219
 42
-0.000034
  0
VERTEX
  8
0
 10
381.500000
 20
67.009981
 42
0.005238
  0
VERTEX
  8
0
 10
388.608151
 20
67.875604
 42
0.003408
  0
VERTEX
  8
0
 10
396.800903
 20
69.017397
 42
0.003384
  0
VERTEX
  8
0
 10
405.088908
 20
70.287460
 42
0.004690
  0
VERTEX
  8
0
 10
412.500000
 20
71.545941
 42
0.017312
  0
VERTEX
  8
0
 10
424.251992
 20
74.077921
 42
0.008118
  0
VERTEX
  8
0
 10
439.271841
 20
78.122862
 42
0.008124
  0
VERTEX
  8
0
 10
454.490270
 20
82.756371
 42
0.013922
  0
VERTEX
  8
0
 10
467.000000
 20
87.176467
 42
0.003985
  0
VERTEX
  8
0
 10
481.087060
 20
92.728887
 42
0.013251
  0
VERTEX
  8
0
 10
490.214363
 20
96.695072
 42
0.018058
  0
VERTEX
  8
0
 10
497.505069
 20
100.421803
 42
0.014386
  0
VERTEX
  8
0
 10
505.094132
 20
104.944335
 42
-0.002714
  0
VERTEX
  8
0
 10
507.552722
 20
106.488358
 42
-0.001941
  0
VERTEX
  8
0
 10
510.318983
 20
108.189898
 42
-0.001960
  0
VERTEX
  8
0
 10
512.967440
 20
109.790629
 42
-0.004204
  0
VERTEX
  8
0
 10
515.025269
 20
111.000000
 42
0.045757
  0
VERTEX
  8
0
 10
519.452660
 20
114.123219
 42
0.020744
  0
VERTEX
  8
0
 10
524.661124
 20
118.949143
 42
0.020783
  0
VERTEX
  8
0
 10
529.492139
 20
124.235095
 42
0.041944
  0
VERTEX
  8
0
 10
532.746021
 20
128.840862
 42
0.040791
  0
VERTEX
  8
0
 10
536.393929
 20
136.398677
 42
0.038032
  0
VERTEX
  8
0
 10
538.868139
 20
144.626177
 42
0.035463
  0
VERTEX
  8
0
 10
540.190506
 20
153.669386
 42
0.027090
  0
VERTEX
  8
0
 10
540.391913
 20
163.670512
 42
0.004700
  0
VERTEX
  8
0
 10
540.130950
 20
169.675528
 42
0.009347
  0
VERTEX
  8
0
 10
539.790719
 20
174.424314
 42
0.009425
  0
VERTEX
  8
0
 10
539.275239
 20
179.131848
 42
0.004865
  0
VERTEX
  8
0
 10
538.462377
 20
185.000000
 42
0.031951
  0
VERTEX
  8
0
 10
537.188369
 20
190.940693
 42
0.009245
  0
VERTEX
  8
0
 10
534.472315
 20
199.923426
 42
0.008829
  0
VERTEX
  8
0
 10
530.883045
 20
210.410146
 42
0.007213
  0
VERTEX
  8
0
 10
526.685314
 20
221.500000
 42
0.040862
  0
VERTEX
  8
0
 10
521.599263
 20
231.818482
 42
0.018410
  0
VERTEX
  8
0
 10
513.365416
 20
244.483862
 42
0.018419
  0
VERTEX
  8
0
 10
504.209308
 20
256.525637
 42
0.040262
  0
VERTEX
  8
0
 10
496.167640
 20
264.861880
 42
0.019641
  0
VERTEX
  8
0
 10
490.676178
 20
269.335644
 42
0.014637
  0
VERTEX
  8
0
 10
484.292825
 20
273.845511
 42
0.013714
  0
VERTEX
  8
0
 10
477.182919
 20
278.287029
 42
0.011902
  0
VERTEX
  8
0
 10
469.500000
 20
282.555826
 42
-0.003491
  0
VERTEX
  8
0
 10
462.921004
 20
286.067756
 42
-0.153539
  0
VERTEX
  8
0
 10
461.846512
 20
287.178551
 42
-0.540786
  0
VERTEX
  8
0
 10
462.256618
 20
287.882687
 42
-0.012980
  0
VERTEX
  8
0
 10
466.774915
 20
288.000000
 42
-0.022982
  0
VERTEX
  8
0
 10
470.303569
 20
287.837726
 42
-0.045327
  0
VERTEX
  8
0
 10
473.060882
 20
287.328850
 42
-0.040150
  0
VERTEX
  8
0
 10
475.888056
 20
286.286104
 42
-0.014485
  0
SEQEND
  0
POLYLINE
  8
0
 66
1
 70
1
  0
VERTEX
  8
0
 10
302.500000
 20
277.853558
 42
0.013805
  0
VERTEX
  8
0
 10
300.124432
 20
277.346961
 42
0.006353
  0
VERTEX
  8
0
 10
297.059375
 20
276.562954
 42
0.006286
  0
VERTEX
  8
0
 10
293.854028
 20
275.656156
 42
0.008659
  0
VERTEX
  8
0
 10
291.000000
 20
274.755801
 42
-0.001093
  0
VERTEX
  8
0
 10
288.472888
 20
273.916328
 42
-0.001638
  0
VERTEX
  8
0
 10
286.262500
 20
273.195448
 42
-0.000661
  0
VERTEX
  8
0
 10
284.364233
 20
272.586006
 42
-0.036428
  0
VERTEX
  8
0
 10
284.000000
 20
272.498218
 42
0.070038
  0
VERTEX
  8
0
 10
282.101453
 20
271.903565
 42
0.006980
  0
VERTEX
  8
0
 10
277.817055
 20
269.795022
 42
0.008695
  0
VERTEX
  8
0
 10
273.612090
 20
267.559208
 42
0.040131
  0
VERTEX
  8
0
 10
271.317648
 20
266.035222
 42
-0.028786
  0
VERTEX
  8
0
 10
270.200705
 20
265.256295
 42
-0.027509
  0
VERTEX
  8
0
 10
268.985046
 20
264.597846
 42
-0.028607
  0
VERTEX
  8
0
 10
267.848262
 20
264.138257
 42
-0.081932
  0
VERTEX
  8
0
 10
267.010199
 20
264.000000
 42
0.183830
  0
VERTEX
  8
0
 10
265.337711
 20
263.363588
 42
0.008421
  0
VERTEX
  8
0
 10
260.764746
 20
259.154045
 42
0.012016
  0
VERTEX
  8
0
 10
256.467050
 20
254.860506
 42
0.091631
  0
VERTEX
  8
0
 10
254.909504
 20
252.478513
 42
-0.143798
  0
VERTEX
  8
0
 10
253.721867
 20
251.015822
 42
-0.015197
  0
VERTEX
  8
0
 10
249.987437
 20
248.607501
 42
-0.019706
  0
VERTEX
  8
0
 10
245.985688
 20
246.405825
 42
-0.052554
  0
VERTEX
  8
0
 10
242.938598
 20
245.263895
 42
0.064031
  0
VERTEX
  8
0
 10
239.671852
 20
243.953667
 42
0.242019
  0
VERTEX
  8
0
 10
238.489790
 20
242.175037
 42
0.151113
  0
VERTEX
  8
0
 10
238.994592
 20
239.525938
 42
0.022963
  0
VERTEX
  8
0
 10
241.769292
 20
234.835269
 42
0.003474
  0
VERTEX
  8
0
 10
247.333403
 20
226.471632
 42
0.081929
  0
VERTEX
  8
0
 10
249.276803
 20
224.416567
 42
0.375062
  0
VERTEX
  8
0
 10
250.732637
 20
224.515462
 42
0.077170
  0
VERTEX
  8
0
 10
252.381468
 20
226.770785
 42
-0.046818
  0
VERTEX
  8
0
 10
254.078630
 20
229.413840
 42
-0.026253
  0
VERTEX
  8
0
 10
256.589226
 20
232.294426
 42
-0.023660
  0
VERTEX
  8
0
 10
259.741181
 20
235.255102
 42
-0.018866
  0
VERTEX
  8
0
 10
263.400038
 20
238.148357
 42
-0.029417
  0
VERTEX
  8
0
 10
265.728435
 20
239.649116
 42
-0.060178
  0
VERTEX
  8
0
 10
267.732055
 20
240.480933
 42
-0.051599
  0
VERTEX
  8
0
 10
270.068178
 20
240.882394
 42
-0.016772
  0
VERTEX
  8
0
 10
273.573313
 20
241.000000
 42
-0.015171
  0
VERTEX
  8
0
 10
276.991394
 20
240.896262
 42
-0.050141
  0
VERTEX
  8
0
 10
279.212482
 20
240.535820
 42
-0.066296
  0
VERTEX
  8
0
 10
280.969274
 20
239.806535
 42
-0.043436
  0
VERTEX
  8
0
 10
282.765138
 20
238.544170
 42
-0.072755
  0
VERTEX
  8
0
 10
284.543877
 20
236.540640
 42
-0.103127
  0
VERTEX
  8
0
 10
285.414934
 20
234.329383
 42
-0.084822
  0
VERTEX
  8
0
 10
285.416249
 20
231.633712
 42
-0.036099
  0
VERTEX
  8
0
 10
284.552154
 20
228.116686
 42
-0.066055
  0
VERTEX
  8
0
 10
282.098193
 20
222.971113
 42
-0.004163
  0
VERTEX
  8
0
 10
272.809488
 20
208.954544
 42
-0.005946
  0
VERTEX
  8
0
 10
263.405703
 20
195.368987
 42
-0.031964
  0
VERTEX
  8
0
 10
257.743802
 20
188.385485
 42
0.028873
  0
VERTEX
  8
0
 10
253.233391
 20
182.891958
 42
0.006657
  0
VERTEX
  8
0
 10
246.304139
 20
173.111548
 42
0.007162
  0
VERTEX
  8
0
 10
239.497888
 20
162.918898
 42
0.018942
  0
VERTEX
  8
0
 10
235.015640
 20
155.382659
 42
0.023780
  0
VERTEX
  8
0
 10
232.139048
 20
149.444760
 42
0.302227
  0
VERTEX
  8
0
 10
232.569460
 20
147.124569
 42
0.205695
  0
VERTEX
  8
0
 10
235.137572
 20
146.054963
 42
0.012102
  0
VERTEX
  8
0
 10
243.772181
 20
146.359799
 42
0.002432
  0
VERTEX
  8
0
 10
248.099388
 20
146.638665
 42
0.002789
  0
VERTEX
  8
0
 10
252.229953
 20
146.948199
 42
0.002512
  0
VERTEX
  8
0
 10
255.729629
 20
147.247802
 42
0.015985
  0
VERTEX
  8
0
 10
257.500000
 20
147.465570
 42
-0.004185
  0
VERTEX
  8
0
 10
264.535779
 20
148.500079
 42
-0.004065
  0
VERTEX
  8
0
 10
271.656540
 20
149.427339
 42
-0.004263
  0
VERTEX
  8
0
 10
278.176461
 20
150.166157
 42
-0.008748
  0
VERTEX
  8
0
 10
283.297784
 20
150.611885
 42
0.003804
  0
VERTEX
  8
0
 10
286.310023
 20
150.844065
 42
0.002552
  0
VERTEX
  8
0
 10
289.749619
 20
151.153214
 42
0.002570
  0
VERTEX
  8
0
 10
293.077484
 20
151.486725
 42
0.005076
  0
VERTEX
  8
0
 10
295.715651
 20
151.791931
 42
0.010941
  0
VERTEX
  8
0
 10
298.993576
 20
152.277987
 42
0.084069
  0
VERTEX
  8
0
 10
300.455035
 20
152.789756
 42
0.169327
  0
VERTEX
  8
0
 10
301.187174
 20
153.606633
 42
0.080683
  0
VERTEX
  8
0
 10
301.518933
 20
154.996844
 42
0.081568
  0
VERTEX
  8
0
 10
301.218362
 20
158.344941
 42
0.022274
  0
VERTEX
  8
0
 10
299.661295
 20
163.435260
 42
0.016935
  0
VERTEX
  8
0
 10
297.730005
 20
168.337943
 42
0.201477
  0
VERTEX
  8
0
 10
296.287828
 20
169.719792
 42
0.097048
  0
VERTEX
  8
0
 10
295.358490
 20
169.882111
 42
0.011938
  0
VERTEX
  8
0
 10
293.289740
 20
169.790097
 42
0.013753
  0
VERTEX
  8
0
 10
290.812061
 20
169.551934
 42
0.010965
  0
VERTEX
  8
0
 10
288.155477
 20
169.163294
 42
-0.001685
  0
VERTEX
  8
0
 10
285.277970
 20
168.687632
 42
-0.001295
  0
VERTEX
  8
0
 10
282.133171
 20
168.187024
 42
-0.001309
  0
VERTEX
  8
0
 10
279.190041
 20
167.734226
 42
-0.003119
  0
VERTEX
  8
0
 10
277.000000
 20
167.417118
 42
0.000049
  0
VERTEX
  8
0
 10
274.900568
 20
167.126279
 42
0.000025
  0
VERTEX
  8
0
 10
272.279504
 20
166.762783
 42
0.000025
  0
VERTEX
  8
0
 10
269.587300
 20
166.389146
 42
0.000038
  0
VERTEX
  8
0
 10
267.249374
 20
166.064377
 42
-0.009467
  0
VERTEX
  8
0
 10
265.202873
 20
165.819330
 42
-0.014027
  0
VERTEX
  8
0
 10
263.401045
 20
165.689036
 42
-0.009108
  0
VERTEX
  8
0
 10
261.914695
 20
165.650503
 42
-0.200915
  0
VERTEX
  8
0
 10
261.521898
 20
165.811436
 42
-0.388601
  0
VERTEX
  8
0
 10
261.504996
 20
166.194316
 42
-0.001957
  0
VERTEX
  8
0
 10
264.189443
 20
169.374418
 42
-0.006993
  0
VERTEX
  8
0
 10
267.385205
 20
173.025605
 42
-0.004208
  0
VERTEX
  8
0
 10
271.272524
 20
177.271118
 42
0.009957
  0
VERTEX
  8
0
 10
287.101184
 20
194.962447
 42
0.025950
  0
VERTEX
  8
0
 10
297.542374
 20
208.469138
 42
0.036239
  0
VERTEX
  8
0
 10
303.940505
 20
219.295737
 42
0.086291
  0
VERTEX
  8
0
 10
306.596489
 20
228.223842
 42
0.081513
  0
VERTEX
  8
0
 10
306.307914
 20
234.537715
 42
0.072718
  0
VERTEX
  8
0
 10
304.033086
 20
240.702167
 42
0.069120
  0
VERTEX
  8
0
 10
299.951006
 20
246.222514
 42
0.062290
  0
VERTEX
  8
0
 10
294.383964
 20
250.647867
 42
-0.028464
  0
VERTEX
  8
0
 10
293.344764
 20
251.365141
 42
-0.352699
  0
VERTEX
  8
0
 10
293.241960
 20
251.801064
 42
-0.179782
  0
VERTEX
  8
0
 10
293.674899
 20
252.219592
 42
-0.009278
  0
VERTEX
  8
0
 10
295.500000
 20
252.978689
 42
-0.031000
  0
VERTEX
  8
0
 10
297.271078
 20
253.553088
 42
-0.005329
  0
VERTEX
  8
0
 10
300.703125
 20
254.396537
 42
-0.005786
  0
VERTEX
  8
0
 10
304.760060
 20
255.298431
 42
-0.005140
  0
VERTEX
  8
0
 10
309.000000
 20
256.144236
 42
0.001407
  0
VERTEX
  8
0
 10
313.239969
 20
256.957188
 42
0.001601
  0
VERTEX
  8
0
 10
317.296875
 20
257.760376
 42
0.001451
  0
VERTEX
  8
0
 10
320.738184
 20
258.463545
 42
0.008960
  0
VERTEX
  8
0
 10
322.500000
 20
258.861922
 42
0.000000
  0
VERTEX
  8
0
 10
325.500000
 20
259.597015
 42
0.000000
  0
VERTEX
  8
0
 10
322.800948
 20
261.380135
 42
0.062636
  0
VERTEX
  8
0
 10
319.077093
 20
263.219160
 42
0.026955
  0
VERTEX
  8
0
 10
313.743416
 20
264.751209
 42
0.025377
  0
VERTEX
  8
0
 10
307.624634
 20
265.833506
 42
0.024981
  0
VERTEX
  8
0
 10
301.395383
 20
266.297670
 42
-0.007205
  0
VERTEX
  8
0
 10
298.559825
 20
266.407844
 42
-0.011934
  0
VERTEX
  8
0
 10
296.172394
 20
266.592310
 42
-0.005594
  0
VERTEX
  8
0
 10
294.206072
 20
266.813796
 42
-0.378528
  0
VERTEX
  8
0
 10
294.000000
 20
267.046996
 42
-0.308708
  0
VERTEX
  8
0
 10
294.203907
 20
267.345781
 42
-0.001858
  0
VERTEX
  8
0
 10
297.451563
 20
268.603089
 42
-0.006643
  0
VERTEX
  8
0
 10
301.245151
 20
269.998065
 42
-0.004076
  0
VERTEX
  8
0
 10
305.750000
 20
271.545793
 42
0.003304
  0
VERTEX
  8
0
 10
314.328854
 20
274.478414
 42
0.037738
  0
VERTEX
  8
0
 10
317.603496
 20
275.907276
 42
0.217242
  0
VERTEX
  8
0
 10
318.423889
 20
276.972936
 42
0.319023
  0
VERTEX
  8
0
 10
317.991641
 20
278.026328
 42
0.121093
  0
VERTEX
  8
0
 10
315.975933
 20
278.700499
 42
0.023230
  0
VERTEX
  8
0
 10
312.093244
 20
278.837613
 42
0.023443
  0
VERTEX
  8
0
 10
307.427499
 20
278.566562
 42
0.019401
  0
SEQEND
  0
POLYLINE
  8
0
 66
1
 70
1
  0
VERTEX
  8
0
 10
358.855536
 20
266.541115
 42
0.014644
  0
VERTEX
  8
0
 10
354.728294
 20
265.272465
 42
0.021924
  0
VERTEX
  8
0
 10
351.214465
 20
263.904141
 42
0.017523
  0
VERTEX
  8
0
 10
348.506242
 20
262.595161
 42
0.278246
  0
VERTEX
  8
0
 10
348.000000
 20
261.755889
 42
-0.145135
  0
VERTEX
  8
0
 10
347.914528
 20
261.467634
 42
-0.099334
  0
VERTEX
  8
0
 10
347.674216
 20
261.222042
 42
-0.083479
  0
VERTEX
  8
0
 10
347.314904
 20
261.056527
 42
-0.066372
  0
VERTEX
  8
0
 10
346.890947
 20
261.000000
 42
0.169317
  0
VERTEX
  8
0
 10
345.235804
 20
260.422970
 42
0.046437
  0
VERTEX
  8
0
 10
343.211414
 20
258.484535
 42
0.046938
  0
VERTEX
  8
0
 10
341.544589
 20
256.152069
 42
0.130500
  0
VERTEX
  8
0
 10
341.017277
 20
254.225249
 42
-0.075462
  0
VERTEX
  8
0
 10
340.856626
 20
253.218462
 42
-0.078075
  0
VERTEX
  8
0
 10
340.404974
 20
252.317544
 42
-0.076120
  0
VERTEX
  8
0
 10
339.686969
 20
251.580757
 42
-0.066804
  0
VERTEX
  8
0
 10
338.750000
 20
251.053020
 42
0.083119
  0
VERTEX
  8
0
 10
335.265480
 20
248.938654
 42
0.058013
  0
VERTEX
  8
0
 10
332.146889
 20
245.548147
 42
0.048591
  0
VERTEX
  8
0
 10
329.424337
 20
240.908360
 42
0.030454
  0
VERTEX
  8
0
 10
327.130997
 20
235.041744
 42
0.023261
  0
VERTEX
  8
0
 10
326.703973
 20
233.469757
 42
0.047825
  0
VERTEX
  8
0
 10
326.547453
 20
232.205249
 42
0.065039
  0
VERTEX
  8
0
 10
326.646541
 20
231.240218
 42
0.139184
  0
VERTEX
  8
0
 10
327.008256
 20
230.591744
 42
-0.138070
  0
VERTEX
  8
0
 10
327.394659
 20
229.902556
 42
-0.020366
  0
VERTEX
  8
0
 10
327.708675
 20
228.319862
 42
-0.021679
  0
VERTEX
  8
0
 10
327.927398
 20
226.371359
 42
-0.017110
  0
VERTEX
  8
0
 10
328.000000
 20
224.250340
 42
0.040783
  0
VERTEX
  8
0
 10
328.360538
 20
219.837532
 42
0.071328
  0
VERTEX
  8
0
 10
329.461242
 20
216.346850
 42
0.068786
  0
VERTEX
  8
0
 10
331.531499
 20
213.222720
 42
0.035413
  0
VERTEX
  8
0
 10
334.882444
 20
209.924849
 42
0.015404
  0
VERTEX
  8
0
 10
341.220099
 20
204.843561
 42
0.058488
  0
VERTEX
  8
0
 10
345.596693
 20
202.290014
 42
0.073645
  0
VERTEX
  8
0
 10
349.909433
 20
201.122863
 42
0.034349
  0
VERTEX
  8
0
 10
355.707547
 20
200.840845
 42
-0.009984
  0
VERTEX
  8
0
 10
358.394507
 20
200.841122
 42
-0.139001
  0
VERTEX
  8
0
 10
359.312307
 20
200.561135
 42
-0.274239
  0
VERTEX
  8
0
 10
359.634308
 20
199.916335
 42
-0.043462
  0
VERTEX
  8
0
 10
359.400943
 20
198.461349
 42
-0.025290
  0
VERTEX
  8
0
 10
359.033659
 20
197.259017
 42
-0.009755
  0
VERTEX
  8
0
 10
358.408335
 20
195.630154
 42
-0.009629
  0
VERTEX
  8
0
 10
357.660384
 20
193.886996
 42
-0.011726
  0
VERTEX
  8
0
 10
356.891002
 20
192.286206
 42
0.014471
  0
VERTEX
  8
0
 10
356.167117
 20
190.758656
 42
0.015819
  0
VERTEX
  8
0
 10
355.555482
 20
189.236003
 42
0.015420
  0
VERTEX
  8
0
 10
355.115575
 20
187.906271
 42
0.072289
  0
VERTEX
  8
0
 10
355.000000
 20
187.111046
 42
-0.067874
  0
VERTEX
  8
0
 10
354.871904
 20
186.171757
 42
-0.005155
  0
VERTEX
  8
0
 10
354.158676
 20
183.704341
 42
-0.007022
  0
VERTEX
  8
0
 10
353.232879
 20
180.771262
 42
-0.005288
  0
VERTEX
  8
0
 10
352.135919
 20
177.572488
 42
0.002957
  0
VERTEX
  8
0
 10
350.945043
 20
174.151924
 42
0.002560
  0
VERTEX
  8
0
 10
349.735219
 20
170.549418
 42
0.002576
  0
VERTEX
  8
0
 10
348.672643
 20
167.274277
 42
0.007522
  0
VERTEX
  8
0
 10
347.985225
 20
165.000000
 42
-0.004182
  0
VERTEX
  8
0
 10
346.917717
 20
161.381127
 42
-0.001419
  0
VERTEX
  8
0
 10
345.306336
 20
156.135748
 42
-0.001263
  0
VERTEX
  8
0
 10
343.308471
 20
149.754408
 42
-0.000834
  0
VERTEX
  8
0
 10
340.981265
 20
142.429002
 42
0.012704
  0
VERTEX
  8
0
 10
340.605635
 20
141.141476
 42
0.012016
  0
VERTEX
  8
0
 10
340.288247
 20
139.812500
 42
0.012063
  0
VERTEX
  8
0
 10
340.064104
 20
138.623166
 42
0.040560
  0
VERTEX
  8
0
 10
340.000000
 20
137.834228
 42
-0.055582
  0
VERTEX
  8
0
 10
339.899783
 20
136.935488
 42
-0.007842
  0
VERTEX
  8
0
 10
339.460230
 20
135.121909
 42
-0.008863
  0
VERTEX
  8
0
 10
338.866034
 20
132.984818
 42
-0.007436
  0
VERTEX
  8
0
 10
338.162485
 20
130.740574
 42
0.029629
  0
VERTEX
  8
0
 10
337.122446
 20
126.821801
 42
0.096685
  0
VERTEX
  8
0
 10
337.102657
 20
124.150296
 42
0.182683
  0
VERTEX
  8
0
 10
338.040640
 20
122.609166
 42
0.168640
  0
VERTEX
  8
0
 10
339.799690
 20
122.009524
 42
0.136469
  0
VERTEX
  8
0
 10
340.857833
 20
122.310208
 42
0.007743
  0
VERTEX
  8
0
 10
343.758072
 20
124.143140
 42
0.011394
  0
VERTEX
  8
0
 10
347.167451
 20
126.485066
 42
0.008081
  0
VERTEX
  8
0
 10
350.887362
 20
129.259524
 42
0.010193
  0
VERTEX
  8
0
 10
357.206575
 20
134.342308
 42
0.072159
  0
VERTEX
  8
0
 10
359.822863
 20
137.271926
 42
0.069541
  0
VERTEX
  8
0
 10
361.540207
 20
140.863409
 42
0.009102
  0
VERTEX
  8
0
 10
363.959151
 20
149.000000
 42
-0.004637
  0
VERTEX
  8
0
 10
364.503087
 20
150.891303
 42
-0.004092
  0
VERTEX
  8
0
 10
365.104506
 20
152.852884
 42
-0.004113
  0
VERTEX
  8
0
 10
365.675652
 20
154.612178
 42
-0.012431
  0
VERTEX
  8
0
 10
366.104139
 20
155.797053
 42
0.028353
  0
VERTEX
  8
0
 10
366.447546
 20
156.850334
 42
0.017445
  0
VERTEX
  8
0
 10
366.736841
 20
158.122564
 42
0.017475
  0
VERTEX
  8
0
 10
366.935585
 20
159.404960
 42
0.029711
  0
VERTEX
  8
0
 10
367.000000
 20
160.488036
 42
-0.038348
  0
VERTEX
  8
0
 10
367.073865
 20
161.449700
 42
-0.041835
  0
VERTEX
  8
0
 10
367.293750
 20
162.360297
 42
-0.045919
  0
VERTEX
  8
0
 10
367.615588
 20
163.096085
 42
-0.128988
  0
VERTEX
  8
0
 10
368.000000
 20
163.500000
 42
0.132364
  0
VERTEX
  8
0
 10
368.384610
 20
163.909534
 42
0.044930
  0
VERTEX
  8
0
 10
368.706250
 20
164.668113
 42
0.040939
  0
VERTEX
  8
0
 10
368.926182
 20
165.609989
 42
0.036907
  0
VERTEX
  8
0
 10
369.000000
 20
166.608677
 42
-0.045541
  0
VERTEX
  8
0
 10
369.105975
 20
167.769778
 42
-0.022298
  0
VERTEX
  8
0
 10
369.440082
 20
169.218717
 42
-0.021914
  0
VERTEX
  8
0
 10
369.924423
 20
170.704939
 42
-0.029607
  0
VERTEX
  8
0
 10
370.498150
 20
171.996422
 42
0.015436
  0
VERTEX
  8
0
 10
371.092299
 20
173.237858
 42
0.013426
  0
VERTEX
  8
0
 10
371.638697
 20
174.572202
 42
0.013623
  0
VERTEX
  8
0
 10
372.067819
 20
175.806615
 42
0.038231
  0
VERTEX
  8
0
 10
372.277080
 20
176.696762
 42
-0.020196
  0
VERTEX
  8
0
 10
372.427802
 20
177.460460
 42
-0.016467
  0
VERTEX
  8
0
 10
372.648622
 20
178.264049
 42
-0.016779
  0
VERTEX
  8
0
 10
372.901420
 20
178.991028
 42
-0.041183
  0
VERTEX
  8
0
 10
373.147616
 20
179.500000
 42
0.038653
  0
VERTEX
  8
0
 10
373.447905
 20
180.112882
 42
0.005929
  0
VERTEX
  8
0
 10
373.934700
 20
181.381250
 42
0.006595
  0
VERTEX
  8
0
 10
374.472662
 20
182.895235
 42
0.005680
  0
VERTEX
  8
0
 10
374.998886
 20
184.500000
 42
-0.014268
  0
VERTEX
  8
0
 10
375.680123
 20
186.462974
 42
-0.005495
  0
VERTEX
  8
0
 10
376.732834
 20
189.148688
 42
-0.005436
  0
VERTEX
  8
0
 10
377.938987
 20
192.038303
 42
-0.006675
  0
VERTEX
  8
0
 10
379.130200
 20
194.708299
 42
0.006562
  0
VERTEX
  8
0
 10
380.229381
 20
197.170518
 42
0.008795
  0
VERTEX
  8
0
 10
381.156996
 20
199.432595
 42
0.006456
  0
VERTEX
  8
0
 10
381.871993
 20
201.339898
 42
0.086653
  0
VERTEX
  8
0
 10
382.000000
 20
202.072971
 42
-0.087063
  0
VERTEX
  8
0
 10
382.121275
 20
202.764171
 42
-0.009883
  0
VERTEX
  8
0
 10
382.693187
 20
204.251287
 42
-0.011717
  0
VERTEX
  8
0
 10
383.456145
 20
206.005074
 42
-0.009280
  0
VERTEX
  8
0
 10
384.359787
 20
207.864672
 42
0.010824
  0
VERTEX
  8
0
 10
385.406012
 20
210.034709
 42
0.005811
  0
VERTEX
  8
0
 10
386.607269
 20
212.753997
 42
0.005783
  0
VERTEX
  8
0
 10
387.768587
 20
215.556968
 42
0.009018
  0
VERTEX
  8
0
 10
388.697045
 20
218.000000
 42
-0.000393
  0
VERTEX
  8
0
 10
389.548406
 20
220.362084
 42
-0.000312
  0
VERTEX
  8
0
 10
390.471710
 20
222.912500
 42
-0.000315
  0
VERTEX
  8
0
 10
391.330837
 20
225.276379
 42
-0.000789
  0
VERTEX
  8
0
 10
391.961583
 20
227.000000
 42
0.002045
  0
VERTEX
  8
0
 10
395.064325
 20
235.545211
 42
0.025837
  0
VERTEX
  8
0
 10
396.052193
 20
238.825175
 42
0.075136
  0
VERTEX
  8
0
 10
396.231107
 20
240.788265
 42
0.107500
  0
VERTEX
  8
0
 10
395.760807
 20
242.466146
 42
0.036626
  0
VERTEX
  8
0
 10
395.210061
 20
243.343276
 42
0.022116
  0
VERTEX
  8
0
 10
394.439803
 20
244.299455
 42
0.022094
  0
VERTEX
  8
0
 10
393.585835
 20
245.186277
 42
0.035793
  0
VERTEX
  8
0
 10
392.777850
 20
245.851147
 42
-0.024797
  0
VERTEX
  8
0
 10
391.678637
 20
246.715867
 42
-0.200348
  0
VERTEX
  8
0
 10
391.400097
 20
247.279211
 42
-0.181904
  0
VERTEX
  8
0
 10
391.591003
 20
247.904894
 42
-0.019889
  0
VERTEX
  8
0
 10
392.571839
 20
249.079381
 42
0.052413
  0
VERTEX
  8
0
 10
393.458199
 20
250.292923
 42
0.184564
  0
VERTEX
  8
0
 10
393.610525
 20
251.230377
 42
0.101349
  0
VERTEX
  8
0
 10
393.122820
 20
252.365043
 42
0.010499
  0
VERTEX
  8
0
 10
391.403571
 20
254.728235
 42
0.055948
  0
VERTEX
  8
0
 10
384.370543
 20
262.102336
 42
0.087506
  0
VERTEX
  8
0
 10
376.791595
 20
266.469174
 42
0.090581
  0
VERTEX
  8
0
 10
368.372606
 20
267.892552
 42
0.064024
  0
SEQEND
  0
POLYLINE
  8
0
 66
1
 70
1
  0
VERTEX
  8
0
 10
375.750000
 20
246.485544
 42
-0.020695
  0
VERTEX
  8
0
 10
378.299281
 20
245.339643
 42
-0.086474
  0
VERTEX
  8
0
 10
379.647446
 20
244.343524
 42
-0.269582
  0
VERTEX
  8
0
 10
379.844669
 20
243.520843
 42
-0.220640
  0
VERTEX
  8
0
 10
379.234738
 20
242.833333
 42
0.132647
  0
VERTEX
  8
0
 10
378.769412
 20
242.461216
 42
0.002389
  0
VERTEX
  8
0
 10
376.884234
 20
239.863176
 42
0.005769
  0
VERTEX
  8
0
 10
374.724487
 20
236.782229
 42
0.003797
  0
VERTEX
  8
0
 10
372.307643
 20
233.190245
 42
-0.024861
  0
VERTEX
  8
0
 10
365.672791
 20
224.173690
 42
-0.055665
  0
VERTEX
  8
0
 10
359.608050
 20
218.228018
 42
-0.068688
  0
VERTEX
  8
0
 10
353.266645
 20
214.537059
 42
-0.060539
  0
VERTEX
  8
0
 10
345.884575
 20
212.501804
 42
-0.016471
  0
VERTEX
  8
0
 10
343.100743
 20
212.179823
 42
-0.099532
  0
VERTEX
  8
0
 10
341.663830
 20
212.347547
 42
-0.127266
  0
VERTEX
  8
0
 10
340.573486
 20
213.043014
 42
-0.033852
  0
VERTEX
  8
0
 10
339.262822
 20
214.656637
 42
-0.026190
  0
VERTEX
  8
0
 10
336.902026
 20
218.404505
 42
-0.015280
  0
VERTEX
  8
0
 10
334.452751
 20
223.118425
 42
-0.006778
  0
VERTEX
  8
0
 10
332.276282
 20
227.801205
 42
-0.311233
  0
VERTEX
  8
0
 10
332.458537
 20
228.791870
 42
-0.083399
  0
VERTEX
  8
0
 10
332.804753
 20
229.038507
 42
-0.025608
  0
VERTEX
  8
0
 10
333.397454
 20
229.290053
 42
-0.024837
  0
VERTEX
  8
0
 10
334.100795
 20
229.508007
 42
-0.024854
  0
VERTEX
  8
0
 10
334.822122
 20
229.655083
 42
0.088216
  0
VERTEX
  8
0
 10
339.560883
 20
231.264571
 42
0.057149
  0
VERTEX
  8
0
 10
344.293089
 20
234.625588
 42
0.057908
  0
VERTEX
  8
0
 10
348.061642
 20
238.893268
 42
0.101835
  0
VERTEX
  8
0
 10
349.907625
 20
243.202722
 42
-0.050216
  0
VERTEX
  8
0
 10
350.402248
 20
244.789955
 42
-0.086069
  0
VERTEX
  8
0
 10
351.153278
 20
245.951030
 42
-0.079013
  0
VERTEX
  8
0
 10
352.300404
 20
246.854689
 42
-0.036621
  0
VERTEX
  8
0
 10
354.024430
 20
247.658601
 42
-0.077284
  0
VERTEX
  8
0
 10
358.247281
 20
248.553611
 42
-0.027140
  0
VERTEX
  8
0
 10
364.463292
 20
248.555634
 42
-0.027555
  0
VERTEX
  8
0
 10
370.843394
 20
247.857196
 42
-0.054284
  0
SEQEND
  0
POLYLINE
  8
0
 66
1
 70
1
  0
VERTEX
  8
0
 10
195.288367
 20
254.554011
 42
0.096176
  0
VERTEX
  8
0
 10
185.664975
 20
247.574236
 42
0.048602
  0
VERTEX
  8
0
 10
176.510786
 20
235.641961
 42
0.045900
  0
VERTEX
  8
0
 10
169.179751
 20
221.049035
 42
0.051723
  0
VERTEX
  8
0
 10
164.988375
 20
205.931079
 42
0.007045
  0
VERTEX
  8
0
 10
164.513629
 20
202.852594
 42
0.005303
  0
VERTEX
  8
0
 10
164.075322
 20
199.455432
 42
0.005362
  0
VERTEX
  8
0
 10
163.731263
 20
196.251694
 42
0.012297
  0
VERTEX
  8
0
 10
163.557478
 20
193.830902
 42
0.047673
  0
VERTEX
  8
0
 10
163.935493
 20
185.994694
 42
0.022176
  0
VERTEX
  8
0
 10
165.837951
 20
175.985011
 42
0.022149
  0
VERTEX
  8
0
 10
168.688253
 20
165.938936
 42
0.037767
  0
VERTEX
  8
0
 10
172.053978
 20
157.894195
 42
0.065006
  0
VERTEX
  8
0
 10
174.588105
 20
154.202542
 42
0.024722
  0
VERTEX
  8
0
 10
178.992269
 20
149.757994
 42
0.023064
  0
VERTEX
  8
0
 10
183.671106
 20
145.861576
 42
0.103952
  0
VERTEX
  8
0
 10
186.870640
 20
144.350886
 42
-0.014824
  0
VERTEX
  8
0
 10
187.950626
 20
144.059404
 42
-0.014427
  0
VERTEX
  8
0
 10
189.021376
 20
143.702060
 42
-0.014484
  0
VERTEX
  8
0
 10
189.943138
 20
143.333974
 42
-0.050857
  0
VERTEX
  8
0
 10
190.500000
 20
143.022110
 42
0.138392
  0
VERTEX
  8
0
 10
192.804745
 20
142.214329
 42
0.021947
  0
VERTEX
  8
0
 10
197.642704
 20
142.126345
 42
0.025441
  0
VERTEX
  8
0
 10
202.783104
 20
142.520738
 42
0.048347
  0
VERTEX
  8
0
 10
206.824738
 20
143.441787
 42
0.083258
  0
VERTEX
  8
0
 10
213.705413
 20
147.083762
 42
0.075304
  0
VERTEX
  8
0
 10
219.299086
 20
152.881072
 42
0.074881
  0
VERTEX
  8
0
 10
222.949315
 20
160.107883
 42
0.080757
  0
VERTEX
  8
0
 10
224.183629
 20
167.901650
 42
0.088427
  0
VERTEX
  8
0
 10
222.773229
 20
175.630782
 42
0.073985
  0
VERTEX
  8
0
 10
218.736654
 20
182.939768
 42
0.074213
  0
VERTEX
  8
0
 10
212.761776
 20
188.737513
 42
0.090034
  0
VERTEX
  8
0
 10
205.718941
 20
192.075681
 42
0.051606
  0
VERTEX
  8
0
 10
201.272044
 20
192.792922
 42
0.032625
  0
VERTEX
  8
0
 10
196.013123
 20
192.748569
 42
0.032895
  0
VERTEX
  8
0
 10
190.938979
 20
192.036476
 42
0.064682
  0
VERTEX
  8
0
 10
187.096362
 20
190.701457
 42
-0.008274
  0
VERTEX
  8
0
 10
185.737106
 20
190.049858
 42
-0.010706
  0
VERTEX
  8
0
 10
184.468265
 20
189.499803
 42
-0.008613
  0
VERTEX
  8
0
 10
183.395542
 20
189.083217
 42
-0.088528
  0
VERTEX
  8
0
 10
182.929226
 20
189.000000
 42
-0.354182
  0
VERTEX
  8
0
 10
181.887586
 20
189.843696
 42
-0.016566
  0
VERTEX
  8
0
 10
181.037207
 20
194.622985
 42
-0.024654
  0
VERTEX
  8
0
 10
180.530325
 20
200.019034
 42
-0.032500
  0
VERTEX
  8
0
 10
180.632157
 20
204.958417
 42
-0.054231
  0
VERTEX
  8
0
 10
182.321107
 20
213.557309
 42
-0.044934
  0
VERTEX
  8
0
 10
185.888628
 20
222.184483
 42
-0.038469
  0
VERTEX
  8
0
 10
191.527575
 20
231.202473
 42
-0.023168
  0
VERTEX
  8
0
 10
199.483599
 20
241.000000
 42
0.057499
  0
VERTEX
  8
0
 10
201.888299
 20
244.415102
 42
0.028681
  0
VERTEX
  8
0
 10
204.149745
 20
249.202813
 42
0.022895
  0
VERTEX
  8
0
 10
205.797837
 20
253.889458
 42
0.214696
  0
VERTEX
  8
0
 10
205.526181
 20
255.957639
 42
0.212033
  0
VERTEX
  8
0
 10
204.275379
 20
256.812158
 42
0.079598
  0
VERTEX
  8
0
 10
202.105519
 20
256.861223
 42
0.052302
  0
VERTEX
  8
0
 10
199.101475
 20
256.123657
 42
0.022620
  0
SEQEND
  0
POLYLINE
  8
0
 66
1
 70
1
  0
VERTEX
  8
0
 10
207.457116
 20
182.165038
 42
-0.064337
  0
VERTEX
  8
0
 10
210.249559
 20
180.010792
 42
-0.050867
  0
VERTEX
  8
0
 10
212.660862
 20
177.050569
 42
-0.049655
  0
VERTEX
  8
0
 10
214.478696
 20
173.581614
 42
-0.054075
  0
VERTEX
  8
0
 10
215.513618
 20
169.919397
 42
-0.143469
  0
VERTEX
  8
0
 10
214.519705
 20
161.508477
 42
-0.124367
  0
VERTEX
  8
0
 10
209.127250
 20
154.416220
 42
-0.123750
  0
VERTEX
  8
0
 10
200.988875
 20
150.713246
 42
-0.141284
  0
VERTEX
  8
0
 10
192.500000
 20
151.564573
 42
-0.095222
  0
VERTEX
  8
0
 10
186.810040
 20
155.215957
 42
-0.099370
  0
VERTEX
  8
0
 10
182.980866
 20
160.667913
 42
-0.099865
  0
VERTEX
  8
0
 10
181.563987
 20
167.151772
 42
-0.097177
  0
VERTEX
  8
0
 10
182.748059
 20
173.745837
 42
-0.066445
  0
VERTEX
  8
0
 10
184.220693
 20
176.415320
 42
-0.033939
  0
VERTEX
  8
0
 10
186.704688
 20
179.336689
 42
-0.033937
  0
VERTEX
  8
0
 10
189.562034
 20
181.896025
 42
-0.066237
  0
VERTEX
  8
0
 10
192.195804
 20
183.440283
 42
-0.075371
  0
VERTEX
  8
0
 10
195.615824
 20
184.304709
 42
-0.045151
  0
VERTEX
  8
0
 10
199.815669
 20
184.333575
 42
-0.044728
  0
VERTEX
  8
0
 10
204.018471
 20
183.600174
 42
-0.066708
  0
SEQEND
  0
POLYLINE
  8
0
 66
1
 70
1
  0
VERTEX
  8
0
 10
131.000000
 20
248.308084
 42
0.049209
  0
VERTEX
  8
0
 10
124.878068
 20
246.649266
 42
0.087263
  0
VERTEX
  8
0
 10
120.398734
 20
243.982263
 42
0.107182
  0
VERTEX
  8
0
 10
117.688863
 20
240.388829
 42
0.108569
  0
VERTEX
  8
0
 10
116.727273
 20
236.012552
 42
0.032906
  0
VERTEX
  8
0
 10
116.857622
 20
234.034067
 42
0.049039
  0
VERTEX
  8
0
 10
117.252052
 20
232.346289
 42
0.053846
  0
VERTEX
  8
0
 10
117.929801
 20
230.888413
 42
0.052908
  0
VERTEX
  8
0
 10
118.906573
 20
229.599448
 42
-0.070794
  0
VERTEX
  8
0
 10
121.048699
 20
226.552977
 42
-0.029880
  0
VERTEX
  8
0
 10
123.055081
 20
221.958607
 42
-0.029963
  0
VERTEX
  8
0
 10
124.527386
 20
217.062228
 42
-0.058111
  0
VERTEX
  8
0
 10
125.000000
 20
213.009510
 42
-0.032730
  0
VERTEX
  8
0
 10
124.880681
 20
211.188675
 42
-0.017863
  0
VERTEX
  8
0
 10
124.509272
 20
208.979928
 42
-0.017733
  0
VERTEX
  8
0
 10
123.969555
 20
206.753052
 42
-0.026848
  0
VERTEX
  8
0
 10
123.329437
 20
204.865324
 42
0.000000
  0
VERTEX
  8
0
 10
121.658873
 20
200.690176
 42
0.000000
  0
VERTEX
  8
0
 10
124.385713
 20
198.344647
 42
-0.016729
  0
VERTEX
  8
0
 10
126.083572
 20
196.782413
 42
-0.156268
  0
VERTEX
  8
0
 10
126.540011
 20
195.913102
 42
-0.160268
  0
VERTEX
  8
0
 10
126.400101
 20
194.950719
 42
-0.017843
  0
VERTEX
  8
0
 10
125.326510
 20
192.975591
 42
0.078679
  0
VERTEX
  8
0
 10
124.270909
 20
190.305847
 42
0.190979
  0
VERTEX
  8
0
 10
124.598404
 20
188.249299
 42
0.174791
  0
VERTEX
  8
0
 10
126.289589
 20
186.855267
 42
0.064699
  0
VERTEX
  8
0
 10
129.351277
 20
186.189635
 42
0.000000
  0
VERTEX
  8
0
 10
133.000000
 20
185.879269
 42
0.000000
  0
VERTEX
  8
0
 10
133.127623
 20
180.189635
 42
0.004131
  0
VERTEX
  8
0
 10
133.200124
 20
177.827979
 42
0.003973
  0
VERTEX
  8
0
 10
133.312341
 20
175.436955
 42
0.003933
  0
VERTEX
  8
0
 10
133.444577
 20
173.331072
 42
0.014379
  0
VERTEX
  8
0
 10
133.577233
 20
172.000000
 42
-0.018926
  0
VERTEX
  8
0
 10
134.009664
 20
167.221082
 42
-0.028857
  0
VERTEX
  8
0
 10
133.987570
 20
163.056987
 42
-0.033874
  0
VERTEX
  8
0
 10
133.531608
 20
159.588954
 42
-0.066169
  0
VERTEX
  8
0
 10
132.628167
 20
156.956462
 42
0.019949
  0
VERTEX
  8
0
 10
132.004937
 20
155.571478
 42
0.018619
  0
VERTEX
  8
0
 10
131.478274
 20
154.109281
 42
0.018972
  0
VERTEX
  8
0
 10
131.108562
 20
152.776259
 42
0.058218
  0
VERTEX
  8
0
 10
131.000000
 20
151.847052
 42
0.177149
  0
VERTEX
  8
0
 10
131.774315
 20
149.730146
 42
0.011147
  0
VERTEX
  8
0
 10
136.241984
 20
144.673258
 42
0.010534
  0
VERTEX
  8
0
 10
140.943596
 20
139.795140
 42
0.198225
  0
VERTEX
  8
0
 10
142.870436
 20
139.000000
 42
0.221822
  0
VERTEX
  8
0
 10
143.303469
 20
139.202055
 42
0.076450
  0
VERTEX
  8
0
 10
143.670744
 20
139.807813
 42
0.058225
  0
VERTEX
  8
0
 10
143.922700
 20
140.696982
 42
0.039181
  0
VERTEX
  8
0
 10
144.008692
 20
141.750000
 42
-0.014395
  0
VERTEX
  8
0
 10
144.053662
 20
143.157074
 42
-0.004717
  0
VERTEX
  8
0
 10
144.199088
 20
145.226089
 42
-0.004695
  0
VERTEX
  8
0
 10
144.403862
 20
147.520924
 42
-0.005291
  0
VERTEX
  8
0
 10
144.644642
 20
149.721794
 42
0.016021
  0
VERTEX
  8
0
 10
144.927370
 20
152.944288
 42
0.091969
  0
VERTEX
  8
0
 10
144.709563
 20
154.637278
 42
0.104108
  0
VERTEX
  8
0
 10
143.907977
 20
156.041055
 42
0.023287
  0
VERTEX
  8
0
 10
141.971949
 20
158.026204
 42
-0.033460
  0
VERTEX
  8
0
 10
140.649815
 20
159.438206
 42
-0.034575
  0
VERTEX
  8
0
 10
139.543564
 20
160.999226
 42
-0.037238
  0
VERTEX
  8
0
 10
138.764147
 20
162.522440
 42
-0.079247
  0
VERTEX
  8
0
 10
138.449947
 20
163.804410
 42
-0.002389
  0
VERTEX
  8
0
 10
138.325259
 20
165.411888
 42
-0.000345
  0
VERTEX
  8
0
 10
138.088973
 20
168.690540
 42
-0.000392
  0
VERTEX
  8
0
 10
137.815277
 20
172.567982
 42
-0.000335
  0
VERTEX
  8
0
 10
137.532914
 20
176.652747
 42
0.000000
  0
VERTEX
  8
0
 10
136.837930
 20
186.805493
 42
0.000000
  0
VERTEX
  8
0
 10
139.986535
 20
187.497043
 42
0.063221
  0
VERTEX
  8
0
 10
142.358332
 20
188.342653
 42
0.176468
  0
VERTEX
  8
0
 10
143.547598
 20
189.612339
 42
0.180941
  0
VERTEX
  8
0
 10
143.625364
 20
191.325710
 42
0.066947
  0
VERTEX
  8
0
 10
142.565574
 20
193.540266
 42
-0.032662
  0
VERTEX
  8
0
 10
141.655133
 20
195.149967
 42
-0.175271
  0
VERTEX
  8
0
 10
141.553776
 20
196.136138
 42
-0.122940
  0
VERTEX
  8
0
 10
142.092348
 20
197.147684
 42
-0.012875
  0
VERTEX
  8
0
 10
143.955622
 20
199.109469
 42
0.015096
  0
VERTEX
  8
0
 10
146.135960
 20
201.425594
 42
0.120906
  0
VERTEX
  8
0
 10
146.813257
 20
202.712779
 42
0.219233
  0
VERTEX
  8
0
 10
146.608159
 20
203.791400
 42
0.064723
  0
VERTEX
  8
0
 10
145.434063
 20
205.054723
 42
-0.134566
  0
VERTEX
  8
0
 10
142.485801
 20
209.268124
 42
-0.076078
  0
VERTEX
  8
0
 10
141.293211
 20
215.430634
 42
-0.053077
  0
VERTEX
  8
0
 10
141.850338
 20
223.763843
 42
-0.022737
  0
VERTEX
  8
0
 10
144.269631
 20
234.670780
 42
0.009486
  0
VERTEX
  8
0
 10
145.048367
 20
237.788450
 42
0.072752
  0
VERTEX
  8
0
 10
145.169408
 20
239.287830
 42
0.136332
  0
VERTEX
  8
0
 10
144.803457
 20
240.336723
 42
0.064092
  0
VERTEX
  8
0
 10
143.832964
 20
241.410993
 42
-0.041796
  0
VERTEX
  8
0
 10
143.131611
 20
242.121157
 42
-0.038767
  0
VERTEX
  8
0
 10
142.538433
 20
242.955361
 42
-0.041115
  0
VERTEX
  8
0
 10
142.129598
 20
243.783792
 42
-0.094342
  0
VERTEX
  8
0
 10
142.000000
 20
244.464532
 42
0.147167
  0
VERTEX
  8
0
 10
141.796623
 20
245.140540
 42
0.047774
  0
VERTEX
  8
0
 10
141.133338
 20
245.960852
 42
0.042829
  0
VERTEX
  8
0
 10
140.178702
 20
246.781001
 42
0.036745
  0
VERTEX
  8
0
 10
139.049660
 20
247.474320
 42
0.022952
  0
VERTEX
  8
0
 10
137.050485
 20
248.394463
 42
0.070680
  0
VERTEX
  8
0
 10
135.609376
 20
248.753753
 42
0.056466
  0
VERTEX
  8
0
 10
133.956912
 20
248.737884
 42
0.010964
  0
SEQEND
  0
POLYLINE
  8
0
 66
1
 70
1
  0
VERTEX
  8
0
 10
432.231923
 20
236.216649
 42
0.016790
  0
VERTEX
  8
0
 10
430.994318
 20
234.980183
 42
0.021714
  0
VERTEX
  8
0
 10
429.949377
 20
233.761662
 42
0.020126
  0
VERTEX
  8
0
 10
429.179550
 20
232.695089
 42
0.147288
  0
VERTEX
  8
0
 10
429.000000
 20
232.098790
 42
-0.203235
  0
VERTEX
  8
0
 10
428.658426
 20
231.293158
 42
-0.347993
  0
VERTEX
  8
0
 10
427.971245
 20
231.224900
 42
-0.086723
  0
VERTEX
  8
0
 10
426.799653
 20
232.302814
 42
-0.019802
  0
VERTEX
  8
0
 10
425.240807
 20
234.512379
 42
0.032509
  0
VERTEX
  8
0
 10
424.247926
 20
235.846464
 42
0.037582
  0
VERTEX
  8
0
 10
423.133890
 20
236.972755
 42
0.040878
  0
VERTEX
  8
0
 10
422.063408
 20
237.759884
 42
0.140338
  0
VERTEX
  8
0
 10
421.240807
 20
237.990616
 42
0.115954
  0
VERTEX
  8
0
 10
418.691673
 20
237.376875
 42
0.018198
  0
VERTEX
  8
0
 10
414.135531
 20
234.866874
 42
0.019805
  0
VERTEX
  8
0
 10
409.755312
 20
231.999999
 42
0.085367
  0
VERTEX
  8
0
 10
407.570896
 20
229.797756
 42
0.049067
  0
VERTEX
  8
0
 10
406.968838
 20
228.728849
 42
0.029540
  0
VERTEX
  8
0
 10
406.461451
 20
227.363652
 42
0.029390
  0
VERTEX
  8
0
 10
406.114298
 20
225.932746
 42
0.044842
  0
VERTEX
  8
0
 10
406.000000
 20
224.660862
 42
-0.023851
  0
VERTEX
  8
0
 10
405.924752
 20
223.084273
 42
-0.164666
  0
VERTEX
  8
0
 10
405.612101
 20
222.387507
 42
-0.225525
  0
VERTEX
  8
0
 10
405.000986
 20
222.144144
 42
-0.047819
  0
VERTEX
  8
0
 10
403.838327
 20
222.332028
 42
0.114056
  0
VERTEX
  8
0
 10
401.454229
 20
222.400347
 42
0.125168
  0
VERTEX
  8
0
 10
399.372869
 20
221.401287
 42
0.079378
  0
VERTEX
  8
0
 10
397.356301
 20
219.082538
 42
0.024210
  0
VERTEX
  8
0
 10
395.083184
 20
215.008948
 42
0.000000
  0
VERTEX
  8
0
 10
392.138127
 20
209.073149
 42
0.000000
  0
VERTEX
  8
0
 10
393.987490
 20
205.286574
 42
0.000000
  0
VERTEX
  8
0
 10
395.836853
 20
201.500000
 42
0.000000
  0
VERTEX
  8
0
 10
391.668427
 20
200.974059
 42
0.024213
  0
VERTEX
  8
0
 10
388.008906
 20
200.331075
 42
0.123747
  0
VERTEX
  8
0
 10
386.181353
 20
199.405991
 42
0.164010
  0
VERTEX
  8
0
 10
385.280155
 20
197.870860
 42
0.051853
  0
VERTEX
  8
0
 10
385.005577
 20
195.190983
 42
0.042205
  0
VERTEX
  8
0
 10
385.469102
 20
189.806329
 42
0.082592
  0
VERTEX
  8
0
 10
386.880766
 20
185.751776
 42
0.085052
  0
VERTEX
  8
0
 10
389.495521
 20
182.448298
 42
0.047043
  0
VERTEX
  8
0
 10
393.641668
 20
179.377149
 42
-0.059718
  0
VERTEX
  8
0
 10
394.553206
 20
178.665580
 42
-0.333912
  0
VERTEX
  8
0
 10
394.636751
 20
178.090004
 42
-0.125544
  0
VERTEX
  8
0
 10
394.019470
 20
177.427635
 42
-0.008772
  0
VERTEX
  8
0
 10
391.839304
 20
176.081064
 42
0.019654
  0
VERTEX
  8
0
 10
390.399016
 20
175.147582
 42
0.022302
  0
VERTEX
  8
0
 10
389.098104
 20
174.140119
 42
0.022213
  0
VERTEX
  8
0
 10
388.079834
 20
173.195363
 42
0.103367
  0
VERTEX
  8
0
 10
387.648108
 20
172.525368
 42
0.212553
  0
VERTEX
  8
0
 10
387.696542
 20
171.603032
 42
0.009431
  0
VERTEX
  8
0
 10
389.238981
 20
168.712633
 42
0.014514
  0
VERTEX
  8
0
 10
391.283276
 20
165.287382
 42
0.009722
  0
VERTEX
  8
0
 10
393.808804
 20
161.487175
 42
0.000000
  0
VERTEX
  8
0
 10
400.500000
 20
151.831444
 42
0.000000
  0
VERTEX
  8
0
 10
407.750000
 20
152.338607
 42
-0.005879
  0
VERTEX
  8
0
 10
411.989712
 20
152.585137
 42
-0.055354
  0
VERTEX
  8
0
 10
413.807224
 20
152.468164
 42
-0.174798
  0
VERTEX
  8
0
 10
414.662331
 20
151.977464
 42
-0.177770
  0
VERTEX
  8
0
 10
415.000000
 20
151.057744
 42
0.127169
  0
VERTEX
  8
0
 10
415.592257
 20
148.766775
 42
0.067026
  0
VERTEX
  8
0
 10
417.358349
 20
146.393796
 42
0.065074
  0
VERTEX
  8
0
 10
419.771993
 20
144.492681
 42
0.097217
  0
VERTEX
  8
0
 10
422.293331
 20
143.591201
 42
0.004171
  0
VERTEX
  8
0
 10
429.288523
 20
142.596797
 42
0.053946
  0
VERTEX
  8
0
 10
431.918864
 20
142.530813
 42
0.131461
  0
VERTEX
  8
0
 10
433.599778
 20
143.133236
 42
0.064197
  0
VERTEX
  8
0
 10
435.303701
 20
144.669714
 42
-0.001956
  0
VERTEX
  8
0
 10
440.926589
 20
151.175651
 42
-0.063893
  0
VERTEX
  8
0
 10
442.478965
 20
152.555290
 42
-0.204497
  0
VERTEX
  8
0
 10
443.863200
 20
152.829419
 42
-0.046580
  0
VERTEX
  8
0
 10
446.196613
 20
152.105009
 42
0.040995
  0
VERTEX
  8
0
 10
449.555183
 20
151.021143
 42
0.099845
  0
VERTEX
  8
0
 10
452.143698
 20
150.940377
 42
0.106668
  0
VERTEX
  8
0
 10
454.455237
 20
151.864630
 42
0.051008
  0
VERTEX
  8
0
 10
456.924376
 20
153.922637
 42
0.019846
  0
VERTEX
  8
0
 10
460.440161
 20
157.817037
 42
0.076707
  0
VERTEX
  8
0
 10
462.113510
 20
160.598833
 42
0.091287
  0
VERTEX
  8
0
 10
462.720513
 20
163.498346
 42
0.035158
  0
VERTEX
  8
0
 10
462.530708
 20
167.622474
 42
-0.025126
  0
VERTEX
  8
0
 10
462.259794
 20
171.719012
 42
-0.158636
  0
VERTEX
  8
0
 10
462.867617
 20
173.691927
 42
-0.198121
  0
VERTEX
  8
0
 10
464.437196
 20
174.689395
 42
-0.042570
  0
VERTEX
  8
0
 10
467.714816
 20
174.984687
 42
0.100156
  0
VERTEX
  8
0
 10
470.236482
 20
175.507441
 42
0.165235
  0
VERTEX
  8
0
 10
471.839678
 20
176.946699
 42
0.087062
  0
VERTEX
  8
0
 10
472.849741
 20
179.820070
 42
0.015564
  0
VERTEX
  8
0
 10
473.607981
 20
185.477897
 42
0.000000
  0
VERTEX
  8
0
 10
474.301508
 20
192.247123
 42
0.000000
  0
VERTEX
  8
0
 10
470.428330
 20
195.498852
 42
0.000000
  0
VERTEX
  8
0
 10
466.555151
 20
198.750582
 42
0.000000
  0
VERTEX
  8
0
 10
469.277576
 20
202.679042
 42
0.017870
  0
VERTEX
  8
0
 10
470.319731
 20
204.303956
 42
0.020103
  0
VERTEX
  8
0
 10
471.200288
 20
205.937716
 42
0.019816
  0
VERTEX
  8
0
 10
471.833107
 20
207.375923
 42
0.093996
  0
VERTEX
  8
0
 10
472.000000
 20
208.255840
 42
0.115710
  0
VERTEX
  8
0
 10
471.771802
 20
209.228716
 42
0.011950
  0
VERTEX
  8
0
 10
470.666809
 20
211.327126
 42
0.014365
  0
VERTEX
  8
0
 10
469.199585
 20
213.789792
 42
0.011011
  0
VERTEX
  8
0
 10
467.461479
 20
216.396593
 42
0.010216
  0
VERTEX
  8
0
 10
464.613031
 20
220.299058
 42
0.066012
  0
VERTEX
  8
0
 10
462.897427
 20
222.023663
 42
0.096749
  0
VERTEX
  8
0
 10
461.076182
 20
222.933460
 42
0.034371
  0
VERTEX
  8
0
 10
458.211479
 20
223.519153
 42
-0.012915
  0
VERTEX
  8
0
 10
453.707921
 20
224.240331
 42
-0.125860
  0
VERTEX
  8
0
 10
451.972252
 20
225.046914
 42
-0.150162
  0
VERTEX
  8
0
 10
450.979994
 20
226.537645
 42
-0.020786
  0
VERTEX
  8
0
 10
450.057599
 20
230.186338
 42
0.009107
  0
VERTEX
  8
0
 10
449.571282
 20
232.318382
 42
0.010521
  0
VERTEX
  8
0
 10
449.028450
 20
234.330419
 42
0.009665
  0
VERTEX
  8
0
 10
448.501485
 20
236.010775
 42
0.059005
  0
VERTEX
  8
0
 10
448.113720
 20
236.832112
 42
0.160935
  0
VERTEX
  8
0
 10
447.443638
 20
237.388199
 42
0.025825
  0
VERTEX
  8
0
 10
445.809140
 20
237.933346
 42
0.025951
  0
VERTEX
  8
0
 10
443.723448
 20
238.396234
 42
0.019021
  0
VERTEX
  8
0
 10
441.372159
 20
238.699970
 42
0.013546
  0
VERTEX
  8
0
 10
437.775802
 20
238.928064
 42
0.075527
  0
VERTEX
  8
0
 10
435.861274
 20
238.707849
 42
0.094469
  0
VERTEX
  8
0
 10
434.299006
 20
237.946110
 42
0.027335
  0
SEQEND
  0
POLYLINE
  8
0
 66
1
 70
1
  0
VERTEX
  8
0
 10
439.474315
 20
207.446285
 42
-0.114250
  0
VERTEX
  8
0
 10
446.007348
 20
202.749748
 42
-0.103582
  0
VERTEX
  8
0
 10
450.097014
 20
195.499173
 42
-0.106593
  0
VERTEX
  8
0
 10
450.867179
 20
187.395336
 42
-0.128013
  0
VERTEX
  8
0
 10
448.089860
 20
180.282745
 42
-0.064218
  0
VERTEX
  8
0
 10
444.820179
 20
176.809179
 42
-0.058742
  0
VERTEX
  8
0
 10
440.681329
 20
174.156213
 42
-0.056914
  0
VERTEX
  8
0
 10
435.909662
 20
172.473873
 42
-0.053378
  0
VERTEX
  8
0
 10
430.775947
 20
171.862145
 42
-0.152256
  0
VERTEX
  8
0
 10
417.779451
 20
175.743977
 42
-0.169445
  0
VERTEX
  8
0
 10
409.961079
 20
186.186872
 42
-0.185618
  0
VERTEX
  8
0
 10
410.701201
 20
198.485677
 42
-0.176648
  0
VERTEX
  8
0
 10
419.500000
 20
207.436158
 42
-0.010969
  0
VERTEX
  8
0
 10
420.795131
 20
208.018136
 42
-0.008926
  0
VERTEX
  8
0
 10
422.206250
 20
208.585903
 42
-0.009040
  0
VERTEX
  8
0
 10
423.525198
 20
209.062285
 42
-0.023152
  0
VERTEX
  8
0
 10
424.500000
 20
209.344946
 42
-0.070648
  0
VERTEX
  8
0
 10
427.310671
 20
209.612396
 42
-0.019985
  0
VERTEX
  8
0
 10
431.701583
 20
209.233149
 42
-0.020837
  0
VERTEX
  8
0
 10
436.181436
 20
208.474345
 42
-0.046614
  0
SEQEND
  0
ENDSEC
  0
EOF
