  0
SECTION
  2
HEADER
  9
$ACADVER
  1
AC1006
  9
$EXTMIN
 10
0.000000
 20
0.000000
 30
0.000000
  9
$EXTMAX
 10
825.000000
 20
413.000000
 30
0.000000
  0
ENDSEC
  0
SECTION
  2
ENTITIES
  0
POLYLINE
  8
0
 66
1
 70
1
  0
VERTEX
  8
0
 10
358.855536
 20
266.541115
 42
0.014644
  0
VERTEX
  8
0
 10
354.728294
 20
265.272465
 42
0.021924
  0
VERTEX
  8
0
 10
351.214465
 20
263.904141
 42
0.017523
  0
VERTEX
  8
0
 10
348.506242
 20
262.595161
 42
0.278246
  0
VERTEX
  8
0
 10
348.000000
 20
261.755889
 42
-0.145135
  0
VERTEX
  8
0
 10
347.914528
 20
261.467634
 42
-0.099334
  0
VERTEX
  8
0
 10
347.674216
 20
261.222042
 42
-0.083479
  0
VERTEX
  8
0
 10
347.314904
 20
261.056527
 42
-0.066372
  0
VERTEX
  8
0
 10
346.890947
 20
261.000000
 42
0.169317
  0
VERTEX
  8
0
 10
345.235804
 20
260.422970
 42
0.046437
  0
VERTEX
  8
0
 10
343.211414
 20
258.484535
 42
0.046938
  0
VERTEX
  8
0
 10
341.544589
 20
256.152069
 42
0.130500
  0
VERTEX
  8
0
 10
341.017277
 20
254.225249
 42
-0.075462
  0
VERTEX
  8
0
 10
340.856626
 20
253.218462
 42
-0.078075
  0
VERTEX
  8
0
 10
340.404974
 20
252.317544
 42
-0.076120
  0
VERTEX
  8
0
 10
339.686969
 20
251.580757
 42
-0.066804
  0
VERTEX
  8
0
 10
338.750000
 20
251.053020
 42
0.083119
  0
VERTEX
  8
0
 10
335.265480
 20
248.938654
 42
0.058013
  0
VERTEX
  8
0
 10
332.146889
 20
245.548147
 42
0.048591
  0
VERTEX
  8
0
 10
329.424337
 20
240.908360
 42
0.030454
  0
VERTEX
  8
0
 10
327.130997
 20
235.041744
 42
0.023261
  0
VERTEX
  8
0
 10
326.703973
 20
233.469757
 42
0.047825
  0
VERTEX
  8
0
 10
326.547453
 20
232.205249
 42
0.065039
  0
VERTEX
  8
0
 10
326.646541
 20
231.240218
 42
0.139184
  0
VERTEX
  8
0
 10
327.008256
 20
230.591744
 42
-0.138070
  0
VERTEX
  8
0
 10
327.394659
 20
229.902556
 42
-0.020366
  0
VERTEX
  8
0
 10
327.708675
 20
228.319862
 42
-0.021679
  0
VERTEX
  8
0
 10
327.927398
 20
226.371359
 42
-0.017110
  0
VERTEX
  8
0
 10
328.000000
 20
224.250340
 42
0.040783
  0
VERTEX
  8
0
 10
328.360538
 20
219.837532
 42
0.071328
  0
VERTEX
  8
0
 10
329.461242
 20
216.346850
 42
0.068786
  0
VERTEX
  8
0
 10
331.531499
 20
213.222720
 42
0.035413
  0
VERTEX
  8
0
 10
334.882444
 20
209.924849
 42
0.015404
  0
VERTEX
  8
0
 10
341.220099
 20
204.843561
 42
0.058488
  0
VERTEX
  8
0
 10
345.596693
 20
202.290014
 42
0.073645
  0
VERTEX
  8
0
 10
349.909433
 20
201.122863
 42
0.034349
  0
VERTEX
  8
0
 10
355.707547
 20
200.840845
 42
-0.009984
  0
VERTEX
  8
0
 10
358.394507
 20
200.841122
 42
-0.139001
  0
VERTEX
  8
0
 10
359.312307
 20
200.561135
 42
-0.274239
  0
VERTEX
  8
0
 10
359.634308
 20
199.916335
 42
-0.043462
  0
VERTEX
  8
0
 10
359.400943
 20
198.461349
 42
-0.025290
  0
VERTEX
  8
0
 10
359.033659
 20
197.259017
 42
-0.009755
  0
VERTEX
  8
0
 10
358.408335
 20
195.630154
 42
-0.009629
  0
VERTEX
  8
0
 10
357.660384
 20
193.886996
 42
-0.011726
  0
VERTEX
  8
0
 10
356.891002
 20
192.286206
 42
0.014471
  0
VERTEX
  8
0
 10
356.167117
 20
190.758656
 42
0.015819
  0
VERTEX
  8
0
 10
355.555482
 20
189.236003
 42
0.015420
  0
VERTEX
  8
0
 10
355.115575
 20
187.906271
 42
0.072289
  0
VERTEX
  8
0
 10
355.000000
 20
187.111046
 42
-0.067874
  0
VERTEX
  8
0
 10
354.871904
 20
186.171757
 42
-0.005155
  0
VERTEX
  8
0
 10
354.158676
 20
183.704341
 42
-0.007022
  0
VERTEX
  8
0
 10
353.232879
 20
180.771262
 42
-0.005288
  0
VERTEX
  8
0
 10
352.135919
 20
177.572488
 42
0.002957
  0
VERTEX
  8
0
 10
350.945043
 20
174.151924
 42
0.002560
  0
VERTEX
  8
0
 10
349.735219
 20
170.549418
 42
0.002576
  0
VERTEX
  8
0
 10
348.672643
 20
167.274277
 42
0.007522
  0
VERTEX
  8
0
 10
347.985225
 20
165.000000
 42
-0.004182
  0
VERTEX
  8
0
 10
346.917717
 20
161.381127
 42
-0.001419
  0
VERTEX
  8
0
 10
345.306336
 20
156.135748
 42
-0.001263
  0
VERTEX
  8
0
 10
343.308471
 20
149.754408
 42
-0.000834
  0
VERTEX
  8
0
 10
340.981265
 20
142.429002
 42
0.012704
  0
VERTEX
  8
0
 10
340.605635
 20
141.141476
 42
0.012016
  0
VERTEX
  8
0
 10
340.288247
 20
139.812500
 42
0.012063
  0
VERTEX
  8
0
 10
340.064104
 20
138.623166
 42
0.040560
  0
VERTEX
  8
0
 10
340.000000
 20
137.834228
 42
-0.055582
  0
VERTEX
  8
0
 10
339.899783
 20
136.935488
 42
-0.007842
  0
VERTEX
  8
0
 10
339.460230
 20
135.121909
 42
-0.008863
  0
VERTEX
  8
0
 10
338.866034
 20
132.984818
 42
-0.007436
  0
VERTEX
  8
0
 10
338.162485
 20
130.740574
 42
0.029629
  0
VERTEX
  8
0
 10
337.122446
 20
126.821801
 42
0.096685
  0
VERTEX
  8
0
 10
337.102657
 20
124.150296
 42
0.182683
  0
VERTEX
  8
0
 10
338.040640
 20
122.609166
 42
0.168640
  0
VERTEX
  8
0
 10
339.799690
 20
122.009524
 42
0.136469
  0
VERTEX
  8
0
 10
340.857833
 20
122.310208
 42
0.007743
  0
VERTEX
  8
0
 10
343.758072
 20
124.143140
 42
0.011394
  0
VERTEX
  8
0
 10
347.167451
 20
126.485066
 42
0.008081
  0
VERTEX
  8
0
 10
350.887362
 20
129.259524
 42
0.010193
  0
VERTEX
  8
0
 10
357.206575
 20
134.342308
 42
0.072159
  0
VERTEX
  8
0
 10
359.822863
 20
137.271926
 42
0.069541
  0
VERTEX
  8
0
 10
361.540207
 20
140.863409
 42
0.009102
  0
VERTEX
  8
0
 10
363.959151
 20
149.000000
 42
-0.004637
  0
VERTEX
  8
0
 10
364.503087
 20
150.891303
 42
-0.004092
  0
VERTEX
  8
0
 10
365.104506
 20
152.852884
 42
-0.004113
  0
VERTEX
  8
0
 10
365.675652
 20
154.612178
 42
-0.012431
  0
VERTEX
  8
0
 10
366.104139
 20
155.797053
 42
0.028353
  0
VERTEX
  8
0
 10
366.447546
 20
156.850334
 42
0.017445
  0
VERTEX
  8
0
 10
366.736841
 20
158.122564
 42
0.017475
  0
VERTEX
  8
0
 10
366.935585
 20
159.404960
 42
0.029711
  0
VERTEX
  8
0
 10
367.000000
 20
160.488036
 42
-0.038348
  0
VERTEX
  8
0
 10
367.073865
 20
161.449700
 42
-0.041835
  0
VERTEX
  8
0
 10
367.293750
 20
162.360297
 42
-0.045919
  0
VERTEX
  8
0
 10
367.615588
 20
163.096085
 42
-0.128988
  0
VERTEX
  8
0
 10
368.000000
 20
163.500000
 42
0.132364
  0
VERTEX
  8
0
 10
368.384610
 20
163.909534
 42
0.044930
  0
VERTEX
  8
0
 10
368.706250
 20
164.668113
 42
0.040939
  0
VERTEX
  8
0
 10
368.926182
 20
165.609989
 42
0.036907
  0
VERTEX
  8
0
 10
369.000000
 20
166.608677
 42
-0.045541
  0
VERTEX
  8
0
 10
369.105975
 20
167.769778
 42
-0.022298
  0
VERTEX
  8
0
 10
369.440082
 20
169.218717
 42
-0.021914
  0
VERTEX
  8
0
 10
369.924423
 20
170.704939
 42
-0.029607
  0
VERTEX
  8
0
 10
370.498150
 20
171.996422
 42
0.015436
  0
VERTEX
  8
0
 10
371.092299
 20
173.237858
 42
0.013426
  0
VERTEX
  8
0
 10
371.638697
 20
174.572202
 42
0.013623
  0
VERTEX
  8
0
 10
372.067819
 20
175.806615
 42
0.038231
  0
VERTEX
  8
0
 10
372.277080
 20
176.696762
 42
-0.020196
  0
VERTEX
  8
0
 10
372.427802
 20
177.460460
 42
-0.016467
  0
VERTEX
  8
0
 10
372.648622
 20
178.264049
 42
-0.016779
  0
VERTEX
  8
0
 10
372.901420
 20
178.991028
 42
-0.041183
  0
VERTEX
  8
0
 10
373.147616
 20
179.500000
 42
0.038653
  0
VERTEX
  8
0
 10
373.447905
 20
180.112882
 42
0.005929
  0
VERTEX
  8
0
 10
373.934700
 20
181.381250
 42
0.006595
  0
VERTEX
  8
0
 10
374.472662
 20
182.895235
 42
0.005680
  0
VERTEX
  8
0
 10
374.998886
 20
184.500000
 42
-0.014268
  0
VERTEX
  8
0
 10
375.680123
 20
186.462974
 42
-0.005495
  0
VERTEX
  8
0
 10
376.732834
 20
189.148688
 42
-0.005436
  0
VERTEX
  8
0
 10
377.938987
 20
192.038303
 42
-0.006675
  0
VERTEX
  8
0
 10
379.130200
 20
194.708299
 42
0.006562
  0
VERTEX
  8
0
 10
380.229381
 20
197.170518
 42
0.008795
  0
VERTEX
  8
0
 10
381.156996
 20
199.432595
 42
0.006456
  0
VERTEX
  8
0
 10
381.871993
 20
201.339898
 42
0.086653
  0
VERTEX
  8
0
 10
382.000000
 20
202.072971
 42
-0.087063
  0
VERTEX
  8
0
 10
382.121275
 20
202.764171
 42
-0.009883
  0
VERTEX
  8
0
 10
382.693187
 20
204.251287
 42
-0.011717
  0
VERTEX
  8
0
 10
383.456145
 20
206.005074
 42
-0.009280
  0
VERTEX
  8
0
 10
384.359787
 20
207.864672
 42
0.010824
  0
VERTEX
  8
0
 10
385.406012
 20
210.034709
 42
0.005811
  0
VERTEX
  8
0
 10
386.607269
 20
212.753997
 42
0.005783
  0
VERTEX
  8
0
 10
387.768587
 20
215.556968
 42
0.009018
  0
VERTEX
  8
0
 10
388.697045
 20
218.000000
 42
-0.000393
  0
VERTEX
  8
0
 10
389.548406
 20
220.362084
 42
-0.000312
  0
VERTEX
  8
0
 10
390.471710
 20
222.912500
 42
-0.000315
  0
VERTEX
  8
0
 10
391.330837
 20
225.276379
 42
-0.000789
  0
VERTEX
  8
0
 10
391.961583
 20
227.000000
 42
0.002045
  0
VERTEX
  8
0
 10
395.064325
 20
235.545211
 42
0.025837
  0
VERTEX
  8
0
 10
396.052193
 20
238.825175
 42
0.075136
  0
VERTEX
  8
0
 10
396.231107
 20
240.788265
 42
0.107500
  0
VERTEX
  8
0
 10
395.760807
 20
242.466146
 42
0.036626
  0
VERTEX
  8
0
 10
395.210061
 20
243.343276
 42
0.022116
  0
VERTEX
  8
0
 10
394.439803
 20
244.299455
 42
0.022094
  0
VERTEX
  8
0
 10
393.585835
 20
245.186277
 42
0.035793
  0
VERTEX
  8
0
 10
392.777850
 20
245.851147
 42
-0.024797
  0
VERTEX
  8
0
 10
391.678637
 20
246.715867
 42
-0.200348
  0
VERTEX
  8
0
 10
391.400097
 20
247.279211
 42
-0.181904
  0
VERTEX
  8
0
 10
391.591003
 20
247.904894
 42
-0.019889
  0
VERTEX
  8
0
 10
392.571839
 20
249.079381
 42
0.052413
  0
VERTEX
  8
0
 10
393.458199
 20
250.292923
 42
0.184564
  0
VERTEX
  8
0
 10
393.610525
 20
251.230377
 42
0.101349
  0
VERTEX
  8
0
 10
393.122820
 20
252.365043
 42
0.010499
  0
VERTEX
  8
0
 10
391.403571
 20
254.728235
 42
0.055948
  0
VERTEX
  8
0
 10
384.370543
 20
262.102336
 42
0.087506
  0
VERTEX
  8
0
 10
376.791595
 20
266.469174
 42
0.090581
  0
VERTEX
  8
0
 10
368.372606
 20
267.892552
 42
0.064024
  0
SEQEND
  0
POLYLINE
  8
0
 66
1
 70
1
  0
VERTEX
  8
0
 10
375.750000
 20
246.485544
 42
-0.020695
  0
VERTEX
  8
0
 10
378.299281
 20
245.339643
 42
-0.086474
  0
VERTEX
  8
0
 10
379.647446
 20
244.343524
 42
-0.269582
  0
VERTEX
  8
0
 10
379.844669
 20
243.520843
 42
-0.220640
  0
VERTEX
  8
0
 10
379.234738
 20
242.833333
 42
0.132647
  0
VERTEX
  8
0
 10
378.769412
 20
242.461216
 42
0.002389
  0
VERTEX
  8
0
 10
376.884234
 20
239.863176
 42
0.005769
  0
VERTEX
  8
0
 10
374.724487
 20
236.782229
 42
0.003797
  0
VERTEX
  8
0
 10
372.307643
 20
233.190245
 42
-0.024861
  0
VERTEX
  8
0
 10
365.672791
 20
224.173690
 42
-0.055665
  0
VERTEX
  8
0
 10
359.608050
 20
218.228018
 42
-0.068688
  0
VERTEX
  8
0
 10
353.266645
 20
214.537059
 42
-0.060539
  0
VERTEX
  8
0
 10
345.884575
 20
212.501804
 42
-0.016471
  0
VERTEX
  8
0
 10
343.100743
 20
212.179823
 42
-0.099532
  0
VERTEX
  8
0
 10
341.663830
 20
212.347547
 42
-0.127266
  0
VERTEX
  8
0
 10
340.573486
 20
213.043014
 42
-0.033852
  0
VERTEX
  8
0
 10
339.262822
 20
214.656637
 42
-0.026190
  0
VERTEX
  8
0
 10
336.902026
 20
218.404505
 42
-0.015280
  0
VERTEX
  8
0
 10
334.452751
 20
223.118425
 42
-0.006778
  0
VERTEX
  8
0
 10
332.276282
 20
227.801205
 42
-0.311233
  0
VERTEX
  8
0
 10
332.458537
 20
228.791870
 42
-0.083399
  0
VERTEX
  8
0
 10
332.804753
 20
229.038507
 42
-0.025608
  0
VERTEX
  8
0
 10
333.397454
 20
229.290053
 42
-0.024837
  0
VERTEX
  8
0
 10
334.100795
 20
229.508007
 42
-0.024854
  0
VERTEX
  8
0
 10
334.822122
 20
229.655083
 42
0.088216
  0
VERTEX
  8
0
 10
339.560883
 20
231.264571
 42
0.057149
  0
VERTEX
  8
0
 10
344.293089
 20
234.625588
 42
0.057908
  0
VERTEX
  8
0
 10
348.061642
 20
238.893268
 42
0.101835
  0
VERTEX
  8
0
 10
349.907625
 20
243.202722
 42
-0.050216
  0
VERTEX
  8
0
 10
350.402248
 20
244.789955
 42
-0.086069
  0
VERTEX
  8
0
 10
351.153278
 20
245.951030
 42
-0.079013
  0
VERTEX
  8
0
 10
352.300404
 20
246.854689
 42
-0.036621
  0
VERTEX
  8
0
 10
354.024430
 20
247.658601
 42
-0.077284
  0
VERTEX
  8
0
 10
358.247281
 20
248.553611
 42
-0.027140
  0
VERTEX
  8
0
 10
364.463292
 20
248.555634
 42
-0.027555
  0
VERTEX
  8
0
 10
370.843394
 20
247.857196
 42
-0.054284
  0
SEQEND
  0
ENDSEC
  0
EOF
