  0
SECTION
  2
HEADER
  9
$ACADVER
  1
AC1006
  9
$EXTMIN
 10
0.000000
 20
0.000000
 30
0.000000
  9
$EXTMAX
 10
825.000000
 20
413.000000
 30
0.000000
  0
ENDSEC
  0
SECTION
  2
ENTITIES
  0
POLYLINE
  8
0
 66
1
 70
1
  0
VERTEX
  8
0
 10
302.500000
 20
277.853558
 42
0.013805
  0
VERTEX
  8
0
 10
300.124432
 20
277.346961
 42
0.006353
  0
VERTEX
  8
0
 10
297.059375
 20
276.562954
 42
0.006286
  0
VERTEX
  8
0
 10
293.854028
 20
275.656156
 42
0.008659
  0
VERTEX
  8
0
 10
291.000000
 20
274.755801
 42
-0.001093
  0
VERTEX
  8
0
 10
288.472888
 20
273.916328
 42
-0.001638
  0
VERTEX
  8
0
 10
286.262500
 20
273.195448
 42
-0.000661
  0
VERTEX
  8
0
 10
284.364233
 20
272.586006
 42
-0.036428
  0
VERTEX
  8
0
 10
284.000000
 20
272.498218
 42
0.070038
  0
VERTEX
  8
0
 10
282.101453
 20
271.903565
 42
0.006980
  0
VERTEX
  8
0
 10
277.817055
 20
269.795022
 42
0.008695
  0
VERTEX
  8
0
 10
273.612090
 20
267.559208
 42
0.040131
  0
VERTEX
  8
0
 10
271.317648
 20
266.035222
 42
-0.028786
  0
VERTEX
  8
0
 10
270.200705
 20
265.256295
 42
-0.027509
  0
VERTEX
  8
0
 10
268.985046
 20
264.597846
 42
-0.028607
  0
VERTEX
  8
0
 10
267.848262
 20
264.138257
 42
-0.081932
  0
VERTEX
  8
0
 10
267.010199
 20
264.000000
 42
0.183830
  0
VERTEX
  8
0
 10
265.337711
 20
263.363588
 42
0.008421
  0
VERTEX
  8
0
 10
260.764746
 20
259.154045
 42
0.012016
  0
VERTEX
  8
0
 10
256.467050
 20
254.860506
 42
0.091631
  0
VERTEX
  8
0
 10
254.909504
 20
252.478513
 42
-0.143798
  0
VERTEX
  8
0
 10
253.721867
 20
251.015822
 42
-0.015197
  0
VERTEX
  8
0
 10
249.987437
 20
248.607501
 42
-0.019706
  0
VERTEX
  8
0
 10
245.985688
 20
246.405825
 42
-0.052554
  0
VERTEX
  8
0
 10
242.938598
 20
245.263895
 42
0.064031
  0
VERTEX
  8
0
 10
239.671852
 20
243.953667
 42
0.242019
  0
VERTEX
  8
0
 10
238.489790
 20
242.175037
 42
0.151113
  0
VERTEX
  8
0
 10
238.994592
 20
239.525938
 42
0.022963
  0
VERTEX
  8
0
 10
241.769292
 20
234.835269
 42
0.003474
  0
VERTEX
  8
0
 10
247.333403
 20
226.471632
 42
0.081929
  0
VERTEX
  8
0
 10
249.276803
 20
224.416567
 42
0.375062
  0
VERTEX
  8
0
 10
250.732637
 20
224.515462
 42
0.077170
  0
VERTEX
  8
0
 10
252.381468
 20
226.770785
 42
-0.046818
  0
VERTEX
  8
0
 10
254.078630
 20
229.413840
 42
-0.026253
  0
VERTEX
  8
0
 10
256.589226
 20
232.294426
 42
-0.023660
  0
VERTEX
  8
0
 10
259.741181
 20
235.255102
 42
-0.018866
  0
VERTEX
  8
0
 10
263.400038
 20
238.148357
 42
-0.029417
  0
VERTEX
  8
0
 10
265.728435
 20
239.649116
 42
-0.060178
  0
VERTEX
  8
0
 10
267.732055
 20
240.480933
 42
-0.051599
  0
VERTEX
  8
0
 10
270.068178
 20
240.882394
 42
-0.016772
  0
VERTEX
  8
0
 10
273.573313
 20
241.000000
 42
-0.015171
  0
VERTEX
  8
0
 10
276.991394
 20
240.896262
 42
-0.050141
  0
VERTEX
  8
0
 10
279.212482
 20
240.535820
 42
-0.066296
  0
VERTEX
  8
0
 10
280.969274
 20
239.806535
 42
-0.043436
  0
VERTEX
  8
0
 10
282.765138
 20
238.544170
 42
-0.072755
  0
VERTEX
  8
0
 10
284.543877
 20
236.540640
 42
-0.103127
  0
VERTEX
  8
0
 10
285.414934
 20
234.329383
 42
-0.084822
  0
VERTEX
  8
0
 10
285.416249
 20
231.633712
 42
-0.036099
  0
VERTEX
  8
0
 10
284.552154
 20
228.116686
 42
-0.066055
  0
VERTEX
  8
0
 10
282.098193
 20
222.971113
 42
-0.004163
  0
VERTEX
  8
0
 10
272.809488
 20
208.954544
 42
-0.005946
  0
VERTEX
  8
0
 10
263.405703
 20
195.368987
 42
-0.031964
  0
VERTEX
  8
0
 10
257.743802
 20
188.385485
 42
0.028873
  0
VERTEX
  8
0
 10
253.233391
 20
182.891958
 42
0.006657
  0
VERTEX
  8
0
 10
246.304139
 20
173.111548
 42
0.007162
  0
VERTEX
  8
0
 10
239.497888
 20
162.918898
 42
0.018942
  0
VERTEX
  8
0
 10
235.015640
 20
155.382659
 42
0.023780
  0
VERTEX
  8
0
 10
232.139048
 20
149.444760
 42
0.302227
  0
VERTEX
  8
0
 10
232.569460
 20
147.124569
 42
0.205695
  0
VERTEX
  8
0
 10
235.137572
 20
146.054963
 42
0.012102
  0
VERTEX
  8
0
 10
243.772181
 20
146.359799
 42
0.002432
  0
VERTEX
  8
0
 10
248.099388
 20
146.638665
 42
0.002789
  0
VERTEX
  8
0
 10
252.229953
 20
146.948199
 42
0.002512
  0
VERTEX
  8
0
 10
255.729629
 20
147.247802
 42
0.015985
  0
VERTEX
  8
0
 10
257.500000
 20
147.465570
 42
-0.004185
  0
VERTEX
  8
0
 10
264.535779
 20
148.500079
 42
-0.004065
  0
VERTEX
  8
0
 10
271.656540
 20
149.427339
 42
-0.004263
  0
VERTEX
  8
0
 10
278.176461
 20
150.166157
 42
-0.008748
  0
VERTEX
  8
0
 10
283.297784
 20
150.611885
 42
0.003804
  0
VERTEX
  8
0
 10
286.310023
 20
150.844065
 42
0.002552
  0
VERTEX
  8
0
 10
289.749619
 20
151.153214
 42
0.002570
  0
VERTEX
  8
0
 10
293.077484
 20
151.486725
 42
0.005076
  0
VERTEX
  8
0
 10
295.715651
 20
151.791931
 42
0.010941
  0
VERTEX
  8
0
 10
298.993576
 20
152.277987
 42
0.084069
  0
VERTEX
  8
0
 10
300.455035
 20
152.789756
 42
0.169327
  0
VERTEX
  8
0
 10
301.187174
 20
153.606633
 42
0.080683
  0
VERTEX
  8
0
 10
301.518933
 20
154.996844
 42
0.081568
  0
VERTEX
  8
0
 10
301.218362
 20
158.344941
 42
0.022274
  0
VERTEX
  8
0
 10
299.661295
 20
163.435260
 42
0.016935
  0
VERTEX
  8
0
 10
297.730005
 20
168.337943
 42
0.201477
  0
VERTEX
  8
0
 10
296.287828
 20
169.719792
 42
0.097048
  0
VERTEX
  8
0
 10
295.358490
 20
169.882111
 42
0.011938
  0
VERTEX
  8
0
 10
293.289740
 20
169.790097
 42
0.013753
  0
VERTEX
  8
0
 10
290.812061
 20
169.551934
 42
0.010965
  0
VERTEX
  8
0
 10
288.155477
 20
169.163294
 42
-0.001685
  0
VERTEX
  8
0
 10
285.277970
 20
168.687632
 42
-0.001295
  0
VERTEX
  8
0
 10
282.133171
 20
168.187024
 42
-0.001309
  0
VERTEX
  8
0
 10
279.190041
 20
167.734226
 42
-0.003119
  0
VERTEX
  8
0
 10
277.000000
 20
167.417118
 42
0.000049
  0
VERTEX
  8
0
 10
274.900568
 20
167.126279
 42
0.000025
  0
VERTEX
  8
0
 10
272.279504
 20
166.762783
 42
0.000025
  0
VERTEX
  8
0
 10
269.587300
 20
166.389146
 42
0.000038
  0
VERTEX
  8
0
 10
267.249374
 20
166.064377
 42
-0.009467
  0
VERTEX
  8
0
 10
265.202873
 20
165.819330
 42
-0.014027
  0
VERTEX
  8
0
 10
263.401045
 20
165.689036
 42
-0.009108
  0
VERTEX
  8
0
 10
261.914695
 20
165.650503
 42
-0.200915
  0
VERTEX
  8
0
 10
261.521898
 20
165.811436
 42
-0.388601
  0
VERTEX
  8
0
 10
261.504996
 20
166.194316
 42
-0.001957
  0
VERTEX
  8
0
 10
264.189443
 20
169.374418
 42
-0.006993
  0
VERTEX
  8
0
 10
267.385205
 20
173.025605
 42
-0.004208
  0
VERTEX
  8
0
 10
271.272524
 20
177.271118
 42
0.009957
  0
VERTEX
  8
0
 10
287.101184
 20
194.962447
 42
0.025950
  0
VERTEX
  8
0
 10
297.542374
 20
208.469138
 42
0.036239
  0
VERTEX
  8
0
 10
303.940505
 20
219.295737
 42
0.086291
  0
VERTEX
  8
0
 10
306.596489
 20
228.223842
 42
0.081513
  0
VERTEX
  8
0
 10
306.307914
 20
234.537715
 42
0.072718
  0
VERTEX
  8
0
 10
304.033086
 20
240.702167
 42
0.069120
  0
VERTEX
  8
0
 10
299.951006
 20
246.222514
 42
0.062290
  0
VERTEX
  8
0
 10
294.383964
 20
250.647867
 42
-0.028464
  0
VERTEX
  8
0
 10
293.344764
 20
251.365141
 42
-0.352699
  0
VERTEX
  8
0
 10
293.241960
 20
251.801064
 42
-0.179782
  0
VERTEX
  8
0
 10
293.674899
 20
252.219592
 42
-0.009278
  0
VERTEX
  8
0
 10
295.500000
 20
252.978689
 42
-0.031000
  0
VERTEX
  8
0
 10
297.271078
 20
253.553088
 42
-0.005329
  0
VERTEX
  8
0
 10
300.703125
 20
254.396537
 42
-0.005786
  0
VERTEX
  8
0
 10
304.760060
 20
255.298431
 42
-0.005140
  0
VERTEX
  8
0
 10
309.000000
 20
256.144236
 42
0.001407
  0
VERTEX
  8
0
 10
313.239969
 20
256.957188
 42
0.001601
  0
VERTEX
  8
0
 10
317.296875
 20
257.760376
 42
0.001451
  0
VERTEX
  8
0
 10
320.738184
 20
258.463545
 42
0.008960
  0
VERTEX
  8
0
 10
322.500000
 20
258.861922
 42
0.000000
  0
VERTEX
  8
0
 10
325.500000
 20
259.597015
 42
0.000000
  0
VERTEX
  8
0
 10
322.800948
 20
261.380135
 42
0.062636
  0
VERTEX
  8
0
 10
319.077093
 20
263.219160
 42
0.026955
  0
VERTEX
  8
0
 10
313.743416
 20
264.751209
 42
0.025377
  0
VERTEX
  8
0
 10
307.624634
 20
265.833506
 42
0.024981
  0
VERTEX
  8
0
 10
301.395383
 20
266.297670
 42
-0.007205
  0
VERTEX
  8
0
 10
298.559825
 20
266.407844
 42
-0.011934
  0
VERTEX
  8
0
 10
296.172394
 20
266.592310
 42
-0.005594
  0
VERTEX
  8
0
 10
294.206072
 20
266.813796
 42
-0.378528
  0
VERTEX
  8
0
 10
294.000000
 20
267.046996
 42
-0.308708
  0
VERTEX
  8
0
 10
294.203907
 20
267.345781
 42
-0.001858
  0
VERTEX
  8
0
 10
297.451563
 20
268.603089
 42
-0.006643
  0
VERTEX
  8
0
 10
301.245151
 20
269.998065
 42
-0.004076
  0
VERTEX
  8
0
 10
305.750000
 20
271.545793
 42
0.003304
  0
VERTEX
  8
0
 10
314.328854
 20
274.478414
 42
0.037738
  0
VERTEX
  8
0
 10
317.603496
 20
275.907276
 42
0.217242
  0
VERTEX
  8
0
 10
318.423889
 20
276.972936
 42
0.319023
  0
VERTEX
  8
0
 10
317.991641
 20
278.026328
 42
0.121093
  0
VERTEX
  8
0
 10
315.975933
 20
278.700499
 42
0.023230
  0
VERTEX
  8
0
 10
312.093244
 20
278.837613
 42
0.023443
  0
VERTEX
  8
0
 10
307.427499
 20
278.566562
 42
0.019401
  0
SEQEND
  0
ENDSEC
  0
EOF
