  0
SECTION
  2
HEADER
  9
$ACADVER
  1
AC1006
  9
$EXTMIN
 10
0.000000
 20
0.000000
 30
0.000000
  9
$EXTMAX
 10
825.000000
 20
413.000000
 30
0.000000
  0
ENDSEC
  0
SECTION
  2
ENTITIES
  0
POLYLINE
  8
0
 66
1
 70
1
  0
VERTEX
  8
0
 10
432.231923
 20
236.216649
 42
0.016790
  0
VERTEX
  8
0
 10
430.994318
 20
234.980183
 42
0.021714
  0
VERTEX
  8
0
 10
429.949377
 20
233.761662
 42
0.020126
  0
VERTEX
  8
0
 10
429.179550
 20
232.695089
 42
0.147288
  0
VERTEX
  8
0
 10
429.000000
 20
232.098790
 42
-0.203235
  0
VERTEX
  8
0
 10
428.658426
 20
231.293158
 42
-0.347993
  0
VERTEX
  8
0
 10
427.971245
 20
231.224900
 42
-0.086723
  0
VERTEX
  8
0
 10
426.799653
 20
232.302814
 42
-0.019802
  0
VERTEX
  8
0
 10
425.240807
 20
234.512379
 42
0.032509
  0
VERTEX
  8
0
 10
424.247926
 20
235.846464
 42
0.037582
  0
VERTEX
  8
0
 10
423.133890
 20
236.972755
 42
0.040878
  0
VERTEX
  8
0
 10
422.063408
 20
237.759884
 42
0.140338
  0
VERTEX
  8
0
 10
421.240807
 20
237.990616
 42
0.115954
  0
VERTEX
  8
0
 10
418.691673
 20
237.376875
 42
0.018198
  0
VERTEX
  8
0
 10
414.135531
 20
234.866874
 42
0.019805
  0
VERTEX
  8
0
 10
409.755312
 20
231.999999
 42
0.085367
  0
VERTEX
  8
0
 10
407.570896
 20
229.797756
 42
0.049067
  0
VERTEX
  8
0
 10
406.968838
 20
228.728849
 42
0.029540
  0
VERTEX
  8
0
 10
406.461451
 20
227.363652
 42
0.029390
  0
VERTEX
  8
0
 10
406.114298
 20
225.932746
 42
0.044842
  0
VERTEX
  8
0
 10
406.000000
 20
224.660862
 42
-0.023851
  0
VERTEX
  8
0
 10
405.924752
 20
223.084273
 42
-0.164666
  0
VERTEX
  8
0
 10
405.612101
 20
222.387507
 42
-0.225525
  0
VERTEX
  8
0
 10
405.000986
 20
222.144144
 42
-0.047819
  0
VERTEX
  8
0
 10
403.838327
 20
222.332028
 42
0.114056
  0
VERTEX
  8
0
 10
401.454229
 20
222.400347
 42
0.125168
  0
VERTEX
  8
0
 10
399.372869
 20
221.401287
 42
0.079378
  0
VERTEX
  8
0
 10
397.356301
 20
219.082538
 42
0.024210
  0
VERTEX
  8
0
 10
395.083184
 20
215.008948
 42
0.000000
  0
VERTEX
  8
0
 10
392.138127
 20
209.073149
 42
0.000000
  0
VERTEX
  8
0
 10
393.987490
 20
205.286574
 42
0.000000
  0
VERTEX
  8
0
 10
395.836853
 20
201.500000
 42
0.000000
  0
VERTEX
  8
0
 10
391.668427
 20
200.974059
 42
0.024213
  0
VERTEX
  8
0
 10
388.008906
 20
200.331075
 42
0.123747
  0
VERTEX
  8
0
 10
386.181353
 20
199.405991
 42
0.164010
  0
VERTEX
  8
0
 10
385.280155
 20
197.870860
 42
0.051853
  0
VERTEX
  8
0
 10
385.005577
 20
195.190983
 42
0.042205
  0
VERTEX
  8
0
 10
385.469102
 20
189.806329
 42
0.082592
  0
VERTEX
  8
0
 10
386.880766
 20
185.751776
 42
0.085052
  0
VERTEX
  8
0
 10
389.495521
 20
182.448298
 42
0.047043
  0
VERTEX
  8
0
 10
393.641668
 20
179.377149
 42
-0.059718
  0
VERTEX
  8
0
 10
394.553206
 20
178.665580
 42
-0.333912
  0
VERTEX
  8
0
 10
394.636751
 20
178.090004
 42
-0.125544
  0
VERTEX
  8
0
 10
394.019470
 20
177.427635
 42
-0.008772
  0
VERTEX
  8
0
 10
391.839304
 20
176.081064
 42
0.019654
  0
VERTEX
  8
0
 10
390.399016
 20
175.147582
 42
0.022302
  0
VERTEX
  8
0
 10
389.098104
 20
174.140119
 42
0.022213
  0
VERTEX
  8
0
 10
388.079834
 20
173.195363
 42
0.103367
  0
VERTEX
  8
0
 10
387.648108
 20
172.525368
 42
0.212553
  0
VERTEX
  8
0
 10
387.696542
 20
171.603032
 42
0.009431
  0
VERTEX
  8
0
 10
389.238981
 20
168.712633
 42
0.014514
  0
VERTEX
  8
0
 10
391.283276
 20
165.287382
 42
0.009722
  0
VERTEX
  8
0
 10
393.808804
 20
161.487175
 42
0.000000
  0
VERTEX
  8
0
 10
400.500000
 20
151.831444
 42
0.000000
  0
VERTEX
  8
0
 10
407.750000
 20
152.338607
 42
-0.005879
  0
VERTEX
  8
0
 10
411.989712
 20
152.585137
 42
-0.055354
  0
VERTEX
  8
0
 10
413.807224
 20
152.468164
 42
-0.174798
  0
VERTEX
  8
0
 10
414.662331
 20
151.977464
 42
-0.177770
  0
VERTEX
  8
0
 10
415.000000
 20
151.057744
 42
0.127169
  0
VERTEX
  8
0
 10
415.592257
 20
148.766775
 42
0.067026
  0
VERTEX
  8
0
 10
417.358349
 20
146.393796
 42
0.065074
  0
VERTEX
  8
0
 10
419.771993
 20
144.492681
 42
0.097217
  0
VERTEX
  8
0
 10
422.293331
 20
143.591201
 42
0.004171
  0
VERTEX
  8
0
 10
429.288523
 20
142.596797
 42
0.053946
  0
VERTEX
  8
0
 10
431.918864
 20
142.530813
 42
0.131461
  0
VERTEX
  8
0
 10
433.599778
 20
143.133236
 42
0.064197
  0
VERTEX
  8
0
 10
435.303701
 20
144.669714
 42
-0.001956
  0
VERTEX
  8
0
 10
440.926589
 20
151.175651
 42
-0.063893
  0
VERTEX
  8
0
 10
442.478965
 20
152.555290
 42
-0.204497
  0
VERTEX
  8
0
 10
443.863200
 20
152.829419
 42
-0.046580
  0
VERTEX
  8
0
 10
446.196613
 20
152.105009
 42
0.040995
  0
VERTEX
  8
0
 10
449.555183
 20
151.021143
 42
0.099845
  0
VERTEX
  8
0
 10
452.143698
 20
150.940377
 42
0.106668
  0
VERTEX
  8
0
 10
454.455237
 20
151.864630
 42
0.051008
  0
VERTEX
  8
0
 10
456.924376
 20
153.922637
 42
0.019846
  0
VERTEX
  8
0
 10
460.440161
 20
157.817037
 42
0.076707
  0
VERTEX
  8
0
 10
462.113510
 20
160.598833
 42
0.091287
  0
VERTEX
  8
0
 10
462.720513
 20
163.498346
 42
0.035158
  0
VERTEX
  8
0
 10
462.530708
 20
167.622474
 42
-0.025126
  0
VERTEX
  8
0
 10
462.259794
 20
171.719012
 42
-0.158636
  0
VERTEX
  8
0
 10
462.867617
 20
173.691927
 42
-0.198121
  0
VERTEX
  8
0
 10
464.437196
 20
174.689395
 42
-0.042570
  0
VERTEX
  8
0
 10
467.714816
 20
174.984687
 42
0.100156
  0
VERTEX
  8
0
 10
470.236482
 20
175.507441
 42
0.165235
  0
VERTEX
  8
0
 10
471.839678
 20
176.946699
 42
0.087062
  0
VERTEX
  8
0
 10
472.849741
 20
179.820070
 42
0.015564
  0
VERTEX
  8
0
 10
473.607981
 20
185.477897
 42
0.000000
  0
VERTEX
  8
0
 10
474.301508
 20
192.247123
 42
0.000000
  0
VERTEX
  8
0
 10
470.428330
 20
195.498852
 42
0.000000
  0
VERTEX
  8
0
 10
466.555151
 20
198.750582
 42
0.000000
  0
VERTEX
  8
0
 10
469.277576
 20
202.679042
 42
0.017870
  0
VERTEX
  8
0
 10
470.319731
 20
204.303956
 42
0.020103
  0
VERTEX
  8
0
 10
471.200288
 20
205.937716
 42
0.019816
  0
VERTEX
  8
0
 10
471.833107
 20
207.375923
 42
0.093996
  0
VERTEX
  8
0
 10
472.000000
 20
208.255840
 42
0.115710
  0
VERTEX
  8
0
 10
471.771802
 20
209.228716
 42
0.011950
  0
VERTEX
  8
0
 10
470.666809
 20
211.327126
 42
0.014365
  0
VERTEX
  8
0
 10
469.199585
 20
213.789792
 42
0.011011
  0
VERTEX
  8
0
 10
467.461479
 20
216.396593
 42
0.010216
  0
VERTEX
  8
0
 10
464.613031
 20
220.299058
 42
0.066012
  0
VERTEX
  8
0
 10
462.897427
 20
222.023663
 42
0.096749
  0
VERTEX
  8
0
 10
461.076182
 20
222.933460
 42
0.034371
  0
VERTEX
  8
0
 10
458.211479
 20
223.519153
 42
-0.012915
  0
VERTEX
  8
0
 10
453.707921
 20
224.240331
 42
-0.125860
  0
VERTEX
  8
0
 10
451.972252
 20
225.046914
 42
-0.150162
  0
VERTEX
  8
0
 10
450.979994
 20
226.537645
 42
-0.020786
  0
VERTEX
  8
0
 10
450.057599
 20
230.186338
 42
0.009107
  0
VERTEX
  8
0
 10
449.571282
 20
232.318382
 42
0.010521
  0
VERTEX
  8
0
 10
449.028450
 20
234.330419
 42
0.009665
  0
VERTEX
  8
0
 10
448.501485
 20
236.010775
 42
0.059005
  0
VERTEX
  8
0
 10
448.113720
 20
236.832112
 42
0.160935
  0
VERTEX
  8
0
 10
447.443638
 20
237.388199
 42
0.025825
  0
VERTEX
  8
0
 10
445.809140
 20
237.933346
 42
0.025951
  0
VERTEX
  8
0
 10
443.723448
 20
238.396234
 42
0.019021
  0
VERTEX
  8
0
 10
441.372159
 20
238.699970
 42
0.013546
  0
VERTEX
  8
0
 10
437.775802
 20
238.928064
 42
0.075527
  0
VERTEX
  8
0
 10
435.861274
 20
238.707849
 42
0.094469
  0
VERTEX
  8
0
 10
434.299006
 20
237.946110
 42
0.027335
  0
SEQEND
  0
POLYLINE
  8
0
 66
1
 70
1
  0
VERTEX
  8
0
 10
439.474315
 20
207.446285
 42
-0.114250
  0
VERTEX
  8
0
 10
446.007348
 20
202.749748
 42
-0.103582
  0
VERTEX
  8
0
 10
450.097014
 20
195.499173
 42
-0.106593
  0
VERTEX
  8
0
 10
450.867179
 20
187.395336
 42
-0.128013
  0
VERTEX
  8
0
 10
448.089860
 20
180.282745
 42
-0.064218
  0
VERTEX
  8
0
 10
444.820179
 20
176.809179
 42
-0.058742
  0
VERTEX
  8
0
 10
440.681329
 20
174.156213
 42
-0.056914
  0
VERTEX
  8
0
 10
435.909662
 20
172.473873
 42
-0.053378
  0
VERTEX
  8
0
 10
430.775947
 20
171.862145
 42
-0.152256
  0
VERTEX
  8
0
 10
417.779451
 20
175.743977
 42
-0.169445
  0
VERTEX
  8
0
 10
409.961079
 20
186.186872
 42
-0.185618
  0
VERTEX
  8
0
 10
410.701201
 20
198.485677
 42
-0.176648
  0
VERTEX
  8
0
 10
419.500000
 20
207.436158
 42
-0.010969
  0
VERTEX
  8
0
 10
420.795131
 20
208.018136
 42
-0.008926
  0
VERTEX
  8
0
 10
422.206250
 20
208.585903
 42
-0.009040
  0
VERTEX
  8
0
 10
423.525198
 20
209.062285
 42
-0.023152
  0
VERTEX
  8
0
 10
424.500000
 20
209.344946
 42
-0.070648
  0
VERTEX
  8
0
 10
427.310671
 20
209.612396
 42
-0.019985
  0
VERTEX
  8
0
 10
431.701583
 20
209.233149
 42
-0.020837
  0
VERTEX
  8
0
 10
436.181436
 20
208.474345
 42
-0.046614
  0
SEQEND
  0
ENDSEC
  0
EOF
