  0
SECTION
  2
HEADER
  9
$ACADVER
  1
AC1006
  9
$EXTMIN
 10
0.000000
 20
0.000000
 30
0.000000
  9
$EXTMAX
 10
975.000000
 20
696.000000
 30
0.000000
  0
ENDSEC
  0
SECTION
  2
ENTITIES
  0
POLYLINE
  8
0
 66
1
 70
1
  0
VERTEX
  8
0
 10
406.555445
 20
664.870297
 42
0.007098
  0
VERTEX
  8
0
 10
403.077051
 20
664.486181
 42
0.010408
  0
VERTEX
  8
0
 10
400.031218
 20
664.041429
 42
0.006126
  0
VERTEX
  8
0
 10
397.505047
 20
663.586799
 42
0.158691
  0
VERTEX
  8
0
 10
396.905750
 20
663.255445
 42
0.157932
  0
VERTEX
  8
0
 10
395.604259
 20
660.474275
 42
0.000432
  0
VERTEX
  8
0
 10
390.411690
 20
618.660857
 42
0.000569
  0
VERTEX
  8
0
 10
385.356680
 20
577.277756
 42
0.114794
  0
VERTEX
  8
0
 10
385.800338
 20
573.192529
 42
0.112499
  0
VERTEX
  8
0
 10
386.086637
 20
572.736707
 42
0.103324
  0
VERTEX
  8
0
 10
386.550366
 20
572.432885
 42
0.097369
  0
VERTEX
  8
0
 10
387.121411
 20
572.328997
 42
0.088288
  0
VERTEX
  8
0
 10
387.710830
 20
572.442529
 42
-0.064224
  0
VERTEX
  8
0
 10
388.611439
 20
572.661144
 42
-0.008711
  0
VERTEX
  8
0
 10
390.548743
 20
572.840741
 42
-0.009917
  0
VERTEX
  8
0
 10
392.863633
 20
572.968617
 42
-0.008217
  0
VERTEX
  8
0
 10
395.331787
 20
573.015313
 42
0.012568
  0
VERTEX
  8
0
 10
397.791502
 20
573.083260
 42
0.015434
  0
VERTEX
  8
0
 10
400.080946
 20
573.275144
 42
0.013917
  0
VERTEX
  8
0
 10
401.976015
 20
573.546675
 42
0.099021
  0
VERTEX
  8
0
 10
402.837391
 20
573.878340
 42
0.194330
  0
VERTEX
  8
0
 10
403.516786
 20
574.826025
 42
0.009714
  0
VERTEX
  8
0
 10
404.362059
 20
578.629621
 42
0.012476
  0
VERTEX
  8
0
 10
405.267683
 20
583.772708
 42
0.005257
  0
VERTEX
  8
0
 10
406.239023
 20
590.724048
 42
0.000000
  0
VERTEX
  8
0
 10
408.303264
 20
606.722041
 42
0.000000
  0
VERTEX
  8
0
 10
417.239190
 20
607.356331
 42
0.044487
  0
VERTEX
  8
0
 10
433.633298
 20
609.998262
 42
0.080488
  0
VERTEX
  8
0
 10
446.072753
 20
615.394801
 42
0.094428
  0
VERTEX
  8
0
 10
454.863010
 20
623.720266
 42
0.084091
  0
VERTEX
  8
0
 10
460.415702
 20
635.028093
 42
0.138543
  0
VERTEX
  8
0
 10
460.618506
 20
650.229371
 42
0.203450
  0
VERTEX
  8
0
 10
452.496953
 20
660.620438
 42
0.116186
  0
VERTEX
  8
0
 10
434.782565
 20
665.611375
 42
0.034784
  0
SEQEND
  0
POLYLINE
  8
0
 66
1
 70
1
  0
VERTEX
  8
0
 10
435.939080
 20
647.531503
 42
-0.109089
  0
VERTEX
  8
0
 10
439.983967
 20
644.161925
 42
-0.149740
  0
VERTEX
  8
0
 10
441.649094
 20
639.759996
 42
-0.133546
  0
VERTEX
  8
0
 10
440.636232
 20
634.792915
 42
-0.079259
  0
VERTEX
  8
0
 10
437.078075
 20
629.859807
 42
-0.055685
  0
VERTEX
  8
0
 10
433.731334
 20
627.172822
 42
-0.059402
  0
VERTEX
  8
0
 10
429.943695
 20
625.359200
 42
-0.044896
  0
VERTEX
  8
0
 10
425.004209
 20
624.160009
 42
-0.016885
  0
VERTEX
  8
0
 10
417.926694
 20
623.344858
 42
0.000000
  0
VERTEX
  8
0
 10
410.353388
 20
622.730817
 42
0.000000
  0
VERTEX
  8
0
 10
412.282670
 20
635.615408
 42
-0.007241
  0
VERTEX
  8
0
 10
413.104894
 20
640.611446
 42
-0.010790
  0
VERTEX
  8
0
 10
413.981282
 20
644.953213
 42
-0.006098
  0
VERTEX
  8
0
 10
414.833945
 20
648.547048
 42
-0.179210
  0
VERTEX
  8
0
 10
415.355976
 20
649.310424
 42
-0.166083
  0
VERTEX
  8
0
 10
417.767180
 20
650.022557
 42
-0.011058
  0
VERTEX
  8
0
 10
425.071545
 20
649.553729
 42
-0.014884
  0
VERTEX
  8
0
 10
432.259168
 20
648.716359
 42
-0.083066
  0
SEQEND
  0
POLYLINE
  8
0
 66
1
 70
1
  0
VERTEX
  8
0
 10
516.135776
 20
662.802553
 42
0.024259
  0
VERTEX
  8
0
 10
515.121720
 20
659.602954
 42
0.009025
  0
VERTEX
  8
0
 10
513.998152
 20
655.018797
 42
0.002768
  0
VERTEX
  8
0
 10
512.937180
 20
650.201325
 42
0.257545
  0
VERTEX
  8
0
 10
513.137310
 20
649.537698
 42
0.170280
  0
VERTEX
  8
0
 10
513.478507
 20
649.378551
 42
0.000620
  0
VERTEX
  8
0
 10
517.946585
 20
648.939831
 42
0.003149
  0
VERTEX
  8
0
 10
523.031771
 20
648.479192
 42
0.001961
  0
VERTEX
  8
0
 10
529.000000
 20
648.000000
 42
-0.001671
  0
VERTEX
  8
0
 10
534.964643
 20
647.524577
 42
-0.002698
  0
VERTEX
  8
0
 10
540.038035
 20
647.075549
 42
-0.000457
  0
VERTEX
  8
0
 10
544.516592
 20
646.650670
 42
-0.170698
  0
VERTEX
  8
0
 10
544.810333
 20
646.514659
 42
-0.267296
  0
VERTEX
  8
0
 10
544.890243
 20
646.233205
 42
-0.001197
  0
VERTEX
  8
0
 10
544.099560
 20
643.112330
 42
-0.005137
  0
VERTEX
  8
0
 10
543.146242
 20
639.540211
 42
-0.003166
  0
VERTEX
  8
0
 10
541.954895
 20
635.356334
 42
0.004569
  0
VERTEX
  8
0
 10
537.769039
 20
620.497914
 42
0.001483
  0
VERTEX
  8
0
 10
531.846316
 20
598.455365
 42
0.000078
  0
VERTEX
  8
0
 10
525.302362
 20
573.793788
 42
0.265055
  0
VERTEX
  8
0
 10
525.455480
 20
573.215825
 42
0.169859
  0
VERTEX
  8
0
 10
525.716113
 20
573.087628
 42
0.001171
  0
VERTEX
  8
0
 10
528.221644
 20
572.789903
 42
0.004363
  0
VERTEX
  8
0
 10
531.107432
 20
572.479344
 42
0.002756
  0
VERTEX
  8
0
 10
534.479668
 20
572.164934
 42
0.004625
  0
VERTEX
  8
0
 10
539.890276
 20
571.740940
 42
0.050516
  0
VERTEX
  8
0
 10
542.069814
 20
571.810694
 42
0.141935
  0
VERTEX
  8
0
 10
543.262200
 20
572.335940
 42
0.119958
  0
VERTEX
  8
0
 10
544.082571
 20
573.449110
 42
0.025981
  0
VERTEX
  8
0
 10
544.623632
 20
574.957599
 42
0.000711
  0
VERTEX
  8
0
 10
546.629251
 20
581.653801
 42
0.001468
  0
VERTEX
  8
0
 10
548.953423
 20
589.538424
 42
0.001006
  0
VERTEX
  8
0
 10
551.546914
 20
598.500000
 42
-0.001396
  0
VERTEX
  8
0
 10
556.216371
 20
614.587884
 42
-0.001671
  0
VERTEX
  8
0
 10
560.707120
 20
629.712833
 42
-0.000231
  0
VERTEX
  8
0
 10
564.977197
 20
643.896546
 42
-0.106000
  0
VERTEX
  8
0
 10
565.446594
 20
644.747462
 42
-0.244910
  0
VERTEX
  8
0
 10
565.663256
 20
644.832776
 42
-0.000330
  0
VERTEX
  8
0
 10
570.267840
 20
644.343303
 42
-0.002607
  0
VERTEX
  8
0
 10
575.447367
 20
643.761922
 42
-0.001590
  0
VERTEX
  8
0
 10
581.557434
 20
643.024101
 42
0.004644
  0
VERTEX
  8
0
 10
587.696088
 20
642.320836
 42
0.007357
  0
VERTEX
  8
0
 10
592.968530
 20
641.844694
 42
0.002581
  0
VERTEX
  8
0
 10
597.483987
 20
641.527246
 42
0.234246
  0
VERTEX
  8
0
 10
598.081895
 20
641.776639
 42
0.094474
  0
VERTEX
  8
0
 10
599.031744
 20
643.408807
 42
0.004622
  0
VERTEX
  8
0
 10
601.062745
 20
649.349650
 42
0.002191
  0
VERTEX
  8
0
 10
603.116595
 20
655.635877
 42
0.282795
  0
VERTEX
  8
0
 10
602.930166
 20
656.398386
 42
0.169904
  0
VERTEX
  8
0
 10
601.045295
 20
657.293162
 42
0.000526
  0
VERTEX
  8
0
 10
574.229221
 20
660.134686
 42
0.003381
  0
VERTEX
  8
0
 10
548.136588
 20
662.693541
 42
0.005356
  0
VERTEX
  8
0
 10
525.745230
 20
664.495044
 42
0.004406
  0
VERTEX
  8
0
 10
520.156631
 20
664.835018
 42
0.056632
  0
VERTEX
  8
0
 10
518.069854
 20
664.707154
 42
0.161675
  0
VERTEX
  8
0
 10
516.938817
 20
664.096712
 42
0.100304
  0
SEQEND
  0
POLYLINE
  8
0
 66
1
 70
1
  0
VERTEX
  8
0
 10
309.000000
 20
655.642064
 42
0.000000
  0
VERTEX
  8
0
 10
302.500000
 20
654.500000
 42
0.000000
  0
VERTEX
  8
0
 10
301.853537
 20
647.262743
 42
0.013941
  0
VERTEX
  8
0
 10
301.042676
 20
634.031607
 42
0.001246
  0
VERTEX
  8
0
 10
300.015837
 20
600.741409
 42
0.000128
  0
VERTEX
  8
0
 10
298.967251
 20
563.418460
 42
0.206156
  0
VERTEX
  8
0
 10
299.442637
 20
562.224029
 42
0.216082
  0
VERTEX
  8
0
 10
299.961215
 20
562.028966
 42
0.005898
  0
VERTEX
  8
0
 10
302.431953
 20
562.221172
 42
0.011189
  0
VERTEX
  8
0
 10
305.384357
 20
562.552659
 42
0.007317
  0
VERTEX
  8
0
 10
308.772673
 20
563.060660
 42
0.000000
  0
VERTEX
  8
0
 10
317.500000
 20
564.500000
 42
0.000000
  0
VERTEX
  8
0
 10
318.232896
 20
579.500000
 42
-0.000656
  0
VERTEX
  8
0
 10
318.616652
 20
587.148323
 42
-0.000220
  0
VERTEX
  8
0
 10
319.196752
 20
598.318750
 42
-0.000219
  0
VERTEX
  8
0
 10
319.849578
 20
610.680092
 42
-0.000250
  0
VERTEX
  8
0
 10
320.484933
 20
622.500000
 42
0.000607
  0
VERTEX
  8
0
 10
321.854371
 20
648.320029
 42
0.025550
  0
VERTEX
  8
0
 10
321.858168
 20
653.856952
 42
0.185704
  0
VERTEX
  8
0
 10
320.885981
 20
656.047897
 42
0.207697
  0
VERTEX
  8
0
 10
318.750000
 20
656.892064
 42
0.018028
  0
VERTEX
  8
0
 10
317.069122
 20
656.775475
 42
0.005552
  0
VERTEX
  8
0
 10
314.545312
 20
656.480353
 42
0.005546
  0
VERTEX
  8
0
 10
311.726930
 20
656.087200
 42
0.006058
  0
SEQEND
  0
POLYLINE
  8
0
 66
1
 70
1
  0
VERTEX
  8
0
 10
620.163886
 20
653.310621
 42
0.133108
  0
VERTEX
  8
0
 10
614.893227
 20
648.664692
 42
0.200384
  0
VERTEX
  8
0
 10
613.762981
 20
642.727796
 42
0.206041
  0
VERTEX
  8
0
 10
617.184952
 20
637.871099
 42
0.138730
  0
VERTEX
  8
0
 10
623.805764
 20
636.003738
 42
0.122881
  0
VERTEX
  8
0
 10
631.289588
 20
637.877510
 42
0.167752
  0
VERTEX
  8
0
 10
635.984595
 20
642.932248
 42
0.212892
  0
VERTEX
  8
0
 10
635.964300
 20
648.881487
 42
0.178046
  0
VERTEX
  8
0
 10
631.506613
 20
653.429838
 42
0.043133
  0
VERTEX
  8
0
 10
628.520117
 20
654.543248
 42
0.070404
  0
VERTEX
  8
0
 10
625.844401
 20
654.893243
 42
0.069950
  0
VERTEX
  8
0
 10
623.164453
 20
654.487706
 42
0.042016
  0
SEQEND
  0
POLYLINE
  8
0
 66
1
 70
1
  0
VERTEX
  8
0
 10
208.500000
 20
635.587517
 42
0.001740
  0
VERTEX
  8
0
 10
199.598570
 20
633.320941
 42
0.001479
  0
VERTEX
  8
0
 10
190.217187
 20
630.867720
 42
0.001491
  0
VERTEX
  8
0
 10
181.689310
 20
628.583479
 42
0.004209
  0
VERTEX
  8
0
 10
175.750000
 20
626.919813
 42
0.000000
  0
VERTEX
  8
0
 10
164.000000
 20
623.521587
 42
0.000000
  0
VERTEX
  8
0
 10
164.011006
 20
619.010794
 42
0.016065
  0
VERTEX
  8
0
 10
164.195297
 20
613.681503
 42
0.044789
  0
VERTEX
  8
0
 10
164.777026
 20
609.987899
 42
0.083999
  0
VERTEX
  8
0
 10
165.687099
 20
607.912972
 42
0.356084
  0
VERTEX
  8
0
 10
166.889516
 20
607.533520
 42
-0.027737
  0
VERTEX
  8
0
 10
170.640786
 20
608.789265
 42
-0.000809
  0
VERTEX
  8
0
 10
186.785383
 20
613.187084
 42
-0.000373
  0
VERTEX
  8
0
 10
203.718524
 20
617.756708
 42
-0.065804
  0
VERTEX
  8
0
 10
205.559131
 20
618.000000
 42
-0.403577
  0
VERTEX
  8
0
 10
205.937726
 20
617.634959
 42
-0.073676
  0
VERTEX
  8
0
 10
205.819292
 20
616.568842
 42
-0.037078
  0
VERTEX
  8
0
 10
205.214113
 20
614.812596
 42
-0.011263
  0
VERTEX
  8
0
 10
204.043526
 20
612.250000
 42
0.008121
  0
VERTEX
  8
0
 10
198.641293
 20
600.617662
 42
0.003467
  0
VERTEX
  8
0
 10
191.777561
 20
584.894491
 42
0.003488
  0
VERTEX
  8
0
 10
184.960612
 20
568.666510
 42
0.006237
  0
VERTEX
  8
0
 10
179.617805
 20
555.221246
 42
0.008624
  0
VERTEX
  8
0
 10
175.786909
 20
544.678074
 42
0.024725
  0
VERTEX
  8
0
 10
173.620270
 20
537.195053
 42
0.032891
  0
VERTEX
  8
0
 10
172.783359
 20
532.219198
 42
0.444078
  0
VERTEX
  8
0
 10
173.885379
 20
531.000000
 42
0.069377
  0
VERTEX
  8
0
 10
174.537953
 20
531.090985
 42
0.000971
  0
VERTEX
  8
0
 10
178.373126
 20
532.189674
 42
0.002693
  0
VERTEX
  8
0
 10
182.816239
 20
533.497826
 42
0.001768
  0
VERTEX
  8
0
 10
187.919517
 20
535.049954
 42
-0.003282
  0
VERTEX
  8
0
 10
194.210493
 20
536.942518
 42
-0.001519
  0
VERTEX
  8
0
 10
202.409862
 20
539.323583
 42
-0.001505
  0
VERTEX
  8
0
 10
211.040637
 20
541.773420
 42
-0.002094
  0
VERTEX
  8
0
 10
218.784138
 20
543.911309
 42
0.003523
  0
VERTEX
  8
0
 10
227.862476
 20
546.445690
 42
0.017852
  0
VERTEX
  8
0
 10
232.858847
 20
548.073665
 42
0.025983
  0
VERTEX
  8
0
 10
235.808634
 20
549.329996
 42
0.300324
  0
VERTEX
  8
0
 10
236.416667
 20
550.361355
 42
-0.003933
  0
VERTEX
  8
0
 10
236.374941
 20
551.332354
 42
-0.000591
  0
VERTEX
  8
0
 10
236.308854
 20
553.281148
 42
-0.000664
  0
VERTEX
  8
0
 10
236.236586
 20
555.582683
 42
-0.000573
  0
VERTEX
  8
0
 10
236.166667
 20
558.000000
 42
0.009822
  0
VERTEX
  8
0
 10
236.012925
 20
561.240052
 42
0.060890
  0
VERTEX
  8
0
 10
235.701143
 20
562.872759
 42
0.148614
  0
VERTEX
  8
0
 10
235.136487
 20
563.688647
 42
0.169172
  0
VERTEX
  8
0
 10
234.242596
 20
564.000000
 42
0.058797
  0
VERTEX
  8
0
 10
232.994385
 20
563.852710
 42
0.001645
  0
VERTEX
  8
0
 10
227.716104
 20
562.571060
 42
0.003347
  0
VERTEX
  8
0
 10
221.514249
 20
560.999419
 42
0.002291
  0
VERTEX
  8
0
 10
214.492596
 20
559.135525
 42
-0.001977
  0
VERTEX
  8
0
 10
207.568224
 20
557.292808
 42
-0.003227
  0
VERTEX
  8
0
 10
201.678969
 20
555.791013
 42
-0.000507
  0
VERTEX
  8
0
 10
196.465777
 20
554.503003
 42
-0.241826
  0
VERTEX
  8
0
 10
196.137938
 20
554.580920
 42
-0.330441
  0
VERTEX
  8
0
 10
195.809905
 20
556.016633
 42
-0.000629
  0
VERTEX
  8
0
 10
206.020290
 20
579.195819
 42
-0.004512
  0
VERTEX
  8
0
 10
216.378186
 20
602.069472
 42
-0.005993
  0
VERTEX
  8
0
 10
226.233221
 20
622.669678
 42
0.012423
  0
VERTEX
  8
0
 10
230.049589
 20
630.917928
 42
0.042384
  0
VERTEX
  8
0
 10
231.930192
 20
636.521564
 42
0.095627
  0
VERTEX
  8
0
 10
232.088179
 20
639.783113
 42
0.390414
  0
VERTEX
  8
0
 10
230.683578
 20
640.928497
 42
0.043555
  0
VERTEX
  8
0
 10
229.793171
 20
640.796297
 42
0.000454
  0
VERTEX
  8
0
 10
223.678926
 20
639.330089
 42
0.001453
  0
VERTEX
  8
0
 10
216.634237
 20
637.612316
 42
0.000943
  0
SEQEND
  0
POLYLINE
  8
0
 66
1
 70
1
  0
VERTEX
  8
0
 10
598.176370
 20
625.823250
 42
0.018876
  0
VERTEX
  8
0
 10
596.748597
 20
621.329468
 42
0.176582
  0
VERTEX
  8
0
 10
596.907617
 20
619.337776
 42
0.250393
  0
VERTEX
  8
0
 10
598.266121
 20
618.303177
 42
0.038884
  0
VERTEX
  8
0
 10
601.750000
 20
618.015313
 42
-0.016481
  0
VERTEX
  8
0
 10
602.995854
 20
617.968360
 42
-0.026862
  0
VERTEX
  8
0
 10
604.045313
 20
617.837194
 42
-0.025318
  0
VERTEX
  8
0
 10
604.831374
 20
617.654240
 42
-0.334581
  0
VERTEX
  8
0
 10
605.000000
 20
617.430453
 42
-0.080165
  0
VERTEX
  8
0
 10
604.928348
 20
616.986421
 42
-0.000138
  0
VERTEX
  8
0
 10
602.503125
 20
609.674190
 42
-0.001049
  0
VERTEX
  8
0
 10
599.758708
 20
601.464813
 42
-0.000648
  0
VERTEX
  8
0
 10
596.500000
 20
591.825943
 42
0.000333
  0
VERTEX
  8
0
 10
593.240994
 20
582.206200
 42
0.000546
  0
VERTEX
  8
0
 10
590.496875
 20
574.059166
 42
0.000037
  0
VERTEX
  8
0
 10
588.037736
 20
566.729929
 42
0.081089
  0
VERTEX
  8
0
 10
588.000000
 20
566.498778
 42
0.374453
  0
VERTEX
  8
0
 10
588.324559
 20
566.126166
 42
0.000768
  0
VERTEX
  8
0
 10
596.580544
 20
564.995572
 42
0.000914
  0
VERTEX
  8
0
 10
604.789552
 20
563.899533
 42
0.248582
  0
VERTEX
  8
0
 10
605.432350
 20
564.138834
 42
0.093554
  0
VERTEX
  8
0
 10
605.628961
 20
564.466411
 42
0.000110
  0
VERTEX
  8
0
 10
608.368585
 20
571.884532
 42
0.001007
  0
VERTEX
  8
0
 10
611.417600
 20
580.197528
 42
0.000619
  0
VERTEX
  8
0
 10
614.976786
 20
590.000000
 42
-0.000818
  0
VERTEX
  8
0
 10
618.683931
 20
600.197337
 42
-0.000991
  0
VERTEX
  8
0
 10
622.195122
 20
609.747883
 42
-0.000837
  0
VERTEX
  8
0
 10
625.179711
 20
617.775313
 42
-0.006848
  0
VERTEX
  8
0
 10
626.598277
 20
621.418326
 42
0.009548
  0
VERTEX
  8
0
 10
627.481333
 20
623.722823
 42
0.014833
  0
VERTEX
  8
0
 10
628.145162
 20
625.745131
 42
0.009022
  0
VERTEX
  8
0
 10
628.609054
 20
627.424790
 42
0.265170
  0
VERTEX
  8
0
 10
628.496297
 20
627.837036
 42
0.156433
  0
VERTEX
  8
0
 10
627.433123
 20
628.383860
 42
0.000992
  0
VERTEX
  8
0
 10
616.773958
 20
630.133699
 42
0.003151
  0
VERTEX
  8
0
 10
606.918678
 20
631.667831
 42
0.034975
  0
VERTEX
  8
0
 10
602.949399
 20
631.978876
 42
0.095858
  0
VERTEX
  8
0
 10
601.501104
 20
631.711065
 42
0.135129
  0
VERTEX
  8
0
 10
600.455541
 20
630.928346
 42
0.067861
  0
VERTEX
  8
0
 10
599.509231
 20
629.290959
 42
0.010786
  0
SEQEND
  0
POLYLINE
  8
0
 66
1
 70
1
  0
VERTEX
  8
0
 10
660.112326
 20
618.419451
 42
0.064254
  0
VERTEX
  8
0
 10
648.438744
 20
613.606638
 42
0.071648
  0
VERTEX
  8
0
 10
638.843116
 20
606.121944
 42
0.073198
  0
VERTEX
  8
0
 10
631.904814
 20
596.386234
 42
0.071526
  0
VERTEX
  8
0
 10
627.997745
 20
584.988107
 42
0.087287
  0
VERTEX
  8
0
 10
627.876290
 20
575.847993
 42
0.096773
  0
VERTEX
  8
0
 10
630.933088
 20
567.571380
 42
0.092931
  0
VERTEX
  8
0
 10
637.012397
 20
560.806373
 42
0.073980
  0
VERTEX
  8
0
 10
645.614269
 20
556.043131
 42
0.038716
  0
VERTEX
  8
0
 10
651.951614
 20
554.216476
 42
0.023652
  0
VERTEX
  8
0
 10
659.645204
 20
553.006914
 42
0.023745
  0
VERTEX
  8
0
 10
667.303174
 20
552.537943
 42
0.044205
  0
VERTEX
  8
0
 10
673.500000
 20
553.001524
 42
-0.002104
  0
VERTEX
  8
0
 10
675.862891
 20
553.379969
 42
-0.002862
  0
VERTEX
  8
0
 10
677.998030
 20
553.700218
 42
-0.001899
  0
VERTEX
  8
0
 10
679.792270
 20
553.951890
 42
-0.032269
  0
VERTEX
  8
0
 10
680.386910
 20
553.994208
 42
0.421052
  0
VERTEX
  8
0
 10
680.977819
 20
554.606997
 42
0.005512
  0
VERTEX
  8
0
 10
680.738430
 20
560.464643
 42
0.007624
  0
VERTEX
  8
0
 10
680.353050
 20
566.197974
 42
0.177591
  0
VERTEX
  8
0
 10
679.677659
 20
567.655675
 42
0.218517
  0
VERTEX
  8
0
 10
679.273573
 20
567.805530
 42
0.020907
  0
VERTEX
  8
0
 10
678.203399
 20
567.679798
 42
0.023609
  0
VERTEX
  8
0
 10
676.883790
 20
567.404089
 42
0.016400
  0
VERTEX
  8
0
 10
675.422332
 20
566.974367
 42
-0.069771
  0
VERTEX
  8
0
 10
670.962629
 20
566.165332
 42
-0.034008
  0
VERTEX
  8
0
 10
665.168348
 20
566.326727
 42
-0.033769
  0
VERTEX
  8
0
 10
659.293378
 20
567.295029
 42
-0.055050
  0
VERTEX
  8
0
 10
654.536973
 20
568.982102
 42
-0.054570
  0
VERTEX
  8
0
 10
651.181137
 20
571.085447
 42
-0.080289
  0
VERTEX
  8
0
 10
648.835097
 20
573.646256
 42
-0.083001
  0
VERTEX
  8
0
 10
647.465565
 20
576.747929
 42
-0.062627
  0
VERTEX
  8
0
 10
647.000000
 20
580.450340
 42
-0.022344
  0
VERTEX
  8
0
 10
647.081185
 20
582.266124
 42
-0.100306
  0
VERTEX
  8
0
 10
647.383106
 20
583.280449
 42
-0.171399
  0
VERTEX
  8
0
 10
647.961241
 20
583.810514
 42
-0.100979
  0
VERTEX
  8
0
 10
648.889921
 20
584.000000
 42
-0.047939
  0
VERTEX
  8
0
 10
652.133991
 20
583.688248
 42
-0.003040
  0
VERTEX
  8
0
 10
661.523237
 20
581.807536
 42
-0.004607
  0
VERTEX
  8
0
 10
672.363796
 20
579.463137
 42
-0.004018
  0
VERTEX
  8
0
 10
683.666258
 20
576.813969
 42
0.007148
  0
VERTEX
  8
0
 10
693.565502
 20
574.558961
 42
0.110354
  0
VERTEX
  8
0
 10
697.036929
 20
574.594163
 42
0.184920
  0
VERTEX
  8
0
 10
699.425760
 20
576.213300
 42
0.027754
  0
VERTEX
  8
0
 10
702.528458
 20
581.229620
 42
0.022458
  0
VERTEX
  8
0
 10
703.978093
 20
584.203791
 42
0.042051
  0
VERTEX
  8
0
 10
704.831017
 20
586.738784
 42
0.040344
  0
VERTEX
  8
0
 10
705.268179
 20
589.450019
 42
0.019003
  0
VERTEX
  8
0
 10
705.414454
 20
592.996863
 42
0.089287
  0
VERTEX
  8
0
 10
703.838011
 20
601.918857
 42
0.104190
  0
VERTEX
  8
0
 10
699.269922
 20
609.195053
 42
0.090546
  0
VERTEX
  8
0
 10
691.565706
 20
614.717828
 42
0.052500
  0
VERTEX
  8
0
 10
680.781481
 20
618.489482
 42
0.024530
  0
VERTEX
  8
0
 10
675.211765
 20
619.517317
 42
0.034220
  0
VERTEX
  8
0
 10
670.157463
 20
619.846432
 42
0.035446
  0
VERTEX
  8
0
 10
665.246266
 20
619.481099
 42
0.029409
  0
SEQEND
  0
POLYLINE
  8
0
 66
1
 70
1
  0
VERTEX
  8
0
 10
678.364218
 20
604.621180
 42
-0.065882
  0
VERTEX
  8
0
 10
681.538506
 20
602.772580
 42
-0.075133
  0
VERTEX
  8
0
 10
683.963652
 20
600.230618
 42
-0.077360
  0
VERTEX
  8
0
 10
685.478826
 20
597.153018
 42
-0.075914
  0
VERTEX
  8
0
 10
686.000000
 20
593.740141
 42
-0.012125
  0
VERTEX
  8
0
 10
685.939474
 20
591.244680
 42
-0.159093
  0
VERTEX
  8
0
 10
685.614450
 20
590.391652
 42
-0.248159
  0
VERTEX
  8
0
 10
684.914600
 20
590.091854
 42
-0.032105
  0
VERTEX
  8
0
 10
683.250000
 20
590.336549
 42
-0.001605
  0
VERTEX
  8
0
 10
681.572285
 20
590.700022
 42
-0.000200
  0
VERTEX
  8
0
 10
677.929688
 20
591.502955
 42
-0.000236
  0
VERTEX
  8
0
 10
673.604708
 20
592.460254
 42
-0.000195
  0
VERTEX
  8
0
 10
669.000000
 20
593.483630
 42
0.000001
  0
VERTEX
  8
0
 10
664.421717
 20
594.502997
 42
0.000001
  0
VERTEX
  8
0
 10
660.177205
 20
595.448026
 42
0.000001
  0
VERTEX
  8
0
 10
656.615066
 20
596.241108
 42
0.000011
  0
VERTEX
  8
0
 10
655.113890
 20
596.575295
 42
0.000000
  0
VERTEX
  8
0
 10
652.727781
 20
597.106427
 42
0.000000
  0
VERTEX
  8
0
 10
655.489687
 20
599.989235
 42
-0.024401
  0
VERTEX
  8
0
 10
656.774598
 20
601.205653
 42
-0.016178
  0
VERTEX
  8
0
 10
658.358017
 20
602.477948
 42
-0.016299
  0
VERTEX
  8
0
 10
659.980191
 20
603.616385
 42
-0.030273
  0
VERTEX
  8
0
 10
661.375796
 20
604.413252
 42
-0.076417
  0
VERTEX
  8
0
 10
664.896625
 20
605.524576
 42
-0.035257
  0
VERTEX
  8
0
 10
669.696513
 20
605.922546
 42
-0.035221
  0
VERTEX
  8
0
 10
674.573263
 20
605.638524
 42
-0.066897
  0
SEQEND
  0
POLYLINE
  8
0
 66
1
 70
1
  0
VERTEX
  8
0
 10
726.000000
 20
600.405695
 42
0.086173
  0
VERTEX
  8
0
 10
719.473666
 20
596.123561
 42
0.104779
  0
VERTEX
  8
0
 10
715.296532
 20
590.139411
 42
0.114778
  0
VERTEX
  8
0
 10
714.128263
 20
583.416326
 42
0.120503
  0
VERTEX
  8
0
 10
716.087462
 20
577.000000
 42
0.042777
  0
VERTEX
  8
0
 10
717.393446
 20
575.177242
 42
0.009398
  0
VERTEX
  8
0
 10
719.953360
 20
572.293637
 42
0.009714
  0
VERTEX
  8
0
 10
723.050767
 20
569.062232
 42
0.009199
  0
VERTEX
  8
0
 10
726.327137
 20
565.893231
 42
-0.004498
  0
VERTEX
  8
0
 10
731.414077
 20
561.064738
 42
-0.051291
  0
VERTEX
  8
0
 10
733.194806
 20
558.950449
 42
-0.137007
  0
VERTEX
  8
0
 10
733.745949
 20
557.315606
 42
-0.098065
  0
VERTEX
  8
0
 10
733.470149
 20
555.395555
 42
-0.058989
  0
VERTEX
  8
0
 10
732.879916
 20
554.192205
 42
-0.039020
  0
VERTEX
  8
0
 10
731.944888
 20
552.966956
 42
-0.039048
  0
VERTEX
  8
0
 10
730.832122
 20
551.903195
 42
-0.059543
  0
VERTEX
  8
0
 10
729.705447
 20
551.187555
 42
-0.131412
  0
VERTEX
  8
0
 10
726.263705
 20
550.541282
 42
-0.052874
  0
VERTEX
  8
0
 10
721.518953
 20
551.411370
 42
-0.047507
  0
VERTEX
  8
0
 10
716.332868
 20
553.494538
 42
-0.043795
  0
VERTEX
  8
0
 10
711.480159
 20
556.567007
 42
0.000000
  0
VERTEX
  8
0
 10
706.831110
 20
560.115707
 42
0.000000
  0
VERTEX
  8
0
 10
701.665555
 20
555.327184
 42
0.003406
  0
VERTEX
  8
0
 10
699.665901
 20
553.447994
 42
0.004994
  0
VERTEX
  8
0
 10
697.934910
 20
551.765634
 42
0.002493
  0
VERTEX
  8
0
 10
696.490061
 20
550.318682
 42
0.087555
  0
VERTEX
  8
0
 10
696.219245
 20
549.927066
 42
0.352684
  0
VERTEX
  8
0
 10
696.544537
 20
548.641174
 42
0.010841
  0
VERTEX
  8
0
 10
701.297465
 20
545.224894
 42
0.019963
  0
VERTEX
  8
0
 10
706.457132
 20
541.978431
 42
0.037737
  0
VERTEX
  8
0
 10
710.888309
 20
539.858353
 42
0.028477
  0
VERTEX
  8
0
 10
714.043697
 20
538.834081
 42
0.023086
  0
VERTEX
  8
0
 10
717.523752
 20
538.089500
 42
0.019628
  0
VERTEX
  8
0
 10
721.578496
 20
537.578499
 42
0.011246
  0
VERTEX
  8
0
 10
726.500000
 20
537.264958
 42
0.007130
  0
VERTEX
  8
0
 10
732.627972
 20
537.100252
 42
0.041782
  0
VERTEX
  8
0
 10
735.838508
 20
537.328274
 42
0.058309
  0
VERTEX
  8
0
 10
738.486435
 20
538.063690
 42
0.021833
  0
VERTEX
  8
0
 10
741.993811
 20
539.676706
 42
0.078976
  0
VERTEX
  8
0
 10
748.594035
 20
544.512671
 42
0.101894
  0
VERTEX
  8
0
 10
752.688372
 20
550.792763
 42
0.112565
  0
VERTEX
  8
0
 10
753.732908
 20
557.681887
 42
0.114593
  0
VERTEX
  8
0
 10
751.673954
 20
564.293383
 42
0.029656
  0
VERTEX
  8
0
 10
750.412104
 20
566.180496
 42
0.018960
  0
VERTEX
  8
0
 10
748.739347
 20
568.221363
 42
0.019048
  0
VERTEX
  8
0
 10
746.941394
 20
570.103212
 42
0.033410
  0
VERTEX
  8
0
 10
745.299552
 20
571.495426
 42
-0.017070
  0
VERTEX
  8
0
 10
740.978586
 20
574.923308
 42
-0.022924
  0
VERTEX
  8
0
 10
737.324447
 20
578.331781
 42
-0.020902
  0
VERTEX
  8
0
 10
734.611761
 20
581.347609
 42
-0.174420
  0
VERTEX
  8
0
 10
734.000000
 20
583.047960
 42
-0.144965
  0
VERTEX
  8
0
 10
734.515654
 20
584.789128
 42
-0.082545
  0
VERTEX
  8
0
 10
736.009118
 20
586.422885
 42
-0.076349
  0
VERTEX
  8
0
 10
738.090337
 20
587.595549
 42
-0.090422
  0
VERTEX
  8
0
 10
740.308504
 20
588.000000
 42
-0.066722
  0
VERTEX
  8
0
 10
743.343293
 20
587.593218
 42
-0.027021
  0
VERTEX
  8
0
 10
747.312863
 20
586.275453
 42
-0.026805
  0
VERTEX
  8
0
 10
751.351280
 20
584.432404
 42
-0.038524
  0
VERTEX
  8
0
 10
754.683278
 20
582.349192
 42
0.012183
  0
VERTEX
  8
0
 10
755.962049
 20
581.452771
 42
0.016095
  0
VERTEX
  8
0
 10
757.171380
 20
580.703239
 42
0.013497
  0
VERTEX
  8
0
 10
758.202442
 20
580.145756
 42
0.131624
  0
VERTEX
  8
0
 10
758.683278
 20
580.044812
 42
0.145900
  0
VERTEX
  8
0
 10
759.191500
 20
580.227205
 42
0.006442
  0
VERTEX
  8
0
 10
760.703788
 20
581.370207
 42
0.010429
  0
VERTEX
  8
0
 10
762.472392
 20
582.803188
 42
0.007217
  0
VERTEX
  8
0
 10
764.414724
 20
584.493868
 42
0.024670
  0
VERTEX
  8
0
 10
767.817363
 20
587.859997
 42
0.248272
  0
VERTEX
  8
0
 10
768.304153
 20
589.729275
 42
0.181291
  0
VERTEX
  8
0
 10
767.084429
 20
591.548475
 42
0.012741
  0
VERTEX
  8
0
 10
761.921276
 20
595.050517
 42
0.061182
  0
VERTEX
  8
0
 10
753.494343
 20
599.103592
 42
0.044555
  0
VERTEX
  8
0
 10
743.377531
 20
601.547655
 42
0.045827
  0
VERTEX
  8
0
 10
733.524714
 20
602.103949
 42
0.093663
  0
SEQEND
  0
POLYLINE
  8
0
 66
1
 70
1
  0
VERTEX
  8
0
 10
345.984398
 20
588.148389
 42
0.134591
  0
VERTEX
  8
0
 10
339.895476
 20
582.407043
 42
0.161486
  0
VERTEX
  8
0
 10
338.131521
 20
574.769838
 42
0.192373
  0
VERTEX
  8
0
 10
341.332150
 20
568.520443
 42
0.181291
  0
VERTEX
  8
0
 10
348.055043
 20
566.000000
 42
0.069685
  0
VERTEX
  8
0
 10
352.080083
 20
566.563704
 42
0.076048
  0
VERTEX
  8
0
 10
355.666295
 20
568.208817
 42
0.073889
  0
VERTEX
  8
0
 10
358.676152
 20
570.899172
 42
0.060835
  0
VERTEX
  8
0
 10
361.011547
 20
574.523853
 42
0.054843
  0
VERTEX
  8
0
 10
362.388336
 20
578.400397
 42
0.099604
  0
VERTEX
  8
0
 10
362.499319
 20
581.748733
 42
0.106815
  0
VERTEX
  8
0
 10
361.318067
 20
584.721357
 42
0.070171
  0
VERTEX
  8
0
 10
358.849757
 20
587.472968
 42
0.075879
  0
VERTEX
  8
0
 10
356.003879
 20
589.210120
 42
0.086243
  0
VERTEX
  8
0
 10
352.892223
 20
589.920701
 42
0.080092
  0
VERTEX
  8
0
 10
349.538826
 20
589.559186
 42
0.055361
  0
SEQEND
  0
POLYLINE
  8
0
 66
1
 70
1
  0
VERTEX
  8
0
 10
259.500000
 20
574.139440
 42
0.058626
  0
VERTEX
  8
0
 10
255.397811
 20
570.886474
 42
0.085796
  0
VERTEX
  8
0
 10
252.755958
 20
567.123078
 42
0.093736
  0
VERTEX
  8
0
 10
251.673731
 20
562.953687
 42
0.084308
  0
VERTEX
  8
0
 10
252.124924
 20
558.509733
 42
0.079064
  0
VERTEX
  8
0
 10
253.559760
 20
555.357895
 42
0.116552
  0
VERTEX
  8
0
 10
255.767609
 20
553.285601
 42
0.102914
  0
VERTEX
  8
0
 10
258.888283
 20
552.263290
 42
0.051862
  0
VERTEX
  8
0
 10
263.048897
 20
552.230677
 42
0.055091
  0
VERTEX
  8
0
 10
266.762074
 20
553.006071
 42
0.072179
  0
VERTEX
  8
0
 10
269.863733
 20
554.542947
 42
0.070918
  0
VERTEX
  8
0
 10
272.440094
 20
556.922697
 42
0.050967
  0
VERTEX
  8
0
 10
274.595014
 20
560.200340
 42
0.151312
  0
VERTEX
  8
0
 10
275.881661
 20
567.294783
 42
0.177906
  0
VERTEX
  8
0
 10
272.785663
 20
573.343728
 42
0.177286
  0
VERTEX
  8
0
 10
266.499086
 20
575.962327
 42
0.150390
  0
SEQEND
  0
ENDSEC
  0
EOF
